<svg xmlns="http://www.w3.org/2000/svg" viewBox="0 0 750 500"><g id="freepik--background-complete--inject-179"><path d="M356.64,341.84a35.69,35.69,0,0,1,8.62-3.74l1.78-8.53,14.41-.26,2.08,8.47a35.32,35.32,0,0,1,8.75,3.44l7.28-4.78,10.37,10-4.51,7.44a35.2,35.2,0,0,1,3.74,8.63l8.53,1.77.26,14.42-8.47,2.07a35.32,35.32,0,0,1-3.44,8.75l4.78,7.28-10,10.37-7.44-4.51a35.3,35.3,0,0,1-8.62,3.74L383,415l-14.41.25-2.08-8.46a35.74,35.74,0,0,1-8.75-3.45l-7.28,4.78-10.37-10,4.51-7.45a35.69,35.69,0,0,1-3.74-8.62l-8.54-1.78-.25-14.41,8.47-2.08A35.1,35.1,0,0,1,344,355l-4.78-7.29,10-10.37,7.44,4.51Zm7.69,19.21a15.46,15.46,0,1,0,21.87-.39A15.47,15.47,0,0,0,364.33,361.05Z" style="fill:#e0e0e0"></path><path d="M434.48,397.1a24.16,24.16,0,0,1,6-2.6l1.23-5.93,10-.17,1.44,5.87a24.43,24.43,0,0,1,6.07,2.39l5.06-3.31,7.2,6.95-3.14,5.17a24.16,24.16,0,0,1,2.6,6l5.92,1.23.18,10-5.88,1.44a24.4,24.4,0,0,1-2.38,6.07l3.31,5.06-6.95,7.2L460,439.32a24.32,24.32,0,0,1-6,2.6l-1.24,5.93-10,.17-1.44-5.87a24.82,24.82,0,0,1-6.07-2.39l-5.06,3.31-7.2-6.95L426.1,431a24.54,24.54,0,0,1-2.6-6l-5.92-1.23-.17-10,5.87-1.44a24.43,24.43,0,0,1,2.39-6.07l-3.31-5.06,6.95-7.2,5.17,3.14Zm5.33,13.33a10.74,10.74,0,1,0,15.18-.27A10.73,10.73,0,0,0,439.81,410.43Z" style="fill:#e0e0e0"></path><path d="M443,36.25a17.11,17.11,0,0,1,4.15-1.8l.85-4.11,6.95-.12,1,4.08A17,17,0,0,1,460.14,36l3.51-2.3,5,4.83-2.17,3.58a17.18,17.18,0,0,1,1.8,4.16l4.11.85L472.5,54l-4.07,1a16.92,16.92,0,0,1-1.66,4.22l2.3,3.51-4.82,5-3.59-2.17a17.11,17.11,0,0,1-4.15,1.8l-.86,4.11-6.94.12-1-4.08a16.83,16.83,0,0,1-4.21-1.65L440,68.16l-5-4.83,2.18-3.58a16.83,16.83,0,0,1-1.81-4.16l-4.11-.85-.12-6.94,4.08-1a16.92,16.92,0,0,1,1.66-4.22l-2.3-3.5,4.82-5L443,36.25Zm3.7,9.25a7.45,7.45,0,1,0,10.53-.18A7.45,7.45,0,0,0,446.68,45.5Z" style="fill:#f5f5f5"></path><path d="M378.89,30.12a24.54,24.54,0,0,1,6-2.6l1.23-5.92,10-.18,1.44,5.88a24.4,24.4,0,0,1,6.07,2.38l5.06-3.31,7.2,7-3.14,5.17a24.32,24.32,0,0,1,2.6,6l5.93,1.24.17,10-5.87,1.44a24.82,24.82,0,0,1-2.39,6.07l3.31,5.06-6.95,7.2-5.17-3.13a24.71,24.71,0,0,1-6,2.6l-1.24,5.92-10,.17-1.44-5.87a24.43,24.43,0,0,1-6.07-2.39l-5.06,3.32-7.2-7L370.52,64a24.16,24.16,0,0,1-2.6-6L362,56.76l-.17-10,5.87-1.44a25,25,0,0,1,2.39-6.07l-3.31-5.06,7-7.2,5.17,3.14Zm5.33,13.33a10.74,10.74,0,1,0,15.18-.27A10.73,10.73,0,0,0,384.22,43.45Z" style="fill:#e0e0e0"></path><path d="M98.16,79.66l15.26,21.82a4.13,4.13,0,0,0,6.83-.11L135,78.67Z" style="fill:#e0e0e0"></path><rect x="82.02" y="43.11" width="66.86" height="48.62" rx="11.56" style="fill:#e0e0e0"></rect><path d="M128.53,63c-2.14-3.91-5.69-4.52-8.08-3.63A8.2,8.2,0,0,0,116.51,63a8.25,8.25,0,0,0-4-3.63c-2.39-.89-5.94-.28-8.08,3.63-4.48,8.18,12,18.82,12,18.82S133,71.13,128.53,63Z" style="fill:#fff"></path><polygon points="71.66 279.54 52.73 337.83 66.26 337.83 85.03 279.54 71.66 279.54" style="fill:#ebebeb"></polygon><polygon points="94.6 279.67 75.72 337.83 89.24 337.85 107.98 279.67 94.6 279.67" style="fill:#ebebeb"></polygon><polygon points="49.79 301.76 54.36 288.77 115.44 288.77 111.45 301.76 49.79 301.76" style="fill:#ebebeb"></polygon><polygon points="44.13 325.74 48.7 312.75 109.79 312.75 105.79 325.74 44.13 325.74" style="fill:#ebebeb"></polygon><path d="M662.68,63.69a21.79,21.79,0,1,0-40.58,11h0l.07.08c.83,1.41,1.88,2.42,2.94,3.9l12.65,16.76a3.94,3.94,0,0,0,6.28,0L656.47,79a47.1,47.1,0,0,0,3.16-4.19l0-.06h0A21.68,21.68,0,0,0,662.68,63.69Zm-21.8,9.49a9.6,9.6,0,1,1,9.6-9.6A9.6,9.6,0,0,1,640.88,73.18Z" style="fill:#f5f5f5"></path></g><g id="freepik--Floor--inject-179"><path d="M703.69,469.44c0,.14-147.17.26-328.67.26s-328.71-.12-328.71-.26,147.14-.26,328.71-.26S703.69,469.29,703.69,469.44Z" style="fill:#263238"></path></g><g id="freepik--profile-bubble--inject-179"><path d="M685.67,107.91H578.51a5.23,5.23,0,0,0-5.23,5.23V239a5.23,5.23,0,0,0,5.23,5.23H581a5.22,5.22,0,0,1,4.11,2c1.39,1.77,3,3.88,4.52,5.8a5.22,5.22,0,0,0,8.3-.07l4.26-5.65a5.23,5.23,0,0,1,4.18-2.08h79.32A5.23,5.23,0,0,0,690.9,239V113.14A5.23,5.23,0,0,0,685.67,107.91Z" style="fill:#fff"></path><rect x="573.28" y="149.16" width="117.62" height="72.79" style="fill:#ebebeb"></rect><path d="M573.28,222l31-36.94a11.45,11.45,0,0,1,15.55-1.36l4.61,3.7a4.87,4.87,0,0,0,6.74-.72L644,169.92c4.49-5.84,14.33-5.35,18.06.91C673.3,189.76,690.9,222,690.9,222Z" style="fill:#e0e0e0"></path><path d="M598.43,228.61a3.16,3.16,0,0,0-3.79-1.62,3.76,3.76,0,0,0-1.84,1.62A3.75,3.75,0,0,0,591,227a3.15,3.15,0,0,0-3.78,1.62c-2.1,3.62,5.63,8.34,5.63,8.34S600.52,232.23,598.43,228.61Z" style="fill:#FFB000"></path><path d="M652.34,130.54H619.83a2,2,0,0,1-2-2h0a2,2,0,0,1,2-2h32.51a2,2,0,0,1,2,2h0A2,2,0,0,1,652.34,130.54Z" style="fill:#e0e0e0"></path><path d="M677.89,122.83a1.67,1.67,0,1,1-1.67-1.59A1.62,1.62,0,0,1,677.89,122.83Z" style="fill:#e0e0e0"></path><path d="M677.89,127.42a1.67,1.67,0,1,1-1.67-1.58A1.63,1.63,0,0,1,677.89,127.42Z" style="fill:#e0e0e0"></path><path d="M677.89,132a1.67,1.67,0,1,1-1.67-1.58A1.62,1.62,0,0,1,677.89,132Z" style="fill:#e0e0e0"></path><circle cx="596.2" cy="128.93" r="14.39" transform="translate(31.99 360.75) rotate(-34.54)" style="fill:#ebebeb"></circle><path d="M602.88,135.78c-.21-.13-3-.72-3-.72l-6.75.18-2.42.45s.23,6.17.3,6.3,4.52.92,4.65,1a39.19,39.19,0,0,0,4.28-.78l4.55-5.75Z" style="fill:#ae7461"></path><path d="M592.2,113.68a8.53,8.53,0,0,0-5.11,4.62,10.67,10.67,0,0,0-.68,6c.17,1.32.54,2.65.78,3.91a6.72,6.72,0,0,1-1.09,4.25c-.26.43-.63.89-.5,1.37a1.38,1.38,0,0,0,1.07.81,5,5,0,0,0,2.86-.1l-.12,1a23.84,23.84,0,0,0,7.17-1.67,5,5,0,0,0,2.14-1.17,4.45,4.45,0,0,0,.69-1.15,52,52,0,0,0,2-5" style="fill:#263238"></path><path d="M603.28,116.65a9.49,9.49,0,0,0-7.34-3.65,10.3,10.3,0,0,0-3.56.64,5.3,5.3,0,0,0-3,2,8.79,8.79,0,0,0-1.72,4,24.68,24.68,0,0,0-.22,4.54,8.36,8.36,0,0,0,1.42,4.27l3.85.67a24.1,24.1,0,0,0,6.35-.35,8.11,8.11,0,0,0,5.19-3.41C605.79,122.85,605.15,118.94,603.28,116.65Z" style="fill:#263238"></path><path d="M599.86,116.63l-5.14-2-1.34.15c-3,0-5.09,3.34-5.11,5.78a43.67,43.67,0,0,0,.49,8,5.2,5.2,0,0,0,4.3,4.36s-.07,2.15-.1,3.5l7.86-.57.39-17.83A1.41,1.41,0,0,0,599.86,116.63Z" style="fill:#ae7461"></path><path d="M590.1,123.92a.51.51,0,0,0,.53.49.5.5,0,0,0,.51-.5.52.52,0,0,0-.53-.49A.49.49,0,0,0,590.1,123.92Z" style="fill:#263238"></path><path d="M589.12,122.51c.07.07.46-.23,1-.25s1,.23,1.07.16-.05-.15-.23-.27a1.58,1.58,0,0,0-.86-.2,1.44,1.44,0,0,0-.82.28C589.14,122.37,589.09,122.49,589.12,122.51Z" style="fill:#263238"></path><path d="M592.79,126.27a3.93,3.93,0,0,0-.92-.11c-.15,0-.28,0-.31-.12a.72.72,0,0,1,.07-.43c.11-.36.24-.73.36-1.12a20.07,20.07,0,0,0,.8-2.9,17.59,17.59,0,0,0-1,2.83c-.12.39-.23.77-.34,1.12a.84.84,0,0,0,0,.57.39.39,0,0,0,.25.19.69.69,0,0,0,.24,0A3.26,3.26,0,0,0,592.79,126.27Z" style="fill:#263238"></path><path d="M593.05,132.91a10.42,10.42,0,0,0,5.36-1.75s-1.3,2.89-5.38,2.74Z" style="fill:#6f4439"></path><path d="M589.26,121c.1.14.53,0,1,0s.93.12,1,0,0-.19-.2-.32a1.43,1.43,0,0,0-.82-.24,1.47,1.47,0,0,0-.83.22C589.28,120.81,589.22,120.94,589.26,121Z" style="fill:#263238"></path><path d="M596.47,123.7a.51.51,0,0,1-.49.54.51.51,0,0,1-.55-.46.53.53,0,0,1,.5-.54A.5.5,0,0,1,596.47,123.7Z" style="fill:#263238"></path><path d="M597.08,122.26c-.07.08-.52-.22-1.13-.18s-1.05.37-1.12.29,0-.17.22-.32a1.59,1.59,0,0,1,.89-.33,1.51,1.51,0,0,1,.9.24C597,122.09,597.11,122.23,597.08,122.26Z" style="fill:#263238"></path><path d="M596.24,120.3c-.1.12-.54,0-1.06,0s-1,.11-1.06,0,0-.19.21-.31a1.57,1.57,0,0,1,.86-.23,1.69,1.69,0,0,1,.85.24C596.23,120.1,596.29,120.23,596.24,120.3Z" style="fill:#263238"></path><path d="M605.05,119.33c-1.81-3.7-4.53-6.16-9.4-6.33l3.86,9.4c1.82,2.64,1.82,5.84.86,8.89-.27.86-.63,1.85-.13,2.59a1.81,1.81,0,0,0,2.42.27,4.81,4.81,0,0,0,1.51-1.88.6.6,0,0,0,.36.65.9.9,0,0,0,1-.3,2.3,2.3,0,0,0,.44-1,18.39,18.39,0,0,0,.51-3.77A17.38,17.38,0,0,0,605.05,119.33Z" style="fill:#263238"></path><path d="M600.52,124.83c0-.31.29-1,.59-1.1a1.76,1.76,0,0,1,2.35,1.84,2.09,2.09,0,0,1-2.65,2.29C600.8,127.79,600.57,125.87,600.52,124.83Z" style="fill:#ae7461"></path><path d="M601.51,126.8s0,0,.13.06a.53.53,0,0,0,.37,0,1.22,1.22,0,0,0,.48-1.11,1.49,1.49,0,0,0-.18-.68.54.54,0,0,0-.38-.35.26.26,0,0,0-.28.15.64.64,0,0,0,0,.14s-.07,0,0-.16a.32.32,0,0,1,.36-.26.67.67,0,0,1,.53.4,1.65,1.65,0,0,1,.21.76,1.22,1.22,0,0,1-.63,1.23.49.49,0,0,1-.44,0C601.52,126.87,601.5,126.8,601.51,126.8Z" style="fill:#6f4439"></path><path d="M601.22,123.74l-.7.84c-6.63-4-9-10.29-8.64-9.86a8.78,8.78,0,0,1,4.34-.47c2.25.38,6.53,1.51,6.47,4.17A14,14,0,0,1,601.22,123.74Z" style="fill:#263238"></path><path d="M602.46,128.3a1,1,0,1,1-1-1A1,1,0,0,1,602.46,128.3Z" style="fill:#455a64"></path><path d="M592.13,113.68c0,.15,2.52-.38,3.61.27a9.38,9.38,0,0,1,2.66,2.7,13.94,13.94,0,0,1,2.82,7.09,2.16,2.16,0,0,1,1.47.17s1.36-8.28-6.75-10.91C595.94,113,592.61,112.33,592.13,113.68Z" style="fill:#455a64"></path><path d="M592.83,113.16l.15,0a2.94,2.94,0,0,1,.45-.11l.33,0h.4a5.21,5.21,0,0,1,1,.13,6.92,6.92,0,0,1,2.26,1.06,10,10,0,0,1,2.24,2.09,10.82,10.82,0,0,1,1.54,2.65c.09.23.17.44.24.65s.13.43.19.63.09.4.13.59.07.38.1.55a2.6,2.6,0,0,1,0,.26l0,.25c0,.16,0,.31,0,.45,0,.29,0,.53,0,.73l0,.46c0,.1,0,.16,0,.16V123c0-.2,0-.44,0-.73,0-.14,0-.29-.05-.44l0-.25c0-.08,0-.17,0-.26s-.06-.36-.1-.54-.09-.39-.14-.59-.12-.41-.19-.62-.16-.42-.24-.64a10.81,10.81,0,0,0-1.53-2.63,10.51,10.51,0,0,0-2.22-2.08,7.23,7.23,0,0,0-2.23-1.06,5.06,5.06,0,0,0-.94-.15h-.39a2.88,2.88,0,0,0-.33,0l-.45.08Z" style="fill:#263238"></path><path d="M593.54,127.86a1.48,1.48,0,0,0,.61.37.65.65,0,0,0,.72-.15.57.57,0,0,0,0-.65.9.9,0,0,0-.6-.36H594a.57.57,0,0,0-.48.29.47.47,0,0,0,0,.51Z" style="fill:#6f4439"></path><path d="M594.79,126.61c-.08,0-.1.57-.61,1s-1.1.3-1.11.38.13.12.39.13a1.4,1.4,0,0,0,.93-.29,1.26,1.26,0,0,0,.47-.8C594.89,126.75,594.83,126.61,594.79,126.61Z" style="fill:#263238"></path><path d="M584.45,137.24a15.75,15.75,0,0,0,11.63,6.37,10.38,10.38,0,0,0,3.51-.29,13.3,13.3,0,0,0,8.73-6.91l-7.49-1.24s-.81,3.4-4,3.34a4.27,4.27,0,0,1-4.19-3.18Z" style="fill:#FFB000"></path><ellipse cx="624.83" cy="165.82" rx="7.28" ry="6.9" style="fill:#e0e0e0"></ellipse><path d="M684.85,107.91h.29a5.73,5.73,0,0,1,.84.09,6,6,0,0,1,3,1.44,6.2,6.2,0,0,1,2,4.87c0,2.14,0,4.62,0,7.4,0,11.15,0,27.32.08,47.45,0,10.07,0,21.13,0,33.05q0,8.94,0,18.5c0,3.18,0,6.42,0,9.7v7.46a7,7,0,0,1-.31,2.56,5.92,5.92,0,0,1-3.58,3.67,6.86,6.86,0,0,1-2.61.37H603.74l.21-.1c-3.15,4.17-6.54,8.66-10,13.2l-.2.27-.21-.27-8.84-11.34-1.44-1.86.21.1h-3.28a8.56,8.56,0,0,1-3.31-.37A6,6,0,0,1,573,239c0-4.36,0-8.63,0-12.89V200.94c0-16.49,0-32.39,0-47.54q0-11.35,0-22.12,0-5.39,0-10.6V115.5a17.28,17.28,0,0,1,.1-2.58,6.17,6.17,0,0,1,1-2.42,6.3,6.3,0,0,1,4.24-2.71,19.24,19.24,0,0,1,2.5-.09h12l18,0,54.17.08,14.72,0,3.83,0c.86,0,1.3,0,1.3,0l-1.3,0-3.83,0L665,108l-54.17.09h-30a19.41,19.41,0,0,0-2.43.08,5.83,5.83,0,0,0-4.85,4.79,16,16,0,0,0-.09,2.51v5.18q0,5.22,0,10.6,0,10.75,0,22.12c0,15.15,0,31,0,47.54q0,12.38,0,25.17c0,4.25,0,8.57,0,12.85a5.46,5.46,0,0,0,3.55,4.68,8.1,8.1,0,0,0,3.13.33h3.4l.08.1,1.44,1.85L594,257.27h-.41l9.94-13.19.08-.11h81a6.25,6.25,0,0,0,2.45-.34,5.45,5.45,0,0,0,3.3-3.38,6.25,6.25,0,0,0,.29-2.41c0-.84,0-1.67,0-2.51v-5c0-3.28,0-6.52,0-9.7q0-9.56,0-18.5c0-11.92,0-23,0-33.05,0-20.13.06-36.3.08-47.45,0-2.78,0-5.26,0-7.4A6.08,6.08,0,0,0,686,108C685.24,107.9,684.85,107.94,684.85,107.91Z" style="fill:#263238"></path></g><g id="freepik--Screen--inject-179"><path d="M190.82,55.53h356a.27.27,0,0,1,.27.27V342.13a12,12,0,0,1-12,12H202.56a12,12,0,0,1-12-12V55.81a.27.27,0,0,1,.27-.27Z" style="fill:#fff"></path><path d="M197.58,55.53H536.3A10.75,10.75,0,0,1,547,66.28V84.61a0,0,0,0,1,0,0H190.55a0,0,0,0,1,0,0v-22A7,7,0,0,1,197.58,55.53Z" style="fill:#e0e0e0"></path><path d="M208.91,69.71a3.38,3.38,0,1,1-3.38-3.37A3.38,3.38,0,0,1,208.91,69.71Z" style="fill:#fff"></path><path d="M219.16,69.71a3.38,3.38,0,1,1-3.38-3.37A3.38,3.38,0,0,1,219.16,69.71Z" style="fill:#fff"></path><path d="M229.42,69.71A3.38,3.38,0,1,1,226,66.34,3.38,3.38,0,0,1,229.42,69.71Z" style="fill:#fff"></path><path d="M284.43,236.55H224.31a4.55,4.55,0,0,1-4.55-4.55h0a4.55,4.55,0,0,1,4.55-4.55h60.12A4.55,4.55,0,0,1,289,232h0A4.55,4.55,0,0,1,284.43,236.55Z" style="fill:#e0e0e0"></path><path d="M284.43,257.67H224.31a4.55,4.55,0,0,1-4.55-4.54h0a4.55,4.55,0,0,1,4.55-4.55h60.12a4.55,4.55,0,0,1,4.54,4.55h0A4.54,4.54,0,0,1,284.43,257.67Z" style="fill:#e0e0e0"></path><path d="M284.43,278.8H224.31a4.55,4.55,0,0,1-4.55-4.54h0a4.55,4.55,0,0,1,4.55-4.55h60.12a4.54,4.54,0,0,1,4.54,4.55h0A4.54,4.54,0,0,1,284.43,278.8Z" style="fill:#e0e0e0"></path><rect x="219.76" y="290.84" width="30.26" height="9.1" rx="4.55" style="fill:#e0e0e0"></rect><path d="M324.88,330.54c-.14,0-.26-54.72-.26-122.21s.12-122.21.26-122.21.26,54.71.26,122.21S325,330.54,324.88,330.54Z" style="fill:#263238"></path><path d="M374.1,121.12H352.94a4.55,4.55,0,0,1-4.55-4.55h0a4.55,4.55,0,0,1,4.55-4.55H374.1a4.55,4.55,0,0,1,4.55,4.55h0A4.55,4.55,0,0,1,374.1,121.12Z" style="fill:#e0e0e0"></path><path d="M371.88,188.36H350.73a4.55,4.55,0,0,1-4.55-4.55h0a4.55,4.55,0,0,1,4.55-4.55h21.15a4.55,4.55,0,0,1,4.55,4.55h0A4.55,4.55,0,0,1,371.88,188.36Z" style="fill:#e0e0e0"></path><path d="M326.3,158.62c0-.15,48.86-.27,109.11-.27s109.12.12,109.12.27-48.85.26-109.12.26S326.3,158.76,326.3,158.62Z" style="fill:#263238"></path><rect x="348.39" y="204.43" width="78.69" height="59.14" rx="4.59" style="fill:#FFB000"></rect><g style="opacity:0.30000000000000004"><polygon points="351.78 263.58 375.88 226.81 392.9 249.81 404.45 237.52 423.7 263.18 351.78 263.58"></polygon></g><g style="opacity:0.30000000000000004"><path d="M400,221.26A6.2,6.2,0,1,1,395,216.2,6.2,6.2,0,0,1,400,221.26Z"></path></g><rect x="443.83" y="204.43" width="78.69" height="59.14" rx="4.59" style="fill:#455a64"></rect><g style="opacity:0.30000000000000004"><polygon points="447.22 263.58 471.31 226.81 488.34 249.81 499.88 237.52 519.14 263.18 447.22 263.58"></polygon></g><g style="opacity:0.30000000000000004"><path d="M495.48,221.26a6.2,6.2,0,1,1-5.06-5.06A6.21,6.21,0,0,1,495.48,221.26Z"></path></g><rect x="348.4" y="279.46" width="78.69" height="59.14" rx="4.59" style="fill:#455a64"></rect><g style="opacity:0.30000000000000004"><polygon points="351.78 338.6 375.88 301.84 392.9 324.84 404.45 312.55 423.7 338.2 351.78 338.6"></polygon></g><g style="opacity:0.30000000000000004"><path d="M400.05,296.29a6.2,6.2,0,1,1-5.06-5.06A6.21,6.21,0,0,1,400.05,296.29Z"></path></g><path d="M517.2,179.71a7.49,7.49,0,0,1,1.82-.79l.37-1.79,3-.06.44,1.78a7.59,7.59,0,0,1,1.84.73l1.53-1,2.18,2.11-.95,1.57a7.26,7.26,0,0,1,.79,1.81l1.8.37.05,3-1.78.43a7.28,7.28,0,0,1-.73,1.84l1,1.53-2.11,2.19-1.56-1a7.46,7.46,0,0,1-1.82.78l-.37,1.8-3,0-.44-1.78a7.4,7.4,0,0,1-1.84-.72l-1.53,1-2.18-2.1.95-1.57a7.26,7.26,0,0,1-.79-1.81l-1.8-.38-.05-3,1.78-.44a8,8,0,0,1,.72-1.84l-1-1.53,2.11-2.18,1.56,1Zm2.06,4.66a2.51,2.51,0,1,0,3.54-.06A2.5,2.5,0,0,0,519.26,184.37Z" style="fill:#e0e0e0"></path><path d="M515.25,142.14h0A18.16,18.16,0,0,1,497.1,124h0a18.16,18.16,0,0,1,18.15-18.15h0A18.15,18.15,0,0,1,533.4,124h0A18.15,18.15,0,0,1,515.25,142.14Z" style="fill:#FFB000"></path><path d="M507,129.7a10.61,10.61,0,0,0,16.31-9.42,7.54,7.54,0,0,0,1.86-1.92,7.7,7.7,0,0,1-2.14.58,3.74,3.74,0,0,0,1.64-2.06,7.23,7.23,0,0,1-2.37.9,3.73,3.73,0,0,0-6.35,3.4,10.52,10.52,0,0,1-7.68-3.89,3.73,3.73,0,0,0,1.15,5,3.72,3.72,0,0,1-1.69-.47,3.73,3.73,0,0,0,3,3.7,3.78,3.78,0,0,1-1.68.07,3.72,3.72,0,0,0,3.48,2.58A7.51,7.51,0,0,1,507,129.7Z" style="fill:#fff"></path><path d="M412,141.63h0a17.9,17.9,0,0,1-17.89-17.9h0A17.89,17.89,0,0,1,412,105.84h0a17.89,17.89,0,0,1,17.89,17.89h0A17.9,17.9,0,0,1,412,141.63Z" style="fill:#FFB000"></path><path d="M412,115.69c2.62,0,2.93,0,4,.06a5.44,5.44,0,0,1,1.82.33,3.08,3.08,0,0,1,1.13.74,3,3,0,0,1,.74,1.13,5.44,5.44,0,0,1,.33,1.82c.05,1,.06,1.34.06,4s0,2.93-.06,4a5.56,5.56,0,0,1-.33,1.82,3.25,3.25,0,0,1-1.87,1.86,5.36,5.36,0,0,1-1.82.34c-1,.05-1.34.06-4,.06s-2.93,0-4-.06a5.48,5.48,0,0,1-1.82-.34,3.2,3.2,0,0,1-1.86-1.86,5.76,5.76,0,0,1-.34-1.82c0-1-.05-1.35-.05-4s0-2.93.05-4a5.63,5.63,0,0,1,.34-1.82,3.06,3.06,0,0,1,.73-1.13,3.17,3.17,0,0,1,1.13-.74,5.56,5.56,0,0,1,1.82-.33c1,0,1.35-.06,4-.06m0-1.77c-2.67,0-3,0-4,.06a7.36,7.36,0,0,0-2.38.46,5,5,0,0,0-2.87,2.87,7,7,0,0,0-.45,2.38c0,1-.06,1.38-.06,4s0,3,.06,4a7.13,7.13,0,0,0,.45,2.38A5,5,0,0,0,405.6,133a7.13,7.13,0,0,0,2.38.45c1,.05,1.38.06,4,.06s3,0,4-.06a7,7,0,0,0,2.38-.45,5,5,0,0,0,2.87-2.87,7.11,7.11,0,0,0,.46-2.38c.05-1,.06-1.38.06-4s0-3-.06-4a7,7,0,0,0-.46-2.38,5,5,0,0,0-2.87-2.87,7.25,7.25,0,0,0-2.38-.46c-1,0-1.38-.06-4-.06" style="fill:#fff"></path><path d="M412,118.7a5,5,0,1,0,5,5,5,5,0,0,0-5-5m0,8.3a3.27,3.27,0,1,1,3.27-3.27A3.26,3.26,0,0,1,412,127" style="fill:#fff"></path><path d="M418.44,118.5a1.18,1.18,0,0,1-2.35,0,1.18,1.18,0,1,1,2.35,0" style="fill:#fff"></path><path d="M464,142.14h0A18.15,18.15,0,0,1,445.86,124h0A18.15,18.15,0,0,1,464,105.84h0A18.15,18.15,0,0,1,482.15,124h0A18.15,18.15,0,0,1,464,142.14Z" style="fill:#FFB000"></path><path d="M461.24,135h4.42V123.9h3.08l.33-3.71h-3.41v-2.11c0-.87.17-1.22,1-1.22h2.39V113H466c-3.29,0-4.77,1.45-4.77,4.22v3h-2.3v3.75h2.3Z" style="fill:#fff"></path><path d="M536.18,354.14l.83-.05a11.82,11.82,0,0,0,2.44-.48,11,11,0,0,0,3.57-1.95,10.91,10.91,0,0,0,3.26-4.55,10.26,10.26,0,0,0,.68-3.31c0-1.19,0-2.46,0-3.79q0-4,0-8.7c0-6.29,0-13.55,0-21.72,0-32.68-.05-80-.08-138.39,0-29.22,0-61.22,0-95.57V69.16c0-2.17.16-4.36-.65-6.37A9.9,9.9,0,0,0,544.65,60a10.41,10.41,0,0,0-2.31-2.23,10.63,10.63,0,0,0-6.08-2H452.78l-251.34,0A10.59,10.59,0,0,0,190.83,66q0,8.3,0,16.55,0,16.51,0,32.8v64.13c0,42.05,0,82.6,0,121.23q0,14.49,0,28.61v14a10.67,10.67,0,0,0,7.56,10.13c2.14.67,4.45.4,6.72.46h46.41l95.58,0,138.38.08,37.63,0,9.78,0,3.34,0-3.34,0-9.78,0-37.63,0-138.38.09-95.58,0H201.65a12.27,12.27,0,0,1-3.45-.47,11.12,11.12,0,0,1-7.88-10.57q0-7,0-14V300.7c0-38.63,0-79.18,0-121.23V82.54q0-8.25,0-16.57a11.14,11.14,0,0,1,11.13-10.7l251.34,0,56.44,0h27a11,11,0,0,1,6.33,2.06,10.41,10.41,0,0,1,2.4,2.33,10.05,10.05,0,0,1,1.59,2.93,10.61,10.61,0,0,1,.65,3.25c0,1.11,0,2.18,0,3.27v6.47c0,34.35,0,66.35,0,95.57,0,58.42-.07,105.71-.09,138.39,0,8.17,0,15.43,0,21.72,0,3.14,0,6,0,8.7,0,1.33,0,2.59,0,3.8a10.19,10.19,0,0,1-.71,3.34,10.88,10.88,0,0,1-6.9,6.51,11,11,0,0,1-2.45.45Z" style="fill:#263238"></path></g><g id="freepik--tab-2--inject-179"><rect x="446.65" y="281.04" width="97.8" height="109.27" rx="6.4" style="fill:#fff"></rect><path d="M538,390.3s.36,0,1-.12a6.38,6.38,0,0,0,5.2-5.31,28.88,28.88,0,0,0,.07-3.14c0-1.14,0-2.34,0-3.61,0-10.22-.06-25-.1-43.2,0-9.12,0-19.11,0-29.83,0-5.36,0-10.91,0-16.62a11,11,0,0,0-.11-2.09,6.08,6.08,0,0,0-.69-1.94,6.16,6.16,0,0,0-3.09-2.69c-1.3-.57-2.78-.39-4.28-.42h-4.49l-78.45,0a6.08,6.08,0,0,0-4.42,1.89,6.2,6.2,0,0,0-1.67,4.5c0,3.43,0,6.85,0,10.24v20c0,13.13,0,25.78,0,37.84q0,9,0,17.62,0,4.29,0,8.44a11.69,11.69,0,0,0,.34,4,6.14,6.14,0,0,0,2.3,3.05c2.14,1.6,5,1,7.52,1.1h7.61l14.32,0,43.19.1,11.75.06,3,0,1,0s-.35,0-1,0l-3,0-11.75.06-43.19.1-14.32,0H453.16a6.67,6.67,0,0,1-6.41-4.48,6.58,6.58,0,0,1-.37-2.1c0-.69,0-1.38,0-2.08v-8.44q0-8.56,0-17.62c0-12.06,0-24.71,0-37.84V287.75a6.86,6.86,0,0,1,1.85-4.94,6.69,6.69,0,0,1,4.88-2.09l78.45,0h6.73a6.24,6.24,0,0,1,2.25.46,6.63,6.63,0,0,1,4.13,5.06,11.69,11.69,0,0,1,.11,2.19c0,5.71,0,11.26,0,16.62,0,10.72,0,20.71,0,29.83,0,18.23-.08,33-.1,43.2,0,1.27,0,2.47,0,3.61a29.31,29.31,0,0,1-.1,3.17,6.44,6.44,0,0,1-2.56,4.18,6.1,6.1,0,0,1-2.82,1.16A3.9,3.9,0,0,1,538,390.3Z" style="fill:#263238"></path><path d="M458.06,291.68a3.12,3.12,0,1,1-3.12-3.12A3.13,3.13,0,0,1,458.06,291.68Z" style="fill:#e0e0e0"></path><path d="M466.57,291.68a3.12,3.12,0,1,1-3.12-3.12A3.12,3.12,0,0,1,466.57,291.68Z" style="fill:#e0e0e0"></path><path d="M475.08,291.68a3.12,3.12,0,1,1-3.12-3.12A3.12,3.12,0,0,1,475.08,291.68Z" style="fill:#e0e0e0"></path><rect x="456.12" y="301.52" width="78.86" height="56.09" rx="4.46" style="fill:#FFB000"></rect><path d="M472.79,380.88h-11a2.91,2.91,0,0,1-2.92-2.92h0a2.92,2.92,0,0,1,2.92-2.92h11a2.92,2.92,0,0,1,2.92,2.92h0A2.92,2.92,0,0,1,472.79,380.88Z" style="fill:#e0e0e0"></path><path d="M516.71,371.2h-55.8a2.92,2.92,0,0,1-2.92-2.92h0a2.92,2.92,0,0,1,2.92-2.92h55.8a2.92,2.92,0,0,1,2.92,2.92h0A2.92,2.92,0,0,1,516.71,371.2Z" style="fill:#e0e0e0"></path><g style="opacity:0.2"><path d="M460.33,357.53l21-29.95a3,3,0,0,1,4.77-.16l12,14.89a3,3,0,0,0,4.4.28l6.49-6.24a3,3,0,0,1,4.35.23L531,357.53Z"></path></g><g style="opacity:0.2"><path d="M506.72,319.66A6.7,6.7,0,1,1,500,313,6.7,6.7,0,0,1,506.72,319.66Z"></path></g></g><g id="freepik--tab-1--inject-179"><rect x="55.28" y="376.43" width="134.23" height="55.22" rx="11.65" style="fill:#fff"></rect><path d="M177.86,431.65a15.1,15.1,0,0,0,3.56-.63,11.56,11.56,0,0,0,7.22-7,10.71,10.71,0,0,0,.7-3.47c.06-1.24,0-2.58,0-3.95,0-2.77,0-5.77,0-9s0-6.68,0-10.33c0-1.83,0-3.71,0-5.64a36.38,36.38,0,0,0-.24-5.89,11.51,11.51,0,0,0-8.1-8.69c-2.08-.63-4.36-.39-6.67-.43h-7l-30.48,0-69.84,0a11.37,11.37,0,0,0-11.36,11.39v17.82c0,2.92,0,5.82,0,8.68v4.28A13.72,13.72,0,0,0,56,423a11.45,11.45,0,0,0,4.66,6.45,11.28,11.28,0,0,0,3.65,1.58,16.35,16.35,0,0,0,4,.32l57,.06,38.46.1,10.45.06,2.72,0,.93,0-.93,0-2.72,0-10.45.06-38.46.1-57,.06a16.26,16.26,0,0,1-4.09-.33A11.53,11.53,0,0,1,60.34,430a12,12,0,0,1-4.91-6.77A14.12,14.12,0,0,1,55,418.9v-13c0-5.84,0-11.79,0-17.82a12,12,0,0,1,12-12l69.84,0,30.48,0h10.45a12.71,12.71,0,0,1,3.38.47,12,12,0,0,1,8.4,9.06,15.65,15.65,0,0,1,.23,3c0,1,0,2,0,2.94,0,1.93,0,3.81,0,5.64,0,3.65,0,7.1,0,10.33s0,6.22,0,9c0,1.38,0,2.69,0,4a10.77,10.77,0,0,1-.75,3.53,11.77,11.77,0,0,1-3.51,4.89,11.42,11.42,0,0,1-3.89,2.11,11.55,11.55,0,0,1-2.68.49Z" style="fill:#263238"></path><path d="M166.29,407.65H104.82a4.13,4.13,0,0,1-4.13-4.13h0a4.12,4.12,0,0,1,4.13-4.12h61.47a4.11,4.11,0,0,1,4.12,4.12h0A4.12,4.12,0,0,1,166.29,407.65Z" style="fill:#e0e0e0"></path><rect x="74.05" y="394.48" width="19.12" height="19.12" rx="5.14" style="fill:#FFB000"></rect><polygon points="77.01 404.31 78.94 402.39 82.65 405.69 88.86 399.46 90.64 401.39 82.38 409.4 77.01 404.31" style="fill:#fff"></polygon></g><g id="freepik--speech-bubble--inject-179"><path d="M68.46,176.91a30.49,30.49,0,1,0-33.12-27.62A30.5,30.5,0,0,0,68.46,176.91Z" style="fill:#fff"></path><path d="M90.62,176.69a9.11,9.11,0,0,1,.2-.89,3.92,3.92,0,0,1,1.41-2,3.78,3.78,0,0,1,1.51-.71,3.38,3.38,0,0,1,1.9.16,3.66,3.66,0,0,1,.21,6.85,3.38,3.38,0,0,1-1.88.28,4,4,0,0,1-1.56-.61,4,4,0,0,1-1.53-1.89c-.21-.55-.22-.89-.25-.88a.73.73,0,0,0,0,.24,2,2,0,0,0,.05.29,2.81,2.81,0,0,0,.1.39,4.11,4.11,0,0,0,3.15,2.69,3.55,3.55,0,0,0,2-.27,4.18,4.18,0,0,0,1.73-1.44,3.84,3.84,0,0,0,.72-2.31,3.88,3.88,0,0,0-.87-2.25A4.11,4.11,0,0,0,95.73,173a3.51,3.51,0,0,0-2-.15,4,4,0,0,0-1.59.78,4,4,0,0,0-1.39,2.11,3.39,3.39,0,0,0-.08.39,1.57,1.57,0,0,0,0,.29A.87.87,0,0,0,90.62,176.69Z" style="fill:#263238"></path><path d="M70.86,176.87l-.5,0-1.45.16-1.07.12c-.4,0-.83,0-1.3,0l-1.52,0a4.68,4.68,0,0,1-.83,0l-.89-.08a29.41,29.41,0,0,1-8.61-2,30.84,30.84,0,0,1-9.87-6.22l-1.19-1.14c-.38-.41-.74-.84-1.11-1.27-.19-.22-.38-.43-.56-.65a6,6,0,0,1-.54-.68l-1-1.44c-.17-.24-.35-.48-.52-.73l-.44-.79-.91-1.59c-.29-.54-.51-1.12-.78-1.69l-.38-.87a3.43,3.43,0,0,1-.19-.44l-.15-.45a28.32,28.32,0,0,1-1.09-3.74c-.13-.64-.31-1.29-.41-1.95l-.24-2c0-.33-.09-.67-.1-1s0-.69,0-1c0-.69,0-1.38,0-2.08a32.11,32.11,0,0,1,.49-4.22c.07-.35.13-.71.2-1.06,0-.18.06-.36.1-.54l.15-.52c.2-.7.41-1.4.61-2.11s.54-1.37.8-2.07c.15-.34.26-.7.43-1l.52-1a33.78,33.78,0,0,1,2.32-3.91c.48-.6.95-1.21,1.43-1.82l.36-.46.4-.42.81-.85.81-.85.89-.78.89-.77.45-.39.48-.35,2-1.38,2.09-1.2a32.56,32.56,0,0,1,9.25-3.17,32.67,32.67,0,0,1,9.77-.06l2.38.44,2.3.66.57.17.55.22,1.1.44,1.1.44,1,.53,1,.54.52.26.49.32,2,1.24a35.35,35.35,0,0,1,3.49,2.93l.81.78c.27.25.5.55.75.83.48.57,1,1.11,1.44,1.69s.85,1.19,1.27,1.78l.31.45c.1.15.19.31.28.47.18.31.36.62.53.94a32.1,32.1,0,0,1,1.87,3.82c.25.65.44,1.32.67,2,.11.33.22.66.32,1s.16.67.24,1c.15.66.3,1.32.44,2s.17,1.32.26,2a28.26,28.26,0,0,1,.2,3.88v.48c0,.16,0,.32,0,.48s0,.63-.08.94c-.06.63-.08,1.25-.18,1.86s-.22,1.21-.33,1.8c-.05.3-.11.6-.16.89l-.24.86c-.17.57-.33,1.14-.49,1.69a5.29,5.29,0,0,1-.29.82c-.1.27-.21.54-.31.8-.21.53-.41,1.06-.63,1.57s-.51,1-.75,1.47a30.4,30.4,0,0,1-7.27,9.12l-1,.84-1,.71-1,.69-.47.32-.48.28-1.85,1.06c-.59.32-1.19.56-1.74.82l-.81.36a6.32,6.32,0,0,1-.78.31l-1.44.48c-.44.15-.85.3-1.23.41l-1,.23-1.42.34c-.32.07-.48.12-.48.12l.48-.1,1.44-.3,1-.23c.38-.1.79-.25,1.24-.39l1.44-.47a5.1,5.1,0,0,0,.79-.3l.81-.36c.55-.26,1.16-.49,1.76-.81l1.86-1,.49-.28c.16-.1.31-.22.47-.33l1-.68,1-.71c.33-.27.64-.55,1-.84A30.61,30.61,0,0,0,93,160.87l.76-1.48c.22-.51.42-1,.63-1.57l.32-.8a7.42,7.42,0,0,0,.3-.83c.16-.56.32-1.13.49-1.7.08-.29.17-.58.25-.87s.11-.59.16-.89c.11-.6.23-1.21.34-1.82s.12-1.24.18-1.87c0-.32,0-.63.08-.95,0-.16,0-.32,0-.48v-.48a28.84,28.84,0,0,0-.2-3.92c-.09-.66-.13-1.33-.25-2l-.45-2c-.08-.34-.13-.68-.23-1l-.33-1c-.22-.65-.42-1.33-.68-2a31.72,31.72,0,0,0-1.87-3.85l-.54-.95-.27-.47-.32-.45-1.28-1.81c-.46-.58-1-1.13-1.45-1.7-.25-.28-.48-.58-.75-.84l-.83-.79a34.65,34.65,0,0,0-3.51-3l-2-1.26-.49-.32-.52-.27-1-.54-1.06-.54-1.1-.44-1.11-.44-.56-.23-.58-.17-2.32-.67-2.39-.44a33,33,0,0,0-9.87.06,32.82,32.82,0,0,0-9.33,3.2l-2.12,1.21-2,1.4c-.16.12-.33.23-.48.35l-.46.39-.9.79-.9.78-.81.86-.82.85c-.13.15-.27.28-.4.43l-.36.46-1.44,1.84a33.86,33.86,0,0,0-2.34,3.95l-.52,1a10.36,10.36,0,0,0-.43,1c-.27.7-.57,1.39-.81,2.09s-.41,1.42-.61,2.12l-.16.53c0,.18-.06.36-.1.54l-.2,1.07a32.9,32.9,0,0,0-.49,4.26c0,.7,0,1.41,0,2.1,0,.35,0,.7,0,1s.07.69.1,1c.08.68.17,1.36.25,2s.28,1.31.41,2a28.66,28.66,0,0,0,1.11,3.76l.15.46c.06.15.13.29.19.44l.39.87c.27.57.5,1.16.79,1.71l.92,1.6.45.79.52.74c.34.48.69,1,1,1.44a6.27,6.27,0,0,0,.55.68l.57.66c.38.42.74.86,1.12,1.27l1.21,1.15a30.68,30.68,0,0,0,10,6.22,29.17,29.17,0,0,0,8.66,1.94l.88.07a4.79,4.79,0,0,0,.84,0l1.52,0c.47,0,.91,0,1.3,0l1.07-.13,1.45-.19Z" style="fill:#263238"></path><path d="M58.25,140h4a3.38,3.38,0,0,1,3.47-3.4,3.22,3.22,0,0,1,3.13,2.05,3.55,3.55,0,0,1-.29,3.23c-.67,1.12-2.15,2.13-4.84,1.66v9h3.94v-5.27a7.7,7.7,0,0,0,5.53-7.52c0-5.83-5.23-7.18-7.47-7.18C64,132.56,58.17,133,58.25,140Z" style="fill:#FFB000"></path><rect x="63.7" y="154.38" width="4" height="3.74" style="fill:#FFB000"></rect></g><g id="freepik--Like--inject-179"><path d="M264.71,414h0s0,1.14.07,3.16a13.72,13.72,0,0,1,4.73-2.83h0s9.54-6,13.87-13.5a40.66,40.66,0,0,0,4.2-12.12c0-.33,0-3.23,0-5.61a3.65,3.65,0,0,1,3.52-3.6c4.1-.16,15,.2,15.81,7.76,1.18,11.3-7.18,21.29-7.86,24.54-.13.61-.23,1.11-.31,1.51,3.22,0,5.71,0,5.71.08h0l21.2-.1s7.11-.49,7.83,6.85S326,428,326,428s3.67.67,3.24,7.1-7.53,6.92-7.53,6.92,4.13.67,3.93,6.4c-.2,5.58-7.58,7.29-8,7.38a12.87,12.87,0,0,1,1.67.06,8.28,8.28,0,0,1-1.3.07c3,1.11,2.61,4.9,2.61,4.9.27,8-5.92,8.29-5.92,8.29l-38.7.19a21.76,21.76,0,0,1-11-2.93c0,1.64,0,2.57,0,2.57h0l-27,.13c-.06,0-.17-12.29-.24-27.46s-.09-27.46,0-27.46Z" style="fill:#FFB000"></path><g style="opacity:0.30000000000000004"><path d="M264.71,414h0s0,1.14.07,3.16a13.72,13.72,0,0,1,4.73-2.83h0s9.54-6,13.87-13.5a40.66,40.66,0,0,0,4.2-12.12c0-.33,0-3.23,0-5.61a3.65,3.65,0,0,1,3.52-3.6c4.1-.16,15,.2,15.81,7.76,1.18,11.3-7.18,21.29-7.86,24.54-.13.61-.23,1.11-.31,1.51,3.22,0,5.71,0,5.71.08h0l21.2-.1s7.11-.49,7.83,6.85S326,428,326,428s3.67.67,3.24,7.1-7.53,6.92-7.53,6.92,4.13.67,3.93,6.4c-.2,5.58-7.58,7.29-8,7.38a12.87,12.87,0,0,1,1.67.06,8.28,8.28,0,0,1-1.3.07c3,1.11,2.61,4.9,2.61,4.9.27,8-5.92,8.29-5.92,8.29l-38.7.19a21.76,21.76,0,0,1-11-2.93c0,1.64,0,2.57,0,2.57h0l-27,.13c-.06,0-.17-12.29-.24-27.46s-.09-27.46,0-27.46Z"></path></g><path d="M268,422.46l-1.26,3.23.18,37h0a21.7,21.7,0,0,0,15.84,6.75l38.7-.19s6.19-.26,5.92-8.29c0,0,.44-4.13-3-5,0,0,7.79-1.64,8-7.38s-3.93-6.4-3.93-6.4,7.11-.5,7.54-6.92-3.25-7.1-3.25-7.1,8.26-.5,7.53-7.83-7.83-6.85-7.83-6.85l-27.53.13-24.13.12A13.79,13.79,0,0,0,268,422.46Z" style="fill:#FFB000"></path><path d="M276.25,414.49s9.54-5.95,13.88-13.5a40.81,40.81,0,0,0,4.19-12.12c0-.33,0-3.24,0-5.61a3.65,3.65,0,0,1,3.52-3.6c4.1-.16,10.63,3.35,11.42,10.92,1.19,11.29-2.79,18.13-3.47,21.38l-.67,3.25Z" style="fill:#FFB000"></path><rect x="244.57" y="414.22" width="27.03" height="54.92" transform="translate(-2.15 1.26) rotate(-0.28)" style="fill:#FFB000"></rect><path d="M271.74,469.08c.06,0,.05-12.3,0-27.46s-.18-27.46-.24-27.46,0,12.29,0,27.46S271.68,469.08,271.74,469.08Z" style="fill:#263238"></path><path d="M244.71,469.21c.06,0,0-12.3,0-27.46s-.18-27.46-.24-27.46-.05,12.29,0,27.46S244.65,469.21,244.71,469.21Z" style="fill:#263238"></path><path d="M262,426.78a5.06,5.06,0,1,1-5.08-5A5.06,5.06,0,0,1,262,426.78Z" style="fill:#fff"></path><path d="M311.24,413.55c0-.06-2.95-.09-6.59-.07s-6.58.08-6.58.14,2.95.09,6.58.07S311.24,413.61,311.24,413.55Z" style="fill:#263238"></path><path d="M329,442.41a41,41,0,0,0-4.21-.09,40.39,40.39,0,0,0-4.21.13c0,.05,1.89.09,4.21.08S329,442.46,329,442.41Z" style="fill:#263238"></path><path d="M333.26,428c0-.06-2.67-.1-6-.08s-6,.08-6,.14,2.67.09,6,.07S333.26,428.06,333.26,428Z" style="fill:#263238"></path><path d="M326.07,456c0-.06-2.68-.09-6-.07s-6,.07-6,.13,2.67.09,6,.08S326.07,456.05,326.07,456Z" style="fill:#263238"></path><g style="opacity:0.30000000000000004"><path d="M297.51,382.29a3.12,3.12,0,0,0-1.28,2.93,19.72,19.72,0,0,0,.72,3.27,11.34,11.34,0,0,1-.75,7.26c-.32.69-.71,1.48-.38,2.16.47,1,1.9.81,2.87.36a10.74,10.74,0,0,0,6.1-9.76,7.62,7.62,0,0,0-1.64-4.77,4.48,4.48,0,0,0-5.64-1.45" style="fill:#fff"></path></g><g style="opacity:0.30000000000000004"><path d="M334.63,414.91a6.52,6.52,0,0,0-2.78-.34l-16.41.4c-1.79,0-5.05-.3-5.48,1.42h0a2.11,2.11,0,0,0,.76,2.69,5.6,5.6,0,0,0,2.94.78c2.15.15,4.31.13,6.46.11a81.2,81.2,0,0,0,12.95-.84,5.93,5.93,0,0,0,1.84-.55,2.14,2.14,0,0,0,1.14-1.47A2.21,2.21,0,0,0,334.63,414.91Z" style="fill:#fff"></path></g><path d="M265.11,415.75c0-.06-3.78-.09-8.44-.07s-8.44.09-8.44.15,3.78.08,8.44.06S265.11,415.8,265.11,415.75Z" style="fill:#fff"></path><path d="M333,437.46s.07-.09.17-.28a4.56,4.56,0,0,0,.33-.83,6.13,6.13,0,0,0,.25-1.3,7,7,0,0,0-.06-1.63,7.45,7.45,0,0,0-.44-1.57,6.61,6.61,0,0,0-.64-1.17A5.47,5.47,0,0,0,332,430c-.15-.14-.24-.22-.25-.21s.3.36.69,1a7.38,7.38,0,0,1,1,2.69,7.86,7.86,0,0,1,.08,1.58,8,8,0,0,1-.2,1.28C333.16,437,333,437.45,333,437.46Z" style="fill:#fff"></path><path d="M336.92,423.53s.3-.16.65-.58a4.08,4.08,0,0,0,.83-1.91,4.2,4.2,0,0,0-.19-2.08,2,2,0,0,0-.43-.75s.14.3.29.8a4.67,4.67,0,0,1,.12,2,4.55,4.55,0,0,1-.74,1.85C337.15,423.29,336.9,423.5,336.92,423.53Z" style="fill:#fff"></path><path d="M328.3,452.37a2.21,2.21,0,0,0,.84-.53,3.6,3.6,0,0,0,1.16-2.1,3.71,3.71,0,0,0-.42-2.36,2,2,0,0,0-.63-.76s.23.3.5.83a3.91,3.91,0,0,1,.34,2.26,3.8,3.8,0,0,1-1,2C328.62,452.16,328.28,452.33,328.3,452.37Z" style="fill:#fff"></path><path d="M322.86,465.43a2.12,2.12,0,0,0,.63-.62,4.72,4.72,0,0,0,.76-4.11,2.38,2.38,0,0,0-.37-.81,7.12,7.12,0,0,0,.22.84,5.38,5.38,0,0,1,0,2.07,5.22,5.22,0,0,1-.77,1.92C323.07,465.17,322.83,465.41,322.86,465.43Z" style="fill:#fff"></path><path d="M306.77,403a3.23,3.23,0,0,0,.29-.56,6.73,6.73,0,0,0,.3-.68c.1-.27.23-.57.34-.91a19.06,19.06,0,0,0,.66-2.46,22.22,22.22,0,0,0,.35-3.1,20.65,20.65,0,0,0-.15-3.12,17,17,0,0,0-.49-2.5c-.08-.35-.19-.66-.28-.94a5.82,5.82,0,0,0-.25-.69,3.33,3.33,0,0,0-.25-.58,3.67,3.67,0,0,0,.18.6c.06.2.14.43.21.71s.17.58.25.94a22.67,22.67,0,0,1,.44,2.48,20.74,20.74,0,0,1-.2,6.16,21.87,21.87,0,0,1-.61,2.45c-.1.35-.22.65-.31.92s-.19.5-.26.69A4.28,4.28,0,0,0,306.77,403Z" style="fill:#fff"></path></g><g id="freepik--character-3--inject-179"><path d="M588.46,360.88H695.38a7.16,7.16,0,0,1,7.16,7.16v94.75a6.34,6.34,0,0,1-6.34,6.34H587.64a6.34,6.34,0,0,1-6.34-6.34V368A7.16,7.16,0,0,1,588.46,360.88Z" style="fill:#fff"></path><path d="M589.55,360.88H694.29a8.25,8.25,0,0,1,8.25,8.25v13.56a2.87,2.87,0,0,1-2.87,2.87H584.17a2.87,2.87,0,0,1-2.87-2.87V369.13A8.25,8.25,0,0,1,589.55,360.88Z" style="fill:#e0e0e0"></path><path d="M601.16,374.51a4.42,4.42,0,1,1-4.42-4.5A4.47,4.47,0,0,1,601.16,374.51Z" style="fill:#fff"></path><path d="M614.72,374.51a4.42,4.42,0,1,1-4.42-4.5A4.47,4.47,0,0,1,614.72,374.51Z" style="fill:#fff"></path><path d="M628.27,374.51a4.42,4.42,0,1,1-4.41-4.5A4.46,4.46,0,0,1,628.27,374.51Z" style="fill:#fff"></path><rect x="603.72" y="397.54" width="76.39" height="58.99" rx="5.47" style="fill:#FFB000"></rect><path d="M633.36,426.46V417.4a2.91,2.91,0,0,1,4.36-2.52l7.85,4.53,7.84,4.53a2.9,2.9,0,0,1,0,5l-7.84,4.53L637.72,438a2.91,2.91,0,0,1-4.36-2.52Z" style="fill:#fff"></path><path d="M696.26,469.13s.39,0,1.14-.14a6.32,6.32,0,0,0,3-1.49,6.21,6.21,0,0,0,2.07-4.84q0-3.27,0-7.52c0-11.33-.07-27.7-.11-47.92,0-10.12,0-21.2,0-33.09v-4.5a20.63,20.63,0,0,0-.07-2.24,7.09,7.09,0,0,0-5.7-6.06,10.87,10.87,0,0,0-2.3-.13H674.62l-42,0H590.48a23.84,23.84,0,0,0-2.83.09,7.1,7.1,0,0,0-5.76,5.2,10,10,0,0,0-.23,2.76v11.35q0,11.28,0,22.21c0,14.55,0,28.6,0,42v9.91c0,1.63,0,3.25,0,4.85V462a8.59,8.59,0,0,0,.18,2.29,6,6,0,0,0,2.53,3.57,5.85,5.85,0,0,0,2,.85,11.09,11.09,0,0,0,2.25.12h9.07l33.09.05,47.92.11,13,.07,3.38,0,1.16,0s-.39,0-1.16,0l-3.38,0-13,.07-47.92.11-33.09.05h-9.07a12,12,0,0,1-2.37-.14,6.35,6.35,0,0,1-2.25-.93,6.56,6.56,0,0,1-2.8-3.94A9.27,9.27,0,0,1,581,462v-7.26c0-3.26,0-6.56,0-9.91,0-13.37,0-27.42,0-42V380.64q0-5.64,0-11.35a10.56,10.56,0,0,1,.26-2.94,7.77,7.77,0,0,1,6.35-5.73,22.48,22.48,0,0,1,2.93-.1h42.17l42,0,19.55,0a11.63,11.63,0,0,1,2.41.14,8,8,0,0,1,2.29.83,7.8,7.8,0,0,1,3.91,5.78,20.08,20.08,0,0,1,.06,2.31v4.5c0,11.89,0,23-.05,33.09,0,20.22-.08,36.59-.11,47.92q0,4.25,0,7.52a6.4,6.4,0,0,1-2.19,4.95,6.24,6.24,0,0,1-3.05,1.45,4.45,4.45,0,0,1-.86.07Z" style="fill:#263238"></path><path d="M681.19,197.27a8.09,8.09,0,0,0,2.14-6.61c-.45-2.35-2.73-4.39-5.1-4a5.87,5.87,0,0,0-9-6.26,3.11,3.11,0,0,0-2.06-3.05c-1.07-.47-5.05-.18-6.1,2.2L657.2,199a12.46,12.46,0,0,0,.89,17.64,6.16,6.16,0,0,0,7,9.11A5.83,5.83,0,1,0,675.93,222c2.84.82,5.88-1.57,6.58-4.44s-.4-5.91-2-8.38a6.51,6.51,0,0,0,.71-11.92Z" style="fill:#263238"></path><path d="M664.74,182.49c2.71.78,3.33,2.94,4,4.73,1.33,3.86.17,9.67-1.89,13.19s-4.4,5.35-8.42,6.07q-.51-9.28-1-18.55Z" style="fill:#FFB000"></path><path d="M666.61,193.1a6.44,6.44,0,0,0-.84-8.2c1.12-1.52.62-3.78-.62-5.2a12.64,12.64,0,0,0-4.78-2.94,8.67,8.67,0,0,0-10.3-6c-2.34-3.21-7.13-3.57-10.91-2.33a10.45,10.45,0,0,1-2.82.72,17.11,17.11,0,0,1-2.13-.23c-3.9-.39-7.67,2.47-9.06,6.14a6.94,6.94,0,0,1-.77,1.71,9.3,9.3,0,0,1-1.87,1.6,6.2,6.2,0,0,0-2.22,4.67c0,1.51.52,3.1-.07,4.49a21.41,21.41,0,0,0-1.08,2c-.65,2.1,1.72,4.14,1.37,6.31-.08.44-.26.86-.37,1.29a3.86,3.86,0,0,0,.32,2.67,5.45,5.45,0,0,1,.91,1.9,6.21,6.21,0,0,1-.26,1.58c-.22,1.29,2.72,6.16,3.85,6.82l33.2-.81a6.22,6.22,0,0,0,4.62-5.5,2.23,2.23,0,0,1,.26-1.23,2.79,2.79,0,0,1,.89-.62c2.1-1.22,2.26-4.16,2-6.57a2.86,2.86,0,0,1,0-1A3.71,3.71,0,0,1,666.61,193.1Z" style="fill:#263238"></path><path d="M657.1,193.46a17.74,17.74,0,0,0-9.93-15.17,21.94,21.94,0,0,0-8.55-1.77,13.45,13.45,0,0,0-7.77,1.9c-1.82.49-8.31,6.85-8.44,13.53-.14,7.41,0,16.46,1.1,21.94,2.25,11,10.81,12.05,10.81,12.05s-.18,18.43-.18,18.43L651,257.24l5.66-21.52Z" style="fill:#ae7461"></path><path d="M625.86,200.78a1.41,1.41,0,0,0,1.43,1.37,1.36,1.36,0,0,0,1.41-1.34,1.43,1.43,0,0,0-1.43-1.38A1.36,1.36,0,0,0,625.86,200.78Z" style="fill:#263238"></path><path d="M625.14,196.09c.19.18,1.23-.67,2.76-.73s2.69.65,2.84.46-.11-.42-.62-.75a3.94,3.94,0,0,0-2.28-.6,3.78,3.78,0,0,0-2.19.82C625.2,195.67,625.05,196,625.14,196.09Z" style="fill:#263238"></path><path d="M634.63,207.78a10,10,0,0,0-2.51-.34c-.39,0-.76-.08-.84-.35a2,2,0,0,1,.21-1.17l1-3c1.41-4.31,2.42-7.85,2.25-7.9s-1.47,3.39-2.88,7.7l-1,3a2.22,2.22,0,0,0-.13,1.54.93.93,0,0,0,.66.54,2.88,2.88,0,0,0,.67.07A10,10,0,0,0,634.63,207.78Z" style="fill:#263238"></path><path d="M634.32,225.94a28.38,28.38,0,0,0,14.73-4.62s-3.61,8-14.76,7.44Z" style="fill:#6f4439"></path><path d="M625.88,189.93c.27.36,1.43.06,2.81.11s2.52.36,2.81,0c.13-.17,0-.52-.53-.88a4.22,4.22,0,0,0-2.25-.69,4.13,4.13,0,0,0-2.28.59C625.94,189.4,625.76,189.75,625.88,189.93Z" style="fill:#263238"></path><path d="M642.79,200.93a1.43,1.43,0,0,1-1.36,1.45A1.37,1.37,0,0,1,640,201.1a1.42,1.42,0,0,1,1.37-1.44A1.35,1.35,0,0,1,642.79,200.93Z" style="fill:#263238"></path><path d="M646.11,195.77c-.18.18-1.26-.61-2.79-.59s-2.65.79-2.82.6.1-.42.58-.78a3.88,3.88,0,0,1,2.26-.71,3.73,3.73,0,0,1,2.22.7C646,195.35,646.19,195.68,646.11,195.77Z" style="fill:#263238"></path><path d="M645.91,189.77c-.3.35-1.48,0-2.9,0s-2.63.26-2.91-.11c-.12-.17.07-.52.59-.85a4.63,4.63,0,0,1,4.68.09C645.87,189.24,646,189.6,645.91,189.77Z" style="fill:#263238"></path><path d="M655.78,204.05c0-.82.84-2.81,1.65-3,2.16-.43,6.09-.43,6.37,5.1.39,7.56-7.28,6.38-7.31,6.17S655.9,206.9,655.78,204.05Z" style="fill:#ae7461"></path><path d="M658.44,209.47s.14.09.36.18a1.31,1.31,0,0,0,1,0,3.29,3.29,0,0,0,1.36-3,4.45,4.45,0,0,0-.47-1.87,1.51,1.51,0,0,0-1-1,.68.68,0,0,0-.76.4c-.09.22,0,.37-.07.38s-.17-.12-.12-.43a.81.81,0,0,1,.27-.49,1,1,0,0,1,.72-.23,1.86,1.86,0,0,1,1.43,1.1,4.51,4.51,0,0,1,.57,2.09c0,1.52-.68,3-1.76,3.36a1.44,1.44,0,0,1-1.21-.14C658.46,209.65,658.41,209.49,658.44,209.47Z" style="fill:#6f4439"></path><path d="M620.74,192.12A4.41,4.41,0,0,0,623,188c1,.25,2-1.09,2.55-2s1.26-1.37,1.17-2.43a1.26,1.26,0,0,1,0-.61,1.3,1.3,0,0,1,.81-.52,5.05,5.05,0,0,0,3.18-3.67,10.69,10.69,0,0,0,5.22.63,4.09,4.09,0,0,0,6.92-.6,3.68,3.68,0,0,0,2.53,1.71,11.08,11.08,0,0,0,3.15,0,4.34,4.34,0,0,0,3.06,4.79,1.09,1.09,0,0,1,.73.38,1.11,1.11,0,0,1-.08.85,3.41,3.41,0,0,0,2.47,4.25,2.55,2.55,0,0,0,.4,4c.28.15.65.33.62.66a.67.67,0,0,1-.15.32,5,5,0,0,0-1.08,2.55,1.83,1.83,0,0,0,1.58,2,2.47,2.47,0,0,0-.89,1.7c0,.66.72,1.3,1.32,1,.25-.11,4-1,4.14-1.24,2-3-.81-6.09-1.18-9.68A23.56,23.56,0,0,0,655.77,182a17.24,17.24,0,0,0-2.85-3.52,22.13,22.13,0,0,0-4.28-2.88,20.77,20.77,0,0,0-6.2-2.63c-4.12-.79-8.29.88-12,2.8a17.74,17.74,0,0,0-4,2.6,16.06,16.06,0,0,0-3.27,4.67,20.13,20.13,0,0,0-2.4,7.86" style="fill:#263238"></path><path d="M619.14,189.54a2.93,2.93,0,0,1,.37-.83c.15-.25.37-.56.56-.94a3.49,3.49,0,0,0,.37-1.43,11.37,11.37,0,0,0-.11-1.87,8.37,8.37,0,0,1,0-2.25,6.49,6.49,0,0,1,.89-2.42,6.19,6.19,0,0,1,.89-1.11,9,9,0,0,1,1.16-.94,4.72,4.72,0,0,0,1.1-1,6,6,0,0,0,.66-1.45,10.13,10.13,0,0,1,4.55-5.38,8.38,8.38,0,0,1,1.79-.76,8.18,8.18,0,0,1,2-.31,8.7,8.7,0,0,1,1,0l1,.14a4.91,4.91,0,0,0,2-.08c.67-.17,1.33-.44,2-.64a13.69,13.69,0,0,1,2.13-.47,13.53,13.53,0,0,1,2.21-.11A11.4,11.4,0,0,1,646,168a7.48,7.48,0,0,1,3.91,2.36l.29.36-.12-.05a8.5,8.5,0,0,1,6.57,1.05,8.38,8.38,0,0,1,3.86,5l-.06-.08a27,27,0,0,1,2.71,1.29,8.06,8.06,0,0,1,2.24,1.85,5.22,5.22,0,0,1,1.1,2.57,3.58,3.58,0,0,1-.62,2.58v-.12a6.24,6.24,0,0,1,1.9,3.81,6.34,6.34,0,0,1-.63,3.79,6.59,6.59,0,0,1-.47.77c-.17.23-.35.46-.49.69a1.62,1.62,0,0,0-.24.76,5.12,5.12,0,0,0,.06.78,12.05,12.05,0,0,1,0,2.87,6,6,0,0,1-.65,2.22,3.65,3.65,0,0,1-1.12,1.27c-.38.28-.72.39-.91.54s-.26.25-.27.24a.84.84,0,0,1,.25-.26c.19-.16.53-.29.89-.56a3.69,3.69,0,0,0,1.09-1.27,6.14,6.14,0,0,0,.62-2.19,12.49,12.49,0,0,0-.07-2.84,5.32,5.32,0,0,1-.06-.81,1.76,1.76,0,0,1,.26-.82,6.89,6.89,0,0,1,.49-.71,6,6,0,0,0,1-4.45A6,6,0,0,0,665.7,185l-.06-.06.05-.07a3.41,3.41,0,0,0,.57-2.45,4.92,4.92,0,0,0-1.06-2.46,7.68,7.68,0,0,0-2.19-1.79,22.77,22.77,0,0,0-2.68-1.27l-.05,0,0-.05a8.15,8.15,0,0,0-3.77-4.88,8.28,8.28,0,0,0-6.39-1l-.07,0,0-.06-.29-.35a7.31,7.31,0,0,0-3.79-2.28,11.56,11.56,0,0,0-2.19-.31,14.21,14.21,0,0,0-2.17.11,14.52,14.52,0,0,0-2.1.46c-.67.2-1.33.47-2,.64a5.21,5.21,0,0,1-1,.15,6.18,6.18,0,0,1-1.05-.07l-1-.14c-.34,0-.67-.05-1,0a7.69,7.69,0,0,0-1.92.3,8.76,8.76,0,0,0-1.75.74,9.45,9.45,0,0,0-2.79,2.32,9.59,9.59,0,0,0-1.69,2.94,6.3,6.3,0,0,1-.69,1.49,4.84,4.84,0,0,1-1.15,1.07,8.8,8.8,0,0,0-1.14.92,5.89,5.89,0,0,0-.87,1.08,6.06,6.06,0,0,0-.89,2.36,8.22,8.22,0,0,0,0,2.22,11.42,11.42,0,0,1,.1,1.89,3.44,3.44,0,0,1-.4,1.45,10.22,10.22,0,0,1-.58.94,4.13,4.13,0,0,0-.32.59C619.17,189.47,619.15,189.55,619.14,189.54Z" style="fill:#455a64"></path><path d="M646.45,169.27s-.2-.11-.58-.27a5.28,5.28,0,0,0-1.66-.42,4.81,4.81,0,0,0-4.65,2.61,3.74,3.74,0,0,0-.34.87,1,1,0,0,0,.09.8l.19.25-.31-.08a3.13,3.13,0,0,0-2.32.38,3,3,0,0,0-1.23,1.45,3.25,3.25,0,0,0-.24,1.26,4.17,4.17,0,0,1,0,.47.64.64,0,0,1,0-.12,1.91,1.91,0,0,1,0-.35,3.19,3.19,0,0,1,1.44-2.88,3.35,3.35,0,0,1,2.48-.42l-.11.17a1.14,1.14,0,0,1-.13-1,4,4,0,0,1,.36-.92,5.1,5.1,0,0,1,2.28-2.23,4.88,4.88,0,0,1,2.58-.44,4.8,4.8,0,0,1,1.69.5,2.46,2.46,0,0,1,.41.24C646.41,169.23,646.46,169.26,646.45,169.27Z" style="fill:#455a64"></path><path d="M659.08,177.44s-.07.12-.25.28a4.87,4.87,0,0,1-.83.63,3.54,3.54,0,0,1-1.49.52,2.71,2.71,0,0,1-1.9-.49l.16,0c-.06.1-.13.21-.21.32s-.16.2-.24.3a4.61,4.61,0,0,1-1.84,1.26,4.72,4.72,0,0,1-1.79.3,4.37,4.37,0,0,1-1.21-.22,1.42,1.42,0,0,1-.4-.2,7,7,0,0,0,1.61.26,5,5,0,0,0,1.71-.34,4.47,4.47,0,0,0,1.75-1.21c.07-.09.16-.19.23-.29l.2-.3.07-.1.09.07a2.61,2.61,0,0,0,1.75.47,3.76,3.76,0,0,0,1.43-.45A13,13,0,0,0,659.08,177.44Z" style="fill:#455a64"></path><path d="M663.37,184.29a.72.72,0,0,1,0,.14,1.23,1.23,0,0,1-.15.37,1.94,1.94,0,0,1-1.18.86,3.82,3.82,0,0,1-2.17-.14,11.82,11.82,0,0,1-1.22-.42,2.07,2.07,0,0,1-1.08-.91l0-.12.18.05a8.65,8.65,0,0,1-2.19,1.43,3.81,3.81,0,0,1-2.11.31,2.91,2.91,0,0,1-1.34-.54,1.46,1.46,0,0,1-.28-.27c-.06-.07-.09-.11-.08-.11s.14.13.41.31a3,3,0,0,0,1.31.45,3.78,3.78,0,0,0,2-.34,8.64,8.64,0,0,0,2.12-1.42l.12-.1.06.15,0,.1a2,2,0,0,0,1,.8c.4.17.81.3,1.19.43a3.89,3.89,0,0,0,2.06.19,2.05,2.05,0,0,0,1.16-.75C663.32,184.48,663.34,184.28,663.37,184.29Z" style="fill:#455a64"></path><path d="M640.14,208.48a21.26,21.26,0,0,0-4.85,2.33c-.06.78,1.38,2.35,2.13,2.58a2.7,2.7,0,0,0,2.4-.52,3.32,3.32,0,0,0,.94-2.16A4.9,4.9,0,0,0,640.14,208.48Z" style="fill:#6f4439"></path><path d="M637.64,213.47a5.1,5.1,0,0,0,1.65-.49,2.88,2.88,0,0,0,1.21-1.33,2.94,2.94,0,0,0-.47-3.05l.25.06a29.35,29.35,0,0,1-4.62,1.88,31.81,31.81,0,0,1,4.44-2.29l.14-.07.12.12a3.5,3.5,0,0,1,.62,1,3.21,3.21,0,0,1-.1,2.48,3.15,3.15,0,0,1-1.43,1.44A2.21,2.21,0,0,1,637.64,213.47Z" style="fill:#263238"></path><path d="M660.51,212.38a2.42,2.42,0,1,1-2.66-2.17A2.42,2.42,0,0,1,660.51,212.38Z" style="fill:#455a64"></path><path d="M562.44,309.78l3.88-5.87,6.24-3.13.23-.17a8.37,8.37,0,0,1,7.07-1.32c2.54.68,5.93,1.52,8.87,2l6.71-1.83v13.09l-33.84-2.14Z" style="fill:#ae7461"></path><path d="M562.67,309.42a10.27,10.27,0,0,1,1.43-1.31c.92-.76,2.2-1.79,3.64-2.92l1.34-1,0,0h0c1.38-.26,2.59-.47,3.45-.6a5.46,5.46,0,0,1,1.39-.14,5.3,5.3,0,0,1-1.34.39c-.85.21-2,.47-3.43.75l.09,0-1.33,1c-1.44,1.13-2.75,2.12-3.71,2.83A8.78,8.78,0,0,1,562.67,309.42Z" style="fill:#6f4439"></path><path d="M565.31,310.56a40.4,40.4,0,0,1,4.87-2.93l1.19-.66,0,0h0a25.68,25.68,0,0,1,4.34-.07,27.72,27.72,0,0,1-4.31.48l.09,0-1.19.66A37,37,0,0,1,565.31,310.56Z" style="fill:#6f4439"></path><path d="M523.05,272.73a2.56,2.56,0,0,1,3.33.72l27.26,36.91,43.13.59c1.72.1,3.81,3.58,2.27,5.27l-48.71-.67-28.11-39.07A2.57,2.57,0,0,1,523.05,272.73Z" style="fill:#455a64"></path><path d="M523.05,272.73l-.22.12a2.33,2.33,0,0,0-.54.48,2.59,2.59,0,0,0-.4,2.7,16.17,16.17,0,0,0,1.15,1.73l1.44,2,3.56,5,22.13,30.89.06.08h.1l47.82.68.88,0h.11l.07-.08a2.43,2.43,0,0,0,.59-1.74,4.23,4.23,0,0,0-.46-1.72,5,5,0,0,0-1-1.43,2.52,2.52,0,0,0-1.64-.76l-6.66-.09-12.87-.17-23.49-.29.16.08-21.44-28.9-6-8.07a2.62,2.62,0,0,0-2.43-.88,2,2,0,0,0-.85.33,3.49,3.49,0,0,1,.86-.27,2.55,2.55,0,0,1,2.32.9l5.95,8.13,21.3,29,.06.08h.1l23.48.34,12.87.18,6.66.09a2.08,2.08,0,0,1,1.34.65,4.65,4.65,0,0,1,.94,1.29,2.67,2.67,0,0,1-.06,2.95L599,316h-.88l-47.82-.63.16.08c-9.18-12.7-16.87-23.32-22.26-30.79l-3.61-5-1.46-2A16.34,16.34,0,0,1,522,276a2.56,2.56,0,0,1,.34-2.61A3.51,3.51,0,0,1,523.05,272.73Z" style="fill:#263238"></path><path d="M653.7,230a14.36,14.36,0,0,1,7.24,3.38,24.37,24.37,0,0,1,5.81,9.51c1.44,4.32.79,21.36.79,26.3s-1.26,23.48-1.88,26.56.41,7.67,1.84,10.66c2.56,5.35-1.44,8.09-1.44,8.09l-52.92-.39.21-2c.36-3.44-.92-6.94.39-10.14a33,33,0,0,0,2.44-14.83c-.68-8.82-3.31-14.84-1.7-19.95,2.47-7.8,10.62-25.55,20.47-33.13,0,0,7.76-1.66,9.52-2.27C648.47,230.39,650.58,229.63,653.7,230Z" style="fill:#FFB000"></path><path d="M591.47,298l45.22-9.44,1.16-39.26s1.59-16,9.6-17.47l19.3,24c-1.08,12.11-.1,35-5.66,43.85s-11,15.91-24.68,15.28-43.89-.91-43.89-.91Z" style="fill:#FFB000"></path><path d="M636.6,288.67c-.11.09,1,1.5,1.89,3.47s1.31,3.71,1.45,3.68a11.54,11.54,0,0,0-3.34-7.15Z" style="fill:#263238"></path><g style="opacity:0.30000000000000004"><path d="M638.17,247.59c-4.52,13.87-3.54,35.27-12.15,43.15l10.67-2.22a54,54,0,0,1-.09-7.54c.86-11,1-22.13,1.57-33.39"></path></g><path d="M639.17,242.63a24.73,24.73,0,0,0-.79,3.15,37,37,0,0,0-.55,3.89c-.15,1.54-.18,3.33-.25,5.32-.26,8-.63,19.51-1.08,33.52l.15-.17-45.22,9.4-.19,0V298c.33,5.14.68,10.56,1,16.07v.21h.21l5.5.07c7.86.09,15.53.21,22.94.37,3.7.08,7.34.18,10.9.3s7.07.42,10.48-.11a23.4,23.4,0,0,0,4.92-1.27,21.17,21.17,0,0,0,4.34-2.37,29.64,29.64,0,0,0,6.52-6.78c.88-1.24,1.71-2.47,2.5-3.71l.58-.92c.19-.31.35-.64.52-1l.51-1,.39-1a38.62,38.62,0,0,0,2-7.85A123.28,123.28,0,0,0,666,275.23c.2-4.09.3-7.61.4-10.49s.19-5.11.27-6.62c0-.75.08-1.32.11-1.72s0-.59,0-.59,0,.19-.07.58-.09,1-.15,1.72c-.11,1.51-.24,3.75-.36,6.62s-.25,6.4-.47,10.49a126.23,126.23,0,0,1-1.39,13.8,37.64,37.64,0,0,1-2,7.77l-.39,1c-.16.31-.33.62-.5.93s-.32.63-.51.94l-.58.91q-1.18,1.84-2.5,3.69a29.08,29.08,0,0,1-6.45,6.67,20.77,20.77,0,0,1-4.25,2.32,23,23,0,0,1-4.83,1.23c-3.35.52-6.84.19-10.4.09s-7.21-.22-10.91-.3c-7.41-.17-15.08-.29-22.94-.39l-5.5-.06.22.21c-.36-5.51-.71-10.92-1-16.07l-.18.24,45.21-9.48.14,0v-.15c.38-14,.7-25.51.92-33.52.06-2,.06-3.78.19-5.32s.31-2.83.5-3.88.37-1.83.5-2.36c.06-.26.11-.45.15-.6S639.17,242.64,639.17,242.63Z" style="fill:#263238"></path><polygon points="566.59 394.3 573.3 443.76 555.74 446.64 543.25 402.75 566.59 394.3" style="fill:#ae7461"></polygon><path d="M619.84,318.31s-64.19-4.22-77.51-2.1c-8.06,1.29-15,13.87-10.61,21.44,2.08,3.58,5.35,14.72,5.35,14.72l34.5-7.86Z" style="fill:#263238"></path><polygon points="571.57 352.38 585.47 373.58 569.11 384.18 551.37 356.98 571.57 352.38" style="fill:#ae7461"></polygon><path d="M664.79,314.43s6.48,29.61-4.16,41.65-26.38,12-42.58,9.72-54.65-3.12-54.65-3.12,1.72,10.51,3,22.48,1.52,19.53,1.52,19.53l-24.07,2s-13.42-40.82-15.48-48.9-1.36-18.94,5.77-23c6-3.42,53.72-16.64,76.55-18.6l2.48-2.13Z" style="fill:#263238"></path><path d="M551.63,352.85c0,.08.93.21,2.36.72a15.56,15.56,0,0,1,2.4,1.12A16.76,16.76,0,0,1,559,356.6a17.62,17.62,0,0,1,2.17,2.41,16.22,16.22,0,0,1,1.35,2.28c.66,1.37.89,2.3,1,2.27a1.74,1.74,0,0,0-.1-.66,9,9,0,0,0-.57-1.74,13.5,13.5,0,0,0-1.31-2.39,15.7,15.7,0,0,0-2.2-2.51,16,16,0,0,0-2.73-1.94,13.14,13.14,0,0,0-2.51-1.05,10,10,0,0,0-1.79-.39A1.91,1.91,0,0,0,551.63,352.85Z" style="fill:#455a64"></path><path d="M554.49,328.2a11,11,0,0,0-3.12-4.59,36.6,36.6,0,0,0,3.12,4.59Z" style="fill:#455a64"></path><path d="M527.33,346.43a1,1,0,0,0,.07-.23c0-.18.1-.41.16-.69.15-.6.37-1.48.73-2.6A19.29,19.29,0,0,1,530,339a9.7,9.7,0,0,1,3.88-3.91,106.56,106.56,0,0,1,13.87-4.93c5.33-1.59,11.2-3.28,17.39-4.92,12.4-3.29,23.78-5.64,32.07-7,4.14-.7,7.51-1.18,9.83-1.5l2.69-.37.69-.1.24,0a.73.73,0,0,0-.24,0l-.7.06-2.7.28c-2.33.27-5.71.7-9.86,1.36a328,328,0,0,0-32.13,6.9c-6.21,1.64-12.08,3.34-17.4,5a104.36,104.36,0,0,0-13.9,5,10,10,0,0,0-4,4.07,19.15,19.15,0,0,0-1.66,4,26.91,26.91,0,0,0-.65,2.63c-.05.29-.09.51-.12.7A.87.87,0,0,0,527.33,346.43Z" style="fill:#455a64"></path><path d="M554.38,445.36l-.59-2.15a33.4,33.4,0,0,0,19.39-8.35l6,12.86-39.69,17.65C538,461.57,554.38,445.36,554.38,445.36Z" style="fill:#455a64"></path><path d="M579.13,447.72l-1.46-3.14-37.58,18.13s-1.41,1.53-.65,2.66Z" style="fill:#e0e0e0"></path><path d="M554.91,445.11c.09.18,1.1-.16,2.34,0s2.12.75,2.26.6-.66-1.12-2.16-1.31S554.79,445,554.91,445.11Z" style="fill:#263238"></path><path d="M570.35,443.73a1.16,1.16,0,0,0,1.53.52,1.1,1.1,0,0,0,.54-1.48,1.17,1.17,0,0,0-1.53-.53A1.11,1.11,0,0,0,570.35,443.73Z" style="fill:#e0e0e0"></path><path d="M555.15,444.84a2.43,2.43,0,0,0,.9-.16,4.86,4.86,0,0,0,2.22-1.19,3,3,0,0,0,.52-.68,2.1,2.1,0,0,0,.34-.92,1,1,0,0,0-.63-1,1.52,1.52,0,0,0-1.2.06,4.41,4.41,0,0,0-2.45,3.87l.58-.08a4.09,4.09,0,0,0-.39-.89,4.89,4.89,0,0,0-4.3-2.44,1.72,1.72,0,0,0-.67.13.88.88,0,0,0-.45.59,1.56,1.56,0,0,0,.29,1.15,3.56,3.56,0,0,0,1.52,1.22,6.21,6.21,0,0,0,2.72.41,3.46,3.46,0,0,0,1-.09,3.26,3.26,0,0,0-1-.14,6.86,6.86,0,0,1-2.55-.55,3.3,3.3,0,0,1-1.28-1.11,1,1,0,0,1-.19-.78c.05-.22.24-.29.6-.29a4.27,4.27,0,0,1,4.12,3,.31.31,0,0,0,.38.19.31.31,0,0,0,.21-.27,3.94,3.94,0,0,1,2.08-3.4c.53-.29,1.16,0,1.11.42a2.66,2.66,0,0,1-.67,1.35,4.92,4.92,0,0,1-2,1.25A3.63,3.63,0,0,0,555.15,444.84Z" style="fill:#263238"></path><path d="M551.86,447.86a7.69,7.69,0,0,1,5,1.25,3.31,3.31,0,0,0-2.29-1.51A3.41,3.41,0,0,0,551.86,447.86Z" style="fill:#263238"></path><path d="M549.65,450.38c0,.13,1.09.1,2.33.48s2.12,1,2.21.86a3.51,3.51,0,0,0-2.08-1.3A3.46,3.46,0,0,0,549.65,450.38Z" style="fill:#263238"></path><path d="M566,381.79l-.94-2a33.34,33.34,0,0,0,17.7-11.49l8,11.67L554.64,404C552.53,400.54,566,381.79,566,381.79Z" style="fill:#455a64"></path><path d="M590.79,380l-2-2.85-34,24.2s-1.14,1.75-.2,2.73Z" style="fill:#e0e0e0"></path><path d="M566.48,381.45c.12.17,1.06-.34,2.31-.37s2.21.39,2.33.21-.84-1-2.35-.93S566.33,381.32,566.48,381.45Z" style="fill:#263238"></path><path d="M581.47,377.5a1.16,1.16,0,0,0,1.59.26,1.11,1.11,0,0,0,.28-1.56,1.15,1.15,0,0,0-1.59-.26A1.1,1.1,0,0,0,581.47,377.5Z" style="fill:#e0e0e0"></path><path d="M566.67,381.15s.32-.06.86-.31a4.83,4.83,0,0,0,2-1.54,3.3,3.3,0,0,0,.4-.77,1.9,1.9,0,0,0,.17-.95,1,1,0,0,0-.77-.86,1.48,1.48,0,0,0-1.18.25,4.43,4.43,0,0,0-1.77,4.23l.57-.18a5.7,5.7,0,0,0-.54-.81,4.87,4.87,0,0,0-4.65-1.67,1.37,1.37,0,0,0-.64.24.85.85,0,0,0-.34.65,1.49,1.49,0,0,0,.47,1.08,3.59,3.59,0,0,0,1.71.95,6.05,6.05,0,0,0,2.75-.06,3.28,3.28,0,0,0,1-.25,3.21,3.21,0,0,0-1,0,6.59,6.59,0,0,1-2.6-.12,3.27,3.27,0,0,1-1.45-.87,1,1,0,0,1-.32-.73c0-.23.18-.34.54-.39a4.37,4.37,0,0,1,4.09,1.51,3.49,3.49,0,0,1,.47.71.3.3,0,0,0,.4.12.28.28,0,0,0,.16-.3,3.94,3.94,0,0,1,1.48-3.7c.48-.38,1.14-.24,1.18.23a2.62,2.62,0,0,1-.44,1.44,5.13,5.13,0,0,1-1.76,1.57A3.61,3.61,0,0,0,566.67,381.15Z" style="fill:#263238"></path><path d="M563.94,384.68a15.36,15.36,0,0,1,2.62-.26,13.28,13.28,0,0,1,2.55.65,3.34,3.34,0,0,0-2.52-1.11A3.39,3.39,0,0,0,563.94,384.68Z" style="fill:#263238"></path><path d="M562.18,387.54c0,.13,1.09-.09,2.37.08s2.27.6,2.33.48a3.43,3.43,0,0,0-2.27-.94A3.48,3.48,0,0,0,562.18,387.54Z" style="fill:#263238"></path></g><g id="freepik--character-2--inject-179"><circle cx="251.44" cy="167.62" r="44.48" transform="translate(-44.34 105.73) rotate(-21.87)" style="fill:#e0e0e0"></circle><path d="M277.84,184.89c-.76-.49-10.87-2.59-10.87-2.59l-24.38.64-8.74,1.61s.85,22.28,1.09,22.77,16.32,3.29,16.79,3.78,15.45-2.82,15.45-2.82l16.43-20.78Z" style="fill:#ae7461"></path><path d="M239.28,105.09c-7.82,1.89-15.16,9.46-18.44,16.67s-3.46,14-2.46,21.87c.61,4.75,1.94,9.57,2.8,14.09.9,4.7-1.34,11.29-3.91,15.36-1,1.54-2.28,3.2-1.81,4.95s2.21,2.5,3.86,2.93a18.13,18.13,0,0,0,10.32-.36c-.14,1.16-.29,2.32-.44,3.48,8.91-.18,17.48-3.12,25.87-6,2.82-1,5.76-2,7.73-4.22a16.68,16.68,0,0,0,2.5-4.15,182.34,182.34,0,0,0,7.33-18.08" style="fill:#263238"></path><path d="M279.29,115.82c-6.76-8.26-15.83-13-26.5-13.19-6-.1-8.51,1.15-12.85,2.32a19,19,0,0,0-10.83,7.17c-3.07,4.36-5.65,9.24-6.23,14.54a89.11,89.11,0,0,0-.79,16.39c.41,5.46,1.9,11,5.11,15.4l13.9,2.41c7.68.27,15.46.52,22.94-1.23s14.75-5.78,18.75-12.33C288.35,138.19,286,124.08,279.29,115.82Z" style="fill:#263238"></path><path d="M266.92,115.73l-18.53-7.37-4.84.57c-10.89,0-18.4,12-18.48,20.87-.08,9.8.21,21.77,1.77,29,3.13,14.53,15.53,15.74,15.53,15.74s-.25,7.74-.35,12.62l28.37-2.05,1.43-64.39A5.17,5.17,0,0,0,266.92,115.73Z" style="fill:#ae7461"></path><path d="M231.68,142a1.89,1.89,0,0,0,1.92,1.8,1.79,1.79,0,0,0,1.84-1.8,1.88,1.88,0,0,0-1.91-1.8A1.8,1.8,0,0,0,231.68,142Z" style="fill:#263238"></path><path d="M228.15,137c.25.22,1.66-.85,3.73-.93s3.64.82,3.85.57-.16-.52-.84-.94a5.58,5.58,0,0,0-3.1-.75,5.26,5.26,0,0,0-2.95,1C228.23,136.45,228,136.88,228.15,137Z" style="fill:#263238"></path><path d="M241.39,150.56a13.39,13.39,0,0,0-3.32-.41c-.52,0-1-.1-1.12-.45a2.7,2.7,0,0,1,.26-1.55c.42-1.28.86-2.61,1.31-4,1.82-5.71,3.1-10.4,2.87-10.47s-1.89,4.5-3.7,10.22l-1.25,4a3,3,0,0,0-.15,2.05,1.3,1.3,0,0,0,.89.7,3.13,3.13,0,0,0,.88.08A12.7,12.7,0,0,0,241.39,150.56Z" style="fill:#263238"></path><path d="M242.35,174.51a37.26,37.26,0,0,0,19.33-6.31s-4.67,10.44-19.41,9.88Z" style="fill:#6f4439"></path><path d="M228.67,131.54c.37.47,1.9.06,3.72.11s3.34.44,3.71,0c.17-.23-.06-.7-.71-1.16a5.76,5.76,0,0,0-6-.08C228.74,130.84,228.51,131.31,228.67,131.54Z" style="fill:#263238"></path><path d="M254.7,141.28a1.87,1.87,0,0,1-1.78,1.93,1.8,1.8,0,0,1-2-1.66,1.89,1.89,0,0,1,1.78-1.93A1.79,1.79,0,0,1,254.7,141.28Z" style="fill:#263238"></path><path d="M256.89,136.08c-.24.28-1.86-.8-4.08-.67s-3.78,1.33-4,1.07.11-.62.79-1.17a5.6,5.6,0,0,1,3.21-1.19A5.43,5.43,0,0,1,256,135C256.75,135.47,257,136,256.89,136.08Z" style="fill:#263238"></path><path d="M253.88,129c-.39.47-2,0-3.84,0s-3.47.37-3.84-.1c-.16-.23.08-.7.77-1.15a5.82,5.82,0,0,1,3.1-.81,5.75,5.75,0,0,1,3.08.88C253.83,128.28,254.05,128.75,253.88,129Z" style="fill:#263238"></path><path d="M285.68,125.48c-6.55-13.34-16.38-22.22-34-22.85l13.94,34c6.56,9.52,6.55,21.06,3.09,32.09-1,3.08-2.27,6.66-.46,9.34s6,2.75,8.75,1c2.48-1.59,4-4.2,5.44-6.81a2.24,2.24,0,0,0,1.29,2.37,3.25,3.25,0,0,0,3.51-1.09,8.34,8.34,0,0,0,1.6-3.54,67.24,67.24,0,0,0,1.85-13.63C291.25,145.79,290.32,134.93,285.68,125.48Z" style="fill:#263238"></path><path d="M269.3,145.33c-.06-1.09,1.06-3.73,2.13-4,2.86-.61,8.06-.66,8.5,6.64.62,10-9.53,8.55-9.57,8.26S269.5,149.1,269.3,145.33Z" style="fill:#ae7461"></path><path d="M272.89,152.46s.18.11.48.22a1.72,1.72,0,0,0,1.31-.05c1-.45,1.81-2.18,1.75-4a5.71,5.71,0,0,0-.64-2.47,2,2,0,0,0-1.39-1.25.89.89,0,0,0-1,.54c-.11.29,0,.48-.09.5s-.22-.15-.17-.57a1.1,1.1,0,0,1,.36-.65,1.28,1.28,0,0,1,.94-.31,2.42,2.42,0,0,1,1.91,1.43,6,6,0,0,1,.78,2.75c.06,2-.86,4-2.27,4.47a1.85,1.85,0,0,1-1.61-.17C272.92,152.7,272.86,152.48,272.89,152.46Z" style="fill:#6f4439"></path><path d="M271.84,141.4l-2.54,3c-23.93-14.45-32.37-37.16-31.18-35.6a32,32,0,0,1,15.66-1.7c8.15,1.39,23.6,5.47,23.36,15.08S271.84,141.4,271.84,141.4Z" style="fill:#263238"></path><path d="M276.33,157.87a3.52,3.52,0,1,1-3.51-3.52A3.52,3.52,0,0,1,276.33,157.87Z" style="fill:#455a64"></path><path d="M239,105.09c-.19.54,9.09-1.39,13,1s7,6,9.63,9.73c5.35,7.57,9.68,16.33,10.17,25.59a7.72,7.72,0,0,1,5.31.64s4.91-29.92-24.36-39.41C252.79,102.63,240.75,100.21,239,105.09Z" style="fill:#455a64"></path><path d="M241.56,103.21a3.31,3.31,0,0,1,.54-.19,10.07,10.07,0,0,1,1.62-.38c.36,0,.76-.12,1.2-.13l.69,0h.74a17.21,17.21,0,0,1,3.45.49,24.89,24.89,0,0,1,8.19,3.81,36.84,36.84,0,0,1,8.09,7.56,38.22,38.22,0,0,1,5.56,9.58c.29.8.6,1.57.86,2.34l.67,2.25c.17.74.33,1.46.49,2.14s.23,1.36.34,2c0,.32.11.63.13.93l.08.9c.05.57.11,1.12.13,1.63,0,1,.05,1.91,0,2.63s-.08,1.26-.11,1.65a3,3,0,0,1-.06.58,5.15,5.15,0,0,1,0-.58c0-.39,0-.95,0-1.66s-.05-1.59-.07-2.61c0-.51-.11-1.05-.16-1.62,0-.29-.06-.58-.09-.89s-.1-.61-.15-.92c-.12-.63-.2-1.3-.36-2l-.5-2.12-.68-2.23c-.27-.76-.58-1.53-.87-2.32a38.72,38.72,0,0,0-5.54-9.48,36.88,36.88,0,0,0-8-7.51,25.45,25.45,0,0,0-8.07-3.84,18.63,18.63,0,0,0-3.4-.53l-.73,0-.68,0c-.44,0-.83.08-1.19.1-.7.11-1.25.21-1.62.31A3.26,3.26,0,0,1,241.56,103.21Z" style="fill:#263238"></path><path d="M244.1,156.28a5.88,5.88,0,0,0,2.2,1.36,2.37,2.37,0,0,0,2.6-.57,2.05,2.05,0,0,0-.08-2.35,3.24,3.24,0,0,0-2.2-1.27,5.2,5.2,0,0,0-.87,0,2.15,2.15,0,0,0-1.74,1,1.72,1.72,0,0,0,.09,1.85Z" style="fill:#6f4439"></path><path d="M248.63,151.79c-.31,0-.38,2-2.19,3.44s-4,1.11-4,1.4c0,.12.48.41,1.4.47a5.15,5.15,0,0,0,3.36-1,4.5,4.5,0,0,0,1.71-2.89C249,152.3,248.77,151.78,248.63,151.79Z" style="fill:#263238"></path><path d="M212.21,188.59s10.38,24.79,43,24.79c0,0,30.67,0,37.53-29.3l-22.32-1.41s-2.92,12.29-14.4,12.06a15.39,15.39,0,0,1-15.11-11.49Z" style="fill:#FFB000"></path></g><g id="freepik--character-1--inject-179"><path d="M115.09,158.34c2.09-14.47,5.78-30.34,26.44-28.86,0,0,15.56,1.05,20.16,12.29,2.49,6.08,1,28.84,1.6,47.66l2.23,24.2-62.25-11.72S113.79,167.33,115.09,158.34Z" style="fill:#263238"></path><path d="M144.28,135.32l-1.3-1.23-14,5.63a3.89,3.89,0,0,0-3.68,3.77l.13,45.52a12.75,12.75,0,0,0,2.46,8.22l12.82,16.4c4.47,5.91,4.06-7.1,7.6-13.6.25-.46-.82-2.15-.75-2.47a8.08,8.08,0,0,0,.21-1c.42-3.66.44-6.84.44-6.84.25-4,.33-5.67.33-5.63s8.56-1,10.87-12c1.15-5.46.93-13,.61-20.37C159.6,141.49,152.5,135.31,144.28,135.32Z" style="fill:#ffbf9d"></path><path d="M143.58,159.61a1.42,1.42,0,0,1-1.44,1.36,1.36,1.36,0,0,1-1.4-1.35,1.43,1.43,0,0,1,1.44-1.37A1.37,1.37,0,0,1,143.58,159.61Z" style="fill:#263238"></path><path d="M157.27,159.92a1.41,1.41,0,0,1-1.44,1.36,1.36,1.36,0,0,1-1.4-1.35,1.44,1.44,0,0,1,1.44-1.37A1.36,1.36,0,0,1,157.27,159.92Z" style="fill:#263238"></path><path d="M158.59,154.65c-.19.18-1.22-.67-2.75-.74s-2.69.63-2.84.44.12-.41.62-.75a3.93,3.93,0,0,1,2.29-.58,3.85,3.85,0,0,1,2.18.83C158.54,154.23,158.68,154.58,158.59,154.65Z" style="fill:#263238"></path><path d="M143.09,154.81c-.21.16-1.15-.79-2.66-1s-2.74.35-2.88.14.16-.39.7-.67a4,4,0,0,1,2.34-.35,3.78,3.78,0,0,1,2.08,1.05C143.08,154.39,143.18,154.74,143.09,154.81Z" style="fill:#263238"></path><path d="M148.42,165.93a10.84,10.84,0,0,1,2.51-.32c.39,0,.76-.08.84-.34a1.92,1.92,0,0,0-.2-1.17c-.32-1-.65-2-1-3-1.39-4.31-2.37-7.85-2.2-7.9s1.44,3.39,2.83,7.7c.34,1.07.66,2.08,1,3a2.28,2.28,0,0,1,.13,1.54,1,1,0,0,1-.67.54,3.45,3.45,0,0,1-.67.06A9.92,9.92,0,0,1,148.42,165.93Z" style="fill:#263238"></path><path d="M148.57,184.07a28.28,28.28,0,0,1-14.63-4.7s3.35,7.85,14.48,7.37Z" style="fill:#ff9a6c"></path><path d="M147.59,169.58a2.74,2.74,0,0,0-2.41-1.14,2.53,2.53,0,0,0-1.79.84,1.6,1.6,0,0,0-.21,1.82,1.85,1.85,0,0,0,2,.6,5.89,5.89,0,0,0,2-1.06,1.9,1.9,0,0,0,.46-.43.52.52,0,0,0,0-.57" style="fill:#ff9a6c"></path><path d="M143.87,166.77c.25,0,.17,1.65,1.53,2.9s3.14,1.15,3.14,1.39-.41.3-1.16.28a4.13,4.13,0,0,1-2.62-1.06,3.66,3.66,0,0,1-1.18-2.43C143.56,167.15,143.76,166.75,143.87,166.77Z" style="fill:#263238"></path><path d="M144.55,148.86c-.21.38-1.69,0-3.5-.1s-3.32.21-3.5-.2c-.07-.19.23-.54.87-.85a5.77,5.77,0,0,1,2.69-.5,5.6,5.6,0,0,1,2.64.73C144.36,148.3,144.64,148.67,144.55,148.86Z" style="fill:#263238"></path><path d="M158.37,148.09c-.29.33-1.32-.08-2.59-.16s-2.34.12-2.57-.26c-.1-.18.08-.52.57-.83a3.61,3.61,0,0,1,2.13-.46,3.55,3.55,0,0,1,2,.8C158.37,147.56,158.5,147.93,158.37,148.09Z" style="fill:#263238"></path><path d="M125.61,162.92s7.83,2.43,12.26-16.88c1.51-6.6,7.63-11.95,7.63-11.95l-2.48-.75s-15.43,4.35-15.69,4.54-3.9,8-3.9,8Z" style="fill:#263238"></path><path d="M127.54,162.2c0-.83-.82-2.82-1.62-3-2.16-.44-6.09-.47-6.4,5.06-.43,7.54,7.23,6.41,7.26,6.2S127.4,165.05,127.54,162.2Z" style="fill:#ffbf9d"></path><path d="M124.64,167.48s-.14.08-.37.17a1.29,1.29,0,0,1-1,0,3.27,3.27,0,0,1-1.34-3,4.44,4.44,0,0,1,.47-1.86,1.51,1.51,0,0,1,1-.95.67.67,0,0,1,.75.4c.09.22,0,.37.08.38s.17-.11.12-.43a.84.84,0,0,0-.27-.49.94.94,0,0,0-.71-.23,1.84,1.84,0,0,0-1.44,1.09,4.39,4.39,0,0,0-.58,2.08c0,1.52.66,3,1.73,3.37a1.43,1.43,0,0,0,1.22-.14C124.61,167.66,124.66,167.49,124.64,167.48Z" style="fill:#ff9a6c"></path><path d="M130.92,159.22a8.34,8.34,0,0,0,1.13-.22,6.94,6.94,0,0,0,2.69-1.56,10.09,10.09,0,0,0,1.4-1.64,12.73,12.73,0,0,0,1.14-2.21,45.47,45.47,0,0,0,1.62-5.49c.53-2,1.11-3.82,1.74-5.48a30.79,30.79,0,0,1,2-4.26,22.06,22.06,0,0,1,1.72-2.65c.23-.3.42-.52.55-.67s.19-.23.2-.22l-.17.24c-.12.16-.3.39-.51.69a25.82,25.82,0,0,0-1.67,2.68,33.66,33.66,0,0,0-1.92,4.26c-.62,1.65-1.18,3.5-1.71,5.46a44.47,44.47,0,0,1-1.65,5.51,13,13,0,0,1-1.17,2.23,9.5,9.5,0,0,1-1.45,1.65,6.68,6.68,0,0,1-2.76,1.53A4.11,4.11,0,0,1,130.92,159.22Z" style="fill:#263238"></path><path d="M120.61,191.42a1.8,1.8,0,0,1-.09-.36c0-.27-.11-.62-.19-1.08-.16-1-.39-2.34-.67-4.09l.18,0c0,.28.08.58.12.89v0c0,.11.11.22.16.34l-.19.07A73.44,73.44,0,0,1,117.5,175a74.41,74.41,0,0,1-.46-7.86,36.15,36.15,0,0,1,.75-8.62,13.45,13.45,0,0,1,1.37-3.42,18.08,18.08,0,0,1,2.09-2.91c1.53-1.77,3.18-3.3,4.69-4.81l8.1-8,5.49-5.35,1.5-1.44c.16-.16.29-.28.4-.37a.85.85,0,0,1,.14-.12s0,0-.12.14l-.37.39-1.46,1.49-5.4,5.43-8,8c-1.51,1.52-3.16,3.05-4.67,4.8a14.9,14.9,0,0,0-3.38,6.2,36.17,36.17,0,0,0-.74,8.53,73.9,73.9,0,0,0,.43,7.82,75.09,75.09,0,0,0,2.31,12.13l-.19.07-.16-.34v0h0c0-.32-.08-.62-.12-.89l.19,0,.59,4.11c.06.45.11.81.14,1.08S120.61,191.42,120.61,191.42Z" style="fill:#455a64"></path><path d="M121.33,172.16a3.11,3.11,0,1,0,3.1-3.11A3.1,3.1,0,0,0,121.33,172.16Z" style="fill:#455a64"></path><polygon points="125.12 439.01 128.65 469.44 141.99 467.41 142.88 437.42 125.12 439.01" style="fill:#263238"></polygon><path d="M142,461.38s-8.95,7.59-13.94,2l-.25-.91-4.65,24.78a2.74,2.74,0,0,0,1.74,3.17,2.57,2.57,0,0,0,2.71-.75c3.61-4.08,16.86-19.83,16.86-19.83l-.53-4a13,13,0,0,0-1.94-4.5Z" style="fill:#263238"></path><path d="M144.08,466.88,125.4,490.53a2.57,2.57,0,0,0,2.31-.85c10-11.4,16.79-19.83,16.79-19.83Z" style="fill:#e0e0e0"></path><path d="M130.44,478.77c-.14.09-.8-1.23-2.36-1.85a7.76,7.76,0,0,0-3-.36c0-.06.28-.28.86-.41a4,4,0,0,1,2.3.24,4.07,4.07,0,0,1,1.81,1.47C130.43,478.37,130.5,478.75,130.44,478.77Z" style="fill:#455a64"></path><path d="M128.86,482.38a20.57,20.57,0,0,0-2.32-.95,20.08,20.08,0,0,0-2.49-.14,2.84,2.84,0,0,1,2.62-.42C128.19,481.21,129,482.3,128.86,482.38Z" style="fill:#455a64"></path><path d="M133.5,474.07c-.11.14-1.44-1.08-3.48-1.71a24.49,24.49,0,0,0-3.82-.62,7,7,0,0,1,7.3,2.33Z" style="fill:#455a64"></path><path d="M133.51,467.8c-.06.16-1.5-.33-3.32-.26s-3.24.62-3.31.46a5,5,0,0,1,3.29-1A5,5,0,0,1,133.51,467.8Z" style="fill:#263238"></path><path d="M178,463c-.31-.47-3.1-10.66-3.1-10.66l17.26-4.7,2.45,14.68Z" style="fill:#263238"></path><path d="M193.85,458l.59,2.59s19,7.75,19.24,11.51l-37.55.28.47-13.83C182.2,461.22,187.44,460.76,193.85,458Z" style="fill:#263238"></path><path d="M176.13,472.38l.11-3.16,35.95.89s1.67.75,1.49,2Z" style="fill:#e0e0e0"></path><path d="M194.57,460.7c0,.2-.92.29-1.82.92s-1.37,1.44-1.54,1.36.09-1.19,1.19-1.93S194.61,460.53,194.57,460.7Z" style="fill:#455a64"></path><path d="M198.52,462.39c0,.18-.75.52-1.37,1.34s-.79,1.68-1,1.67-.31-1.09.48-2.1S198.51,462.2,198.52,462.39Z" style="fill:#455a64"></path><path d="M200.79,467.32c-.17.05-.43-.91,0-2s1.32-1.49,1.4-1.33-.45.73-.82,1.61S201,467.3,200.79,467.32Z" style="fill:#455a64"></path><path d="M166.26,279s9.53,42.71,17.59,92c6.62,40.52,9.55,84.38,9.55,84.38l-19.51,1.14S162,406.21,152.75,370.09c-8.54-33.31-15.48-50.79-15.48-50.79l-3.91-43.95Z" style="fill:#263238"></path><path d="M112.44,270.46s-17.11,23.13-15.67,47.27c.86,14.44,30.11,142.8,30.11,142.8l17.32-.59-5.53-136.35L144.53,279Z" style="fill:#263238"></path><path d="M165,208.21a3.46,3.46,0,0,1,.1.71c0,.53.09,1.22.15,2.06.14,1.8.23,4.39.29,7.61.12,6.42-.18,15.3-.82,25.07s-1.19,18.62-1.32,25c-.07,3.21-.09,5.8-.07,7.59v2.07a3.68,3.68,0,0,1,0,.72,3.61,3.61,0,0,1-.07-.72c0-.53-.06-1.21-.11-2.06-.09-1.79-.12-4.39-.1-7.61,0-6.42.51-15.28,1.15-25.06s1-18.62,1-25c0-3.21,0-5.8-.12-7.59,0-.86,0-1.54,0-2.07A4,4,0,0,1,165,208.21Z" style="fill:#263238"></path><path d="M176.53,229.83l2.4,4.71-7.1-26.33c-2.06-8.65-5.1-11.15-8.07-12.08l-1.7,1.75,1.25,49.27,1.59,4.09c-.34,7,2.43,10.92,6.19,12.63,5.54,2.53,12.06-.53,14.17-6.24l7.37-22Z" style="fill:#FFB000"></path><path d="M113.7,210.08l7.07,66L159.94,279l3.12-2.67L162,226.46,147.91,191h0s-1.22,12.64-5.09,12.35c-2.63-.2-13.28-7.8-15.43-9.35l-2-6.47Z" style="fill:#fff"></path><path d="M125.33,185.15,119.21,193l-21,5,13.12,63.44-10,24.55A63.59,63.59,0,0,0,98.72,294l-6.15,24.08s21.19,5.77,26.65,2.62,12.12-33.77,14.14-41,5-28.88,3.63-40.4-5-24.42-6.21-30.28S125.33,185.15,125.33,185.15Z" style="fill:#FFB000"></path><path d="M104.51,251l2.79-16.84L98.21,198s-4.25,3-7.07,14.13c-3,11.61-10.55,42.06-10.59,49.55,0,5.54,4.2,16.88,12.64,15.56,16.43-2.57,42.5-12.53,42.5-12.53L132,246.38Z" style="fill:#FFB000"></path><path d="M148.4,187.11l2.62,4.06,12.91,5s3.35,15.19,3.35,19.83-1.92,56.14-1.92,58.57,9.29,35.34,8.48,37.36-10.5,3.44-10.5,3.44-3.63-28.48-3.63-38.18-.41-33.52-2.43-45.24-9.29-40.8-9.29-40.8Z" style="fill:#FFB000"></path><path d="M159.92,282.63s0-.09,0-.25,0-.42,0-.7c0-.67,0-1.58,0-2.72.06-2.41.13-5.81.23-10,.2-8.45.54-20.11.75-33,0-1.61,0-3.2,0-4.77s-.16-3.09-.28-4.6c-.24-3-.48-5.95-.77-8.73s-.6-5.4-1-7.84a32.79,32.79,0,0,0-1.89-6.59,85.47,85.47,0,0,0-4.23-9l-1.3-2.39-.34-.62c-.07-.14-.11-.21-.1-.22a.81.81,0,0,1,.15.2l.38.59c.33.53.81,1.31,1.39,2.34a75.7,75.7,0,0,1,4.39,9,33,33,0,0,1,2,6.65c.44,2.46.77,5.09,1.07,7.87s.54,5.71.8,8.73c.11,1.51.29,3.06.28,4.65s0,3.16,0,4.78c-.21,12.88-.61,24.55-.9,33-.16,4.18-.29,7.59-.39,10,0,1.15-.1,2.06-.13,2.72,0,.28,0,.52,0,.71A.92.92,0,0,1,159.92,282.63Z" style="fill:#263238"></path><path d="M136,263.24a4.34,4.34,0,0,1-.11-.73c-.05-.47-.12-1.18-.18-2.09-.12-1.82-.23-4.46-.18-7.73,0-1.63.1-3.42.23-5.33a23,23,0,0,0-.76-6,98.49,98.49,0,0,0-4.64-13.24c-2-4.61-4-8.93-5.83-12.85a53.09,53.09,0,0,1-2.48-5.66,47.3,47.3,0,0,1-1.32-5.2c-.65-3.2-1-5.82-1.23-7.63-.11-.91-.18-1.61-.23-2.09a3.46,3.46,0,0,1,0-.74,4.47,4.47,0,0,1,.14.73c.08.52.19,1.21.32,2.07.29,1.8.7,4.41,1.39,7.59a49.22,49.22,0,0,0,1.37,5.15,54.06,54.06,0,0,0,2.51,5.59c1.89,3.91,3.92,8.24,5.87,12.85a95.61,95.61,0,0,1,4.63,13.32,23.71,23.71,0,0,1,.72,6.13c-.15,1.91-.24,3.69-.29,5.31-.1,3.26,0,5.89,0,7.71,0,.87.06,1.57.08,2.1A4,4,0,0,1,136,263.24Z" style="fill:#263238"></path><path d="M169.37,250.29a14.67,14.67,0,0,1,.74-3c.56-1.86,1.45-4.4,2.55-7.15s2.19-5.2,3-7a16.22,16.22,0,0,1,1.49-2.76,20.94,20.94,0,0,1-1.16,2.91c-.76,1.79-1.79,4.25-2.89,7s-2,5.25-2.68,7.07A27,27,0,0,1,169.37,250.29Z" style="fill:#263238"></path><path d="M165.8,205.41a4,4,0,0,1,.34.62c.22.41.49,1,.83,1.86a37.69,37.69,0,0,1,2,7.24,53.71,53.71,0,0,1,.71,11.11c-.15,4.19-.63,8.77-1.2,13.56-1.21,9.58-2.06,18.27-2.45,24.58-.22,3.15-.36,5.7-.46,7.47,0,.84-.1,1.51-.13,2a3.16,3.16,0,0,1-.08.71,3.91,3.91,0,0,1,0-.71q0-.78,0-2c0-1.77.12-4.33.29-7.49.3-6.32,1.09-15,2.3-24.61.58-4.79,1.07-9.36,1.24-13.52a56.74,56.74,0,0,0-.59-11,40.74,40.74,0,0,0-1.83-7.22c-.31-.83-.55-1.47-.74-1.9A3.91,3.91,0,0,1,165.8,205.41Z" style="fill:#263238"></path><polygon points="194.1 219.01 187.47 213.74 180.26 221.53 177.19 230.38 187.47 233.75 188.25 228.76 194.1 219.01" style="fill:#ffbf9d"></polygon><path d="M189.06,143.88A62.18,62.18,0,1,1,298,190.34h0a62.17,62.17,0,0,1-108.91-46.46ZM308.72,155a58,58,0,1,0-13.9,32.63A58,58,0,0,0,308.72,155Z" style="fill:#455a64"></path><path d="M189.06,143.88A62.18,62.18,0,1,1,298,190.34h0a62.17,62.17,0,0,1-108.91-46.46ZM308.72,155a58,58,0,1,0-13.9,32.63A58,58,0,0,0,308.72,155Z" style="fill:#263238"></path><path d="M187.22,141.06a62.18,62.18,0,1,1,108.92,46.47h0a62.18,62.18,0,0,1-108.92-46.47Zm119.66,11.11A58,58,0,1,0,293,184.8,58,58,0,0,0,306.88,152.17Z" style="fill:#455a64"></path><path d="M125.73,284.19l-2.17-1.7c-1.93-1.51-1.35-5.5.29-7.58l76.45-89.76,10.18,8-76.36,89.65C132,285.3,128.22,286.14,125.73,284.19Z" style="fill:#455a64"></path><path d="M187.83,207.45a1.21,1.21,0,0,1,1.36-.51,2.67,2.67,0,0,1,1.17.65,12.56,12.56,0,0,1,4.47,8.29c.15,1.37-.05,3-1.21,3.74l-1.47-.66c-.49-.51-1.87-1.31-2.11-2-1-2.79.9-2.19-1.42-7C188.39,209.54,187.42,208.28,187.83,207.45Z" style="fill:#ffbf9d"></path><path d="M188.58,211.49a9.49,9.49,0,0,0-1.73-2,1.92,1.92,0,0,0-1.85-.31c-.93.41-.86,1.13-.62,2.4a14.29,14.29,0,0,0,1.55,4c1.31,2.4,2.56,5.22,4,7.56l.61-.55a.94.94,0,0,0,1.44-.48,3.9,3.9,0,0,0,.11-2A19.42,19.42,0,0,0,188.58,211.49Z" style="fill:#ffbf9d"></path><path d="M187.68,219.05a18.85,18.85,0,0,0-3.86-4.63,4.52,4.52,0,0,0-1.84-1,1.62,1.62,0,0,0-1.64,1.06,2.09,2.09,0,0,0,.43,1.79,85,85,0,0,0,7,9.71l1.82-2.27C190.31,222,188.65,220.7,187.68,219.05Z" style="fill:#ffbf9d"></path><path d="M132.93,248.92l4.31-.49,7.6-8,4.16-4.31a2.88,2.88,0,0,1,1.28-.76l4.43-1.22a2.58,2.58,0,0,1-1,3.24l-2.35,1.54-2,2.91.35.55s15.09.75,16.13,1.79a1.55,1.55,0,0,1-.16,2.41,2.39,2.39,0,0,1-1.12.22s.9,1.68-1.11,3.34c0,0,1.88,2-.9,3.33a4.68,4.68,0,0,1-2.25,2.42A110.28,110.28,0,0,1,149,258.65l-10.65,1.13-3.58,2.8Z" style="fill:#ffbf9d"></path><path d="M164.9,246.81a11.75,11.75,0,0,1-4.08.65,20.18,20.18,0,0,1-4.13-.18,20.64,20.64,0,0,1,4.11-.29A38.43,38.43,0,0,1,164.9,246.81Z" style="fill:#ff9a6c"></path><path d="M163.45,250.16c0,.07-.37.16-1,.31s-1.46.35-2.42.51a20,20,0,0,1-2.46.21,3.85,3.85,0,0,1-1,0c0-.06.36-.23,1-.34s1.5-.18,2.43-.34,1.8-.32,2.43-.38S163.45,250.1,163.45,250.16Z" style="fill:#ff9a6c"></path><path d="M162.84,253.39a17.57,17.57,0,0,1-4,1,9.24,9.24,0,0,0-2.69.71c-.63.31-.89.69-1,.65s.13-.51.79-.94a7.33,7.33,0,0,1,2.78-.89A17.42,17.42,0,0,1,162.84,253.39Z" style="fill:#ff9a6c"></path><path d="M104.51,274.74a3.82,3.82,0,0,1,.57-.22l1.68-.57,6.32-2.05,22-7-.17.26c-.7-5.06-1.47-10.6-2.27-16.37-.15-1-.29-2.09-.43-3.11l.3.22-28,5.31-.28,0,0-.28c.89-5.14,1.61-9.33,2.12-12.28.26-1.42.46-2.54.61-3.35.07-.36.13-.64.17-.87a1.9,1.9,0,0,1,.08-.3,1.43,1.43,0,0,1,0,.31l-.12.88-.5,3.36c-.47,3-1.14,7.16-2,12.32l-.23-.23,28-5.43.26,0,0,.27c.14,1,.29,2.06.43,3.1.79,5.78,1.55,11.32,2.25,16.39l0,.2-.2.06-22.07,6.82-6.36,1.92-1.7.5A4.69,4.69,0,0,1,104.51,274.74Z" style="fill:#263238"></path><path d="M110,226.2c-.1,0-.1-1.71-.46-4.44a44.46,44.46,0,0,0-.89-4.74,42.23,42.23,0,0,0-4.4-10.92,40.68,40.68,0,0,0-2.64-4c-1.63-2.22-2.82-3.45-2.75-3.52a5.67,5.67,0,0,1,.89.82,30.72,30.72,0,0,1,2.16,2.47,40,40,0,0,1,2.76,4,43.18,43.18,0,0,1,2.65,5.36,41.1,41.1,0,0,1,1.79,5.7,35.83,35.83,0,0,1,.8,4.81,29.26,29.26,0,0,1,.16,3.28A6.78,6.78,0,0,1,110,226.2Z" style="fill:#263238"></path><path d="M95.12,260.82a4.94,4.94,0,0,1,.33-2A11.63,11.63,0,0,1,98,254.47a11.5,11.5,0,0,1,4.09-2.86,4.75,4.75,0,0,1,2-.5c0,.08-.74.29-1.85.83a13,13,0,0,0-6.4,7C95.35,260.06,95.21,260.83,95.12,260.82Z" style="fill:#263238"></path><path d="M191.94,218.3c-.16.06-1-2.35-2.46-5.05a18.88,18.88,0,0,0-2.26-3.22,3.11,3.11,0,0,0-.88-.72c-.24-.11-.39-.07-.41-.11s.15-.15.47-.08a2.55,2.55,0,0,1,1.08.65,13.87,13.87,0,0,1,2.45,3.22,21.56,21.56,0,0,1,1.61,3.69A4.66,4.66,0,0,1,191.94,218.3Z" style="fill:#ff9a6c"></path><path d="M188.25,220.16c-.13.06-1.15-1.62-2.76-3.44s-3.08-3.11-3-3.23a10.6,10.6,0,0,1,3.39,2.89A10.14,10.14,0,0,1,188.25,220.16Z" style="fill:#ff9a6c"></path><path d="M192.3,219.19s.27.55,0,1.43a2.81,2.81,0,0,1-.94,1.29,3,3,0,0,1-1.87.61,2.69,2.69,0,0,1-.7-.1l.31-.16a2.15,2.15,0,0,1-1.25,1.24,2,2,0,0,1-1.41,0c-.75-.32-.93-.82-.88-.84a4.49,4.49,0,0,0,1,.51,1.79,1.79,0,0,0,1.13-.08,1.75,1.75,0,0,0,.93-1l.08-.22.23,0a2.2,2.2,0,0,0,.58.08,2.73,2.73,0,0,0,1.58-.47,2.78,2.78,0,0,0,.88-1.06A12.84,12.84,0,0,0,192.3,219.19Z" style="fill:#ff9a6c"></path></g></svg>