<svg class="animated" id="freepik_stories-devices" xmlns="http://www.w3.org/2000/svg" viewBox="0 0 500 500" version="1.1" xmlns:xlink="http://www.w3.org/1999/xlink" xmlns:svgjs="http://svgjs.com/svgjs"><style>svg#freepik_stories-devices:not(.animated) .animable {opacity: 0;}svg#freepik_stories-devices.animated #freepik--Computer--inject-170 {animation: 3s Infinite  linear floating;animation-delay: 0s;}svg#freepik_stories-devices.animated #freepik--Tablet--inject-170 {animation: 6s Infinite  linear floating;animation-delay: 0s;}svg#freepik_stories-devices.animated #freepik--Mobile--inject-170 {animation: 3s Infinite  linear wind;animation-delay: 1s;}            @keyframes floating {                0% {                    opacity: 1;                    transform: translateY(0px);                }                50% {                    transform: translateY(-10px);                }                100% {                    opacity: 1;                    transform: translateY(0px);                }            }                    @keyframes wind {                0% {                    transform: rotate( 0deg );                }                25% {                    transform: rotate( 1deg );                }                75% {                    transform: rotate( -1deg );                }            }        .animator-hidden { display: none; }</style><g id="freepik--background-complete--inject-170" class="animable animator-hidden" style="transform-origin: 250px 225.905px;"><rect y="382.4" width="500" height="0.25" style="fill: rgb(230, 230, 230); transform-origin: 250px 382.525px;" id="ela1ozm09o5" class="animable"></rect><rect x="427.32" y="391.05" width="18.53" height="0.25" style="fill: rgb(230, 230, 230); transform-origin: 436.585px 391.175px;" id="elalenui4iytn" class="animable"></rect><rect x="394.59" y="391.05" width="26.16" height="0.25" style="fill: rgb(230, 230, 230); transform-origin: 407.67px 391.175px;" id="el4f8irxkv47b" class="animable"></rect><rect x="330.03" y="391.3" width="19.36" height="0.25" style="fill: rgb(230, 230, 230); transform-origin: 339.71px 391.425px;" id="elz8c9b0bnfo" class="animable"></rect><rect x="41.58" y="389.03" width="43.19" height="0.25" style="fill: rgb(230, 230, 230); transform-origin: 63.175px 389.155px;" id="ele66uuzop26f" class="animable"></rect><rect x="26.34" y="389.03" width="6.33" height="0.25" style="fill: rgb(230, 230, 230); transform-origin: 29.505px 389.155px;" id="elh4itday4x55" class="animable"></rect><rect x="101.97" y="396.56" width="62.98" height="0.25" style="fill: rgb(230, 230, 230); transform-origin: 133.46px 396.685px;" id="elp0iq1tyzzq" class="animable"></rect><path d="M237,337.8H43.91a5.71,5.71,0,0,1-5.7-5.71V60.66A5.71,5.71,0,0,1,43.91,55H237a5.71,5.71,0,0,1,5.71,5.71V332.09A5.71,5.71,0,0,1,237,337.8ZM43.91,55.2a5.46,5.46,0,0,0-5.45,5.46V332.09a5.46,5.46,0,0,0,5.45,5.46H237a5.47,5.47,0,0,0,5.46-5.46V60.66A5.47,5.47,0,0,0,237,55.2Z" style="fill: rgb(230, 230, 230); transform-origin: 140.46px 196.4px;" id="el3rz9j2wjmkn" class="animable"></path><path d="M453.31,337.8H260.21a5.72,5.72,0,0,1-5.71-5.71V60.66A5.72,5.72,0,0,1,260.21,55h193.1A5.71,5.71,0,0,1,459,60.66V332.09A5.71,5.71,0,0,1,453.31,337.8ZM260.21,55.2a5.47,5.47,0,0,0-5.46,5.46V332.09a5.47,5.47,0,0,0,5.46,5.46h193.1a5.47,5.47,0,0,0,5.46-5.46V60.66a5.47,5.47,0,0,0-5.46-5.46Z" style="fill: rgb(230, 230, 230); transform-origin: 356.75px 196.4px;" id="elmmnv0wg4wfq" class="animable"></path><rect x="285.32" y="85.56" width="135.7" height="129.56" style="fill: rgb(224, 224, 224); transform-origin: 353.17px 150.34px;" id="elbki6ecpeesc" class="animable"></rect><rect x="288.33" y="85.56" width="135.7" height="129.56" style="fill: rgb(245, 245, 245); transform-origin: 356.18px 150.34px;" id="el94q01ibiw5h" class="animable"></rect><g id="el8v2wg0ihp0v"><rect x="297.48" y="87.91" width="117.4" height="124.87" style="fill: rgb(255, 255, 255); transform-origin: 356.18px 150.345px; transform: rotate(90deg);" class="animable" id="el3iaribhz35"></rect></g><g id="eldw1cji3aqp"><rect x="358.78" y="149.2" width="117.4" height="2.28" style="fill: rgb(224, 224, 224); transform-origin: 417.48px 150.34px; transform: rotate(90deg);" class="animable" id="el1056gxc91aej"></rect></g><rect x="290.57" y="172.55" width="131.22" height="8.16" style="fill: rgb(245, 245, 245); transform-origin: 356.18px 176.63px;" id="el4uzd9y3jyvh" class="animable"></rect><rect x="226.47" y="319.25" width="26.78" height="59.39" style="fill: rgb(230, 230, 230); transform-origin: 239.86px 348.945px;" id="el9jjs6fsi0ya" class="animable"></rect><rect x="231.62" y="378.64" width="117.92" height="3.76" style="fill: rgb(230, 230, 230); transform-origin: 290.58px 380.52px;" id="elmn0zwezvv1g" class="animable"></rect><g id="el3d23583h75p"><rect x="253.26" y="319.25" width="101.42" height="59.39" style="fill: rgb(250, 250, 250); transform-origin: 303.97px 348.945px; transform: rotate(180deg);" class="animable" id="elvsoltbslfv"></rect></g><g id="eljhihvcewhan"><rect x="263.79" y="326.56" width="80.36" height="19.48" style="fill: rgb(230, 230, 230); transform-origin: 303.97px 336.3px; transform: rotate(180deg);" class="animable" id="el2fiqisop5gb"></rect></g><g id="elrxol16ws43n"><rect x="263.79" y="351.85" width="80.36" height="19.48" style="fill: rgb(230, 230, 230); transform-origin: 303.97px 361.59px; transform: rotate(180deg);" class="animable" id="el4yow5sn9xpm"></rect></g><rect x="290.74" y="334.96" width="26.45" height="2.67" rx="1.18" style="fill: rgb(250, 250, 250); transform-origin: 303.965px 336.295px;" id="elsla1na1c31n" class="animable"></rect><rect x="290.74" y="360.25" width="26.45" height="2.67" rx="1.18" style="fill: rgb(250, 250, 250); transform-origin: 303.965px 361.585px;" id="elk1ta74drx2" class="animable"></rect><rect x="62.37" y="256.42" width="27.32" height="118.47" style="fill: rgb(230, 230, 230); transform-origin: 76.03px 315.655px;" id="elij6hshgsdn" class="animable"></rect><rect x="67.62" y="374.89" width="134.72" height="7.51" style="fill: rgb(230, 230, 230); transform-origin: 134.98px 378.645px;" id="el896og4vpizw" class="animable"></rect><g id="el5pzttmle6o"><rect x="89.69" y="256.42" width="117.89" height="118.47" style="fill: rgb(250, 250, 250); transform-origin: 148.635px 315.655px; transform: rotate(180deg);" class="animable" id="elgq0g8diurid"></rect></g><g id="ela7xk35oup9"><rect x="100.43" y="271" width="96.41" height="38.86" style="fill: rgb(230, 230, 230); transform-origin: 148.635px 290.43px; transform: rotate(180deg);" class="animable" id="el71qecyq3nh7"></rect></g><g id="el9del7zorsb"><rect x="100.43" y="321.45" width="96.41" height="38.86" style="fill: rgb(230, 230, 230); transform-origin: 148.635px 340.88px; transform: rotate(180deg);" class="animable" id="elzg0s4vadahb"></rect></g><path d="M159.46,293.09H137.81a2.67,2.67,0,0,1-2.66-2.66h0a2.67,2.67,0,0,1,2.66-2.67h21.65a2.67,2.67,0,0,1,2.66,2.67h0A2.67,2.67,0,0,1,159.46,293.09Z" style="fill: rgb(250, 250, 250); transform-origin: 148.635px 290.425px;" id="elyfixul2suc" class="animable"></path><path d="M159.46,343.54H137.81a2.67,2.67,0,0,1-2.66-2.66h0a2.67,2.67,0,0,1,2.66-2.66h21.65a2.67,2.67,0,0,1,2.66,2.66h0A2.66,2.66,0,0,1,159.46,343.54Z" style="fill: rgb(250, 250, 250); transform-origin: 148.635px 340.88px;" id="eluwwa1dm75hq" class="animable"></path><path d="M315,309.83s-20.12-34.69,7.79-62.3c0,0,7.29,4.74,7.18,11.13s-7.8,8-6.15,13.33,8.91,10.55,4.15,15,.76,8.32.44,13.72S315,309.83,315,309.83Z" style="fill: rgb(250, 250, 250); transform-origin: 318.978px 278.68px;" id="el3qs8gk16tu9" class="animable"></path><path d="M285.58,299.92s.69,19.33,27.07,19.33,27.06-19.33,27.06-19.33Z" style="fill: rgb(230, 230, 230); transform-origin: 312.645px 309.585px;" id="elsuejh2gwbtm" class="animable"></path><path d="M316.52,313s8.15-39.27-27-56.67c0,0-5.41,6.81-3.29,12.83s9.92,5.13,10,10.71-5.14,12.83.78,15.5,1.89,8.15,3.9,13.17S316.52,313,316.52,313Z" style="fill: rgb(230, 230, 230); transform-origin: 301.538px 284.674px;" id="elt9vu3jv4dvc" class="animable"></path><path d="M156.05,145.84s.69,11.62,27.06,11.62,27.07-11.62,27.07-11.62Z" style="fill: rgb(240, 240, 240); transform-origin: 183.115px 151.65px;" id="elentwu4ygf26" class="animable"></path><polygon points="84.53 165.92 80.2 194.81 84.53 194.81 111.09 165.92 84.53 165.92" style="fill: rgb(245, 245, 245); transform-origin: 95.645px 180.365px;" id="ely5b4z3dvqon" class="animable"></polygon><polygon points="80.2 165.92 80.2 194.81 106.76 165.92 80.2 165.92" style="fill: rgb(224, 224, 224); transform-origin: 93.48px 180.365px;" id="elzj4rmgs0skq" class="animable"></polygon><polygon points="188.7 165.92 184.36 194.81 188.7 194.81 215.26 165.92 188.7 165.92" style="fill: rgb(245, 245, 245); transform-origin: 199.81px 180.365px;" id="elk5yjnn0te0e" class="animable"></polygon><polygon points="184.36 165.92 184.36 194.81 210.93 165.92 184.36 165.92" style="fill: rgb(224, 224, 224); transform-origin: 197.645px 180.365px;" id="elsrrdy7psodk" class="animable"></polygon><g id="elwtqopulsaz"><rect x="60.7" y="157.46" width="28.89" height="9.01" style="fill: rgb(224, 224, 224); transform-origin: 75.145px 161.965px; transform: rotate(180deg);" class="animable" id="elolh6035am8i"></rect></g><rect x="89.59" y="157.46" width="143.63" height="9.01" style="fill: rgb(245, 245, 245); transform-origin: 161.405px 161.965px;" id="el3cxpm5hhx85" class="animable"></rect><path d="M119.1,120.44c7.47,1,12.09-15.19-4.4-28.93C115.59,107.41,106.09,118.65,119.1,120.44Z" style="fill: rgb(224, 224, 224); transform-origin: 119.033px 105.997px;" id="elpr7wlmlfksb" class="animable"></path><path d="M124.59,141.7c10.82-7.59,3.41-34.1-30.09-32.18C109,129,105.71,154.92,124.59,141.7Z" style="fill: rgb(224, 224, 224); transform-origin: 111.859px 127.365px;" id="el2g3u4k5shx9" class="animable"></path><path d="M120.77,141.52c-7.2-7.75,3-27.25,28.93-20.13C135.08,134.23,133.31,155,120.77,141.52Z" style="fill: rgb(224, 224, 224); transform-origin: 134.11px 132.876px;" id="el0ws6n7rf4zy" class="animable"></path><path d="M130,130.22c2.49-3,5.43-6.44,4.72-10s-2.5-6.29-1.08-10.13c1.7-4.6,1.37-10.09-1.5-9.63s-6.09,3.83-6,8.28-2.77,5.7-5.42,8-3.68,5.64-4.16,9c-.83,5.22-7.6,4.23-9.4,8.77-1.85,4.38,1.85,10.22,7.77,11.56s10.14,2.18,14.18-2.44C133.21,138.64,126.31,134.56,130,130.22Z" style="fill: rgb(245, 245, 245); transform-origin: 120.754px 123.78px;" id="elfi3nor4s63m" class="animable"></path><polygon points="109.62 157.46 131.87 157.46 133.55 142.67 107.94 142.67 109.62 157.46" style="fill: rgb(230, 230, 230); transform-origin: 120.745px 150.065px;" id="elxmwtbv51c7" class="animable"></polygon><g id="elr1y7auvhdq"><rect x="106.28" y="142.05" width="28.92" height="3.26" style="fill: rgb(230, 230, 230); transform-origin: 120.74px 143.68px; transform: rotate(180deg);" class="animable" id="eli91izddrtmm"></rect></g><rect x="157.7" y="240.48" width="24.16" height="15.93" style="fill: rgb(245, 245, 245); transform-origin: 169.78px 248.445px;" id="elytuj5krzjwf" class="animable"></rect><g id="el8peibg5yoev"><rect x="139.57" y="240.48" width="18.14" height="15.93" style="fill: rgb(224, 224, 224); transform-origin: 148.64px 248.445px; transform: rotate(180deg);" class="animable" id="el0rf7imceb1n"></rect></g><rect x="122.12" y="232" width="10.36" height="24.42" style="fill: rgb(245, 245, 245); transform-origin: 127.3px 244.21px;" id="el3lopqcn8dtr" class="animable"></rect><g id="elhwglwcq6y4p"><rect x="114.34" y="232" width="7.78" height="24.42" style="fill: rgb(224, 224, 224); transform-origin: 118.23px 244.21px; transform: rotate(180deg);" class="animable" id="elu8rhqpvs9rd"></rect></g></g><g id="freepik--Shadow--inject-170" class="animable" style="transform-origin: 250px 416.24px;"><ellipse cx="250" cy="416.24" rx="193.89" ry="11.32" style="fill: rgb(245, 245, 245); transform-origin: 250px 416.24px;" id="elhevzrhqvw88" class="animable"></ellipse></g><g id="freepik--plant-3--inject-170" class="animable animator-hidden" style="transform-origin: 153.92px 223.807px;"><path d="M157.18,231.82a13,13,0,0,0,3.62,1,11,11,0,0,0,7.33-1.7c3.43-2.22,5.51-6.11,5.18-9.69a.7.7,0,0,0-.71-.63,20.93,20.93,0,0,0-16.27,7.58c-.94-4-1.77-8.23-2.37-12.59a12.59,12.59,0,0,0,5.69,2.44,7.9,7.9,0,0,0,2.57-.11c4.47-.92,8-5.71,11.22-10.76a.77.77,0,0,0,.1-.62.67.67,0,0,0-.4-.45c-8.15-3.4-16.79,3.95-19.55,6.6a104.07,104.07,0,0,1-.67-11.06,30.13,30.13,0,0,0,5.35,1.18c4.39.51,8.08-.25,10.72-2.29,3.13-2.4,4.58-6.39,4.19-11.52a.71.71,0,0,0-.83-.64c-9.28,1.35-16.41,7.29-19.38,10.15,0-.66,0-1.32.07-2a.71.71,0,0,0-.13-.46,8.47,8.47,0,0,0-3.54-6.35c-2.33-1.51-5.59-1.71-9.7-.61a.9.9,0,0,0-.56.47.76.76,0,0,0,0,.69c.17.29,3.76,6.35,10.09,7.1a11.72,11.72,0,0,0,2.06,0c-.08,1.82-.11,3.65-.08,5.48A19.93,19.93,0,0,0,135,198.49a.9.9,0,0,0-.57.34.77.77,0,0,0-.14.62c1.26,6.19,4.31,10.36,8.16,11.14.17,0,.35.06.54.09,2,.23,4.86-.36,8.34-3.67a115.68,115.68,0,0,0,1.43,12.62c-3.36-2.17-11.07-6.14-17.93-2.28a.8.8,0,0,0-.37,1c2.79,5.64,5.83,8.58,9.31,9h.09c2.9.31,6-1.13,9.51-4.36.79,4.08,1.73,8,2.73,11.64-3.24-2.71-7.38-2.83-12.79-.4a.87.87,0,0,0-.48.58.7.7,0,0,0,.19.68c.23.23,4.16,4,9,4.55a9.38,9.38,0,0,0,5.39-.93,158.7,158.7,0,0,0,7.24,19.52.76.76,0,0,0,.62.43,1,1,0,0,0,.52-.09.9.9,0,0,0,.44-1.15A165,165,0,0,1,157.18,231.82Z" style="fill: #FFC200; transform-origin: 153.92px 223.807px;" id="el8jqloah9xk3" class="animable"></path><g id="eltizrxc6ecqg"><g style="opacity: 0.6; transform-origin: 153.92px 223.807px;" class="animable" id="elewv93kykitv"><path d="M157.18,231.82a13,13,0,0,0,3.62,1,11,11,0,0,0,7.33-1.7c3.43-2.22,5.51-6.11,5.18-9.69a.7.7,0,0,0-.71-.63,20.93,20.93,0,0,0-16.27,7.58c-.94-4-1.77-8.23-2.37-12.59a12.59,12.59,0,0,0,5.69,2.44,7.9,7.9,0,0,0,2.57-.11c4.47-.92,8-5.71,11.22-10.76a.77.77,0,0,0,.1-.62.67.67,0,0,0-.4-.45c-8.15-3.4-16.79,3.95-19.55,6.6a104.07,104.07,0,0,1-.67-11.06,30.13,30.13,0,0,0,5.35,1.18c4.39.51,8.08-.25,10.72-2.29,3.13-2.4,4.58-6.39,4.19-11.52a.71.71,0,0,0-.83-.64c-9.28,1.35-16.41,7.29-19.38,10.15,0-.66,0-1.32.07-2a.71.71,0,0,0-.13-.46,8.47,8.47,0,0,0-3.54-6.35c-2.33-1.51-5.59-1.71-9.7-.61a.9.9,0,0,0-.56.47.76.76,0,0,0,0,.69c.17.29,3.76,6.35,10.09,7.1a11.72,11.72,0,0,0,2.06,0c-.08,1.82-.11,3.65-.08,5.48A19.93,19.93,0,0,0,135,198.49a.9.9,0,0,0-.57.34.77.77,0,0,0-.14.62c1.26,6.19,4.31,10.36,8.16,11.14.17,0,.35.06.54.09,2,.23,4.86-.36,8.34-3.67a115.68,115.68,0,0,0,1.43,12.62c-3.36-2.17-11.07-6.14-17.93-2.28a.8.8,0,0,0-.37,1c2.79,5.64,5.83,8.58,9.31,9h.09c2.9.31,6-1.13,9.51-4.36.79,4.08,1.73,8,2.73,11.64-3.24-2.71-7.38-2.83-12.79-.4a.87.87,0,0,0-.48.58.7.7,0,0,0,.19.68c.23.23,4.16,4,9,4.55a9.38,9.38,0,0,0,5.39-.93,158.7,158.7,0,0,0,7.24,19.52.76.76,0,0,0,.62.43,1,1,0,0,0,.52-.09.9.9,0,0,0,.44-1.15A165,165,0,0,1,157.18,231.82Z" id="els63n63z7uz" class="animable" style="transform-origin: 153.92px 223.807px;"></path></g></g></g><g id="freepik--Computer--inject-170" class="animable" style="transform-origin: 295.205px 312.285px;"><rect x="168.86" y="208.33" width="256.18" height="163.3" rx="7.19" style="fill: #FFC200; transform-origin: 296.95px 289.98px;" id="elsgb7twxfrfe" class="animable"></rect><g id="ell6a3d2dx0eq"><rect x="168.86" y="208.33" width="256.18" height="163.3" rx="7.19" style="opacity: 0.6; transform-origin: 296.95px 289.98px;" class="animable" id="el1kzsgaezes0h"></rect></g><path d="M329.72,416.24H269.9c5.86-22.1,2.35-45.91-10.52-68H319.2C332.07,370.33,335.58,394.14,329.72,416.24Z" style="fill: #FFC200; transform-origin: 295.924px 382.24px;" id="elgj5h6l84feu" class="animable"></path><path d="M326.6,416.24H266.77c5.86-22.1,2.36-45.91-10.52-68h59.83C329,370.33,332.46,394.14,326.6,416.24Z" style="fill: #FFC200; transform-origin: 292.805px 382.24px;" id="elok49lo0nz2" class="animable"></path><path d="M328.64,380H268.16a97.05,97.05,0,0,0-11.91-31.74h60.48A97.5,97.5,0,0,1,328.64,380Z" style="fill: #FFC200; transform-origin: 292.445px 364.13px;" id="elo58cvald8y" class="animable"></path><g id="el2k0zc4rt005"><g style="opacity: 0.4; transform-origin: 294.359px 382.24px;" class="animable" id="elfqgnfbuiyz"><path d="M329.72,416.24H269.9c5.86-22.1,2.35-45.91-10.52-68H319.2C332.07,370.33,335.58,394.14,329.72,416.24Z" id="elm37r7txsbon" class="animable" style="transform-origin: 295.924px 382.24px;"></path><path d="M326.6,416.24H266.77c5.86-22.1,2.36-45.91-10.52-68h59.83C329,370.33,332.46,394.14,326.6,416.24Z" id="eln9mk7rnzqz" class="animable" style="transform-origin: 292.805px 382.24px;"></path><path d="M328.64,380H268.16a97.05,97.05,0,0,0-11.91-31.74h60.48A97.5,97.5,0,0,1,328.64,380Z" id="el6tgm05j8s1j" class="animable" style="transform-origin: 292.445px 364.13px;"></path></g></g><path d="M326.6,416.24H266.77c5.86-22.1,2.36-45.91-10.52-68h59.83C329,370.33,332.46,394.14,326.6,416.24Z" style="fill: #FFC200; transform-origin: 292.805px 382.24px;" id="el7zchyjabili" class="animable"></path><g id="elodci68gf6qr"><path d="M326.6,416.24H266.77c5.86-22.1,2.36-45.91-10.52-68h59.83C329,370.33,332.46,394.14,326.6,416.24Z" style="opacity: 0.2; transform-origin: 292.805px 382.24px;" class="animable" id="eloxp9ka5un3g"></path></g><g id="elaxhi500a6m7"><path d="M328,380h-59.9a97.89,97.89,0,0,0-11.8-31.74h59.9A97.89,97.89,0,0,1,328,380Z" style="opacity: 0.2; transform-origin: 292.15px 364.13px;" class="animable" id="els1jtb41qeye"></path></g><rect x="165.46" y="208.33" width="256.18" height="163.3" rx="7.19" style="fill: #FFC200; transform-origin: 293.55px 289.98px;" id="el4tez1eo623" class="animable"></rect><g id="elvz1x8jm6ww"><rect x="165.46" y="208.33" width="256.18" height="163.3" rx="7.19" style="opacity: 0.3; transform-origin: 293.55px 289.98px;" class="animable" id="el6k284l8aenh"></rect></g><path d="M315.5,411.51H247.2a4.73,4.73,0,0,0-4.73,4.73h77.76A4.73,4.73,0,0,0,315.5,411.51Z" style="fill: #FFC200; transform-origin: 281.35px 413.875px;" id="elx3xd3tuomo" class="animable"></path><g id="el6w3mwfmz9do"><path d="M315.5,411.51H247.2a4.73,4.73,0,0,0-4.73,4.73h77.76A4.73,4.73,0,0,0,315.5,411.51Z" style="opacity: 0.3; transform-origin: 281.35px 413.875px;" class="animable" id="elbohnzly3dmk"></path></g><rect x="165.46" y="216.6" width="256.18" height="131.63" style="fill: #FFC200; transform-origin: 293.55px 282.415px;" id="elkbtakkmov4" class="animable"></rect><g id="elxkpbnow706h"><rect x="165.37" y="216.6" width="256.18" height="131.63" style="fill: rgb(250, 250, 250); opacity: 0.84; transform-origin: 293.46px 282.415px;" class="animable" id="elsqroouhtr6"></rect></g><g id="el349jdrmfld2"><rect x="208.98" y="226.77" width="178.27" height="106.64" rx="2.84" style="fill: #FFC200; opacity: 0.23; transform-origin: 298.115px 280.09px;" class="animable" id="elb628gumr5d7"></rect></g><g id="elxzpu5eo7j0s"><path d="M386.5,234.11v96.46a2.84,2.84,0,0,1-2.84,2.84H211.07a2.85,2.85,0,0,1-2.84-2.84V234.11Z" style="fill: rgb(250, 250, 250); opacity: 0.67; transform-origin: 297.365px 283.76px;" class="animable" id="el4u2f5y2a2cs"></path></g><g id="elg3o41az8ppe"><rect x="208.75" y="237.89" width="177.23" height="91.75" style="fill: rgb(255, 255, 255); opacity: 0.41; transform-origin: 297.365px 283.765px;" class="animable" id="elvt6bg3w59ik"></rect></g><g id="el74v1eg9wfb"><path d="M349.79,301.23a23.55,23.55,0,1,1,23.55-23.55A23.58,23.58,0,0,1,349.79,301.23Zm0-46.85a23.3,23.3,0,1,0,23.3,23.3A23.32,23.32,0,0,0,349.79,254.38Z" style="fill: #FFC200; opacity: 0.19; transform-origin: 349.79px 277.68px;" class="animable" id="elc26t6lu491r"></path></g><g id="elb8elxz90tq6"><path d="M310.2,301.23a23.55,23.55,0,1,1,23.55-23.55A23.59,23.59,0,0,1,310.2,301.23Zm0-46.85a23.3,23.3,0,1,0,23.3,23.3A23.33,23.33,0,0,0,310.2,254.38Z" style="fill: #FFC200; opacity: 0.19; transform-origin: 310.2px 277.68px;" class="animable" id="eltjuc4mp7sxb"></path></g><g id="el5ug6hi3h7a4"><path d="M373.22,314.39h-139a.12.12,0,0,1-.12-.13v-3.87a.12.12,0,0,1,.12-.13h139a.12.12,0,0,1,.12.13v3.87A.12.12,0,0,1,373.22,314.39Zm-138.91-.25H373.09v-3.63H234.31Z" style="fill: #FFC200; opacity: 0.19; transform-origin: 303.72px 312.325px;" class="animable" id="elib073amxylg"></path></g><g id="elg8snmol8fo"><path d="M381,321.15H213.76a.12.12,0,0,1-.12-.13V246.5a.12.12,0,0,1,.12-.13H381a.12.12,0,0,1,.12.13V321A.12.12,0,0,1,381,321.15Zm-167.08-.25h167V246.62H213.89Z" style="fill: #FFC200; opacity: 0.19; transform-origin: 297.382px 283.76px;" class="animable" id="el9t57thecdho"></path></g><path d="M378.77,230.46a1.51,1.51,0,1,0,1.51-1.5A1.5,1.5,0,0,0,378.77,230.46Z" style="fill: rgb(255, 255, 255); transform-origin: 380.28px 230.47px;" id="eli49f008bx6" class="animable"></path><circle cx="374.93" cy="230.46" r="1.51" style="fill: rgb(255, 255, 255); transform-origin: 374.93px 230.46px;" id="el96am52flfm" class="animable"></circle><circle cx="369.58" cy="230.46" r="1.51" style="fill: rgb(255, 255, 255); transform-origin: 369.58px 230.46px;" id="eltnqicsnbnz8" class="animable"></circle><rect x="208.23" y="233.92" width="178.27" height="0.38" style="fill: #FFC200; transform-origin: 297.365px 234.11px;" id="elth5lkmkfjrl" class="animable"></rect><g id="elks0lid5ofu"><polygon points="233.93 216.6 210.4 348.23 233.69 348.23 257.22 216.6 233.93 216.6" style="fill: rgb(250, 250, 250); opacity: 0.47; transform-origin: 233.81px 282.415px;" class="animable" id="elf2snr750llm"></polygon></g><g id="elirkth3rnu6"><polygon points="262.9 216.6 239.38 348.23 251.02 348.23 274.55 216.6 262.9 216.6" style="fill: rgb(250, 250, 250); opacity: 0.47; transform-origin: 256.965px 282.415px;" class="animable" id="elh7jn2n7bxtt"></polygon></g><g id="elsz0w2ev9lid"><polygon points="393.06 216.6 369.53 348.23 375.36 348.23 398.88 216.6 393.06 216.6" style="fill: rgb(255, 255, 255); opacity: 0.4; transform-origin: 384.205px 282.415px;" class="animable" id="el3s0qmtsyxzo"></polygon></g><g id="eladio6nq3ms"><polygon points="382.81 216.6 359.28 348.23 365.11 348.23 388.63 216.6 382.81 216.6" style="fill: rgb(255, 255, 255); opacity: 0.4; transform-origin: 373.955px 282.415px;" class="animable" id="eldq7ash9w4id"></polygon></g><path d="M331.77,411.51H319.54a4.73,4.73,0,0,0-4.73,4.73h21.68A4.72,4.72,0,0,0,331.77,411.51Z" style="fill: #FFC200; transform-origin: 325.65px 413.875px;" id="eloc9qwipi3x" class="animable"></path><g id="elf227nq1h2da"><path d="M331.77,411.51H319.54a4.73,4.73,0,0,0-4.73,4.73h21.68A4.72,4.72,0,0,0,331.77,411.51Z" style="opacity: 0.4; transform-origin: 325.65px 413.875px;" class="animable" id="el3vk5h2h3fnm"></path></g><path d="M298.45,360.23a4.9,4.9,0,1,1-4.9-4.9A4.9,4.9,0,0,1,298.45,360.23Z" style="fill: #FFC200; transform-origin: 293.55px 360.23px;" id="elbrigdl363u" class="animable"></path><g id="elrs2p8houjv"><path d="M298.45,360.23a4.9,4.9,0,1,1-4.9-4.9A4.9,4.9,0,0,1,298.45,360.23Z" style="opacity: 0.5; transform-origin: 293.55px 360.23px;" class="animable" id="elxpz4mbd9gh9"></path></g></g><g id="freepik--plant-2--inject-170" class="animable animator-hidden" style="transform-origin: 256.253px 275.151px;"><path d="M251.68,399.34c-.69-23.94-.63-169.93.76-181.92l1.89-2.61s-.87,2.32-1.08,43.35-.49,135.09-.26,141.18Z" style="fill: #FFC200; transform-origin: 252.79px 307.075px;" id="el802fev4mt07" class="animable"></path><path d="M262.91,310.55c8-13.32,16.76-22.79,23.1-28s-10.28,28.62-16.78,41.21-14.51,26.51-17.09,38.27C251.64,338.11,254.9,323.87,262.91,310.55Z" style="fill: #FFC200; transform-origin: 269.758px 322.02px;" id="elzbsq87rsr2" class="animable"></path><path d="M252.3,219.1c1.64-15.14-.58-29.13,7.66-46.86s14.51-31.65,22.46-38.12c1.91-1.56-4.62,29.26-12.21,46.62-5.35,12.25-7.07,21-12.75,29.26C256.13,211.92,252.3,219.1,252.3,219.1Z" style="fill: #FFC200; transform-origin: 267.528px 176.581px;" id="elahapew1bw15" class="animable"></path><path d="M252.26,299.88c1.66-18.69,3.16-36.69,13.89-63.28,2.61-6.48,26.8-51.76,33.11-56.66,3.09-2.41-7.72,27.68-18.28,53-7.91,19-11.19,24.44-20,46.48C257.53,288.15,252.26,299.88,252.26,299.88Z" style="fill: #FFC200; transform-origin: 276.028px 239.842px;" id="elsnnvwo573z" class="animable"></path><path d="M238.18,207.65c-9-12.19-17.7-20.43-24.09-24.74s11,25.66,19.36,38.74,15.93,24.43,19.39,35.77C251.18,233.55,247.18,219.85,238.18,207.65Z" style="fill: #FFC200; transform-origin: 232.774px 219.955px;" id="elzrq4053hpso" class="animable"></path><path d="M252.26,333c-1.7-13-5.2-28.27-10.2-39.59s-12.7-28.68-18.82-34.57c-1.47-1.42,6.4,32.35,11.46,41.33s8.76,17.45,11.94,22.54C247.7,324.36,252.26,333,252.26,333Z" style="fill: #FFC200; transform-origin: 237.66px 295.898px;" id="ely6joha7o8ff" class="animable"></path><g id="el3fmkq4l8kkc"><path d="M251.68,399.34c-.69-23.94-.63-169.93.76-181.92l1.89-2.61s-.87,2.32-1.08,43.35-.49,135.09-.26,141.18Z" style="fill: rgb(255, 255, 255); opacity: 0.5; transform-origin: 252.79px 307.075px;" class="animable" id="elgni0lwq7x2d"></path></g><g id="el14okn7e763y"><path d="M262.91,310.55c8-13.32,16.76-22.79,23.1-28s-10.28,28.62-16.78,41.21-14.51,26.51-17.09,38.27C251.64,338.11,254.9,323.87,262.91,310.55Z" style="fill: rgb(255, 255, 255); opacity: 0.5; transform-origin: 269.758px 322.02px;" class="animable" id="elfhkvmghcq8a"></path></g><g id="elorp7qyqqjyk"><path d="M252.3,219.1c1.64-15.14-.58-29.13,7.66-46.86s14.51-31.65,22.46-38.12c1.91-1.56-4.62,29.26-12.21,46.62-5.35,12.25-7.07,21-12.75,29.26C256.13,211.92,252.3,219.1,252.3,219.1Z" style="fill: rgb(255, 255, 255); opacity: 0.5; transform-origin: 267.528px 176.581px;" class="animable" id="el9xgqe25cg8"></path></g><g id="el3yaw4w8s9o7"><path d="M252.26,299.88c1.66-18.69,3.16-36.69,13.89-63.28,2.61-6.48,26.8-51.76,33.11-56.66,3.09-2.41-7.72,27.68-18.28,53-7.91,19-11.19,24.44-20,46.48C257.53,288.15,252.26,299.88,252.26,299.88Z" style="fill: rgb(255, 255, 255); opacity: 0.5; transform-origin: 276.028px 239.842px;" class="animable" id="eleh2rqfhg8ki"></path></g><g id="elgi0hgf9m2c5"><path d="M238.18,207.65c-9-12.19-17.7-20.43-24.09-24.74s11,25.66,19.36,38.74,15.93,24.43,19.39,35.77C251.18,233.55,247.18,219.85,238.18,207.65Z" style="fill: rgb(255, 255, 255); opacity: 0.5; transform-origin: 232.774px 219.955px;" class="animable" id="ell02rbj04br"></path></g><g id="elgzq9sob85zw"><path d="M252.26,333c-1.7-13-5.2-28.27-10.2-39.59s-12.7-28.68-18.82-34.57c-1.47-1.42,6.4,32.35,11.46,41.33s8.76,17.45,11.94,22.54C247.7,324.36,252.26,333,252.26,333Z" style="fill: rgb(255, 255, 255); opacity: 0.5; transform-origin: 237.66px 295.898px;" class="animable" id="elwnjvyjzm4ms"></path></g><polygon points="271.3 416.24 233.4 416.24 230.54 394.46 274.16 394.46 271.3 416.24" style="fill: rgb(38, 50, 56); transform-origin: 252.35px 405.35px;" id="elsp747ei7myh" class="animable"></polygon><polygon points="276.98 397 227.71 397 226.3 389.65 278.39 389.65 276.98 397" style="fill: rgb(38, 50, 56); transform-origin: 252.345px 393.325px;" id="elfrfwedl3euq" class="animable"></polygon></g><g id="freepik--Tablet--inject-170" class="animable" style="transform-origin: 171.9px 323.905px;"><rect x="110.21" y="231.57" width="126.73" height="184.67" rx="6.99" style="fill: #FFC200; transform-origin: 173.575px 323.905px;" id="elflak81ajvii" class="animable"></rect><g id="elxh2g9qe20wi"><rect x="110.21" y="231.57" width="126.73" height="184.67" rx="6.99" style="opacity: 0.6; transform-origin: 173.575px 323.905px;" class="animable" id="elkth1wqhno6"></rect></g><rect x="106.86" y="231.57" width="126.73" height="184.67" rx="6.99" style="fill: #FFC200; transform-origin: 170.225px 323.905px;" id="eloci9g95emy" class="animable"></rect><g id="elkk1iaxeoij"><rect x="106.86" y="231.57" width="126.73" height="184.67" rx="6.99" style="opacity: 0.3; transform-origin: 170.225px 323.905px;" class="animable" id="eljuk0vina5f"></rect></g><rect x="106.86" y="239.59" width="126.73" height="160.3" style="fill: rgb(250, 250, 250); transform-origin: 170.225px 319.74px;" id="ela16cfokhdsf" class="animable"></rect><g id="elkri0p4rw4nh"><rect x="106.86" y="239.59" width="126.73" height="160.3" style="fill: #FFC200; opacity: 0.1; transform-origin: 170.225px 319.74px;" class="animable" id="eldqzufz3hfd"></rect></g><g id="elm0ttcthb5m"><polygon points="151.79 239.99 122.79 400.29 144.94 400.29 173.94 239.99 151.79 239.99" style="fill: rgb(250, 250, 250); opacity: 0.48; transform-origin: 148.365px 320.14px;" class="animable" id="elgzdte524kvw"></polygon></g><g id="el8r53oulx3w"><polygon points="180.52 239.59 151.52 399.9 162.59 399.9 191.59 239.59 180.52 239.59" style="fill: rgb(250, 250, 250); opacity: 0.48; transform-origin: 171.555px 319.745px;" class="animable" id="el5erzymfuw5n"></polygon></g><circle cx="170.22" cy="407.97" r="4.76" style="fill: #FFC200; transform-origin: 170.22px 407.97px;" id="el8xmh1t4zua" class="animable"></circle><g id="el7sc40nvnlbk"><circle cx="170.22" cy="407.97" r="4.76" style="opacity: 0.5; transform-origin: 170.22px 407.97px;" class="animable" id="eltxt669jzrpl"></circle></g><path d="M171.32,235.26a1.1,1.1,0,1,1-1.1-1.1A1.1,1.1,0,0,1,171.32,235.26Z" style="fill: #FFC200; transform-origin: 170.22px 235.26px;" id="elhbebj16co6m" class="animable"></path><g id="el1zmcxxfqvvw"><path d="M171.32,235.26a1.1,1.1,0,1,1-1.1-1.1A1.1,1.1,0,0,1,171.32,235.26Z" style="opacity: 0.5; transform-origin: 170.22px 235.26px;" class="animable" id="el9kemrroarj"></path></g></g><g id="freepik--Character--inject-170" class="animable" style="transform-origin: 254.654px 258.5px;"><path d="M328.51,204l7.63-1.43a.84.84,0,0,0,.65-1.12l-6-17.77a1.18,1.18,0,0,0-1.29-.76l-7.62,1.42a.84.84,0,0,0-.65,1.13l6,17.77A1.16,1.16,0,0,0,328.51,204Z" style="fill: #FFC200; transform-origin: 329.008px 193.46px;" id="el674m80da1o" class="animable"></path><g id="eldc5cqt17zs"><path d="M328.51,204l7.63-1.43a.84.84,0,0,0,.65-1.12l-6-17.77a1.18,1.18,0,0,0-1.29-.76l-7.62,1.42a.84.84,0,0,0-.65,1.13l6,17.77A1.16,1.16,0,0,0,328.51,204Z" style="opacity: 0.6; transform-origin: 329.008px 193.46px;" class="animable" id="el8l5ynh2tden"></path></g><path d="M329.45,203.86l7.62-1.42a.84.84,0,0,0,.65-1.13l-6-17.77a1.18,1.18,0,0,0-1.29-.76l-7.62,1.43a.83.83,0,0,0-.65,1.12l6,17.77A1.18,1.18,0,0,0,329.45,203.86Z" style="fill: #FFC200; transform-origin: 329.94px 193.32px;" id="elvajug2s16p" class="animable"></path><g id="elz7nogt10v7b"><path d="M329.45,203.86l7.62-1.42a.84.84,0,0,0,.65-1.13l-6-17.77a1.18,1.18,0,0,0-1.29-.76l-7.62,1.43a.83.83,0,0,0-.65,1.12l6,17.77A1.18,1.18,0,0,0,329.45,203.86Z" style="opacity: 0.3; transform-origin: 329.94px 193.32px;" class="animable" id="elugnij9re8s"></path></g><polygon points="327.75 201.89 337.31 200.1 331.93 184.16 322.36 185.95 327.75 201.89" style="fill: rgb(250, 250, 250); transform-origin: 329.835px 193.025px;" id="elq7anke5xdm" class="animable"></polygon><g id="eld35xxrtkip9"><polygon points="327.75 201.89 337.31 200.1 331.93 184.16 322.36 185.95 327.75 201.89" style="fill: #FFC200; opacity: 0.14; transform-origin: 329.835px 193.025px;" class="animable" id="elslu7zd04l3k"></polygon></g><polygon points="322.36 192.84 323.11 191.1 330.31 199.19 324.08 199.67 322.36 192.84" style="fill: rgb(229, 138, 123); transform-origin: 326.335px 195.385px;" id="el4l9mxkp4yb9" class="animable"></polygon><circle cx="199.35" cy="114.67" r="15.43" style="fill: #FFC200; transform-origin: 199.35px 114.67px;" id="elko5jjd5i1xr" class="animable"></circle><path d="M199.35,133a18.47,18.47,0,0,1-3.16-.27l.17-1a17.83,17.83,0,0,0,6,0l.17,1A18.91,18.91,0,0,1,199.35,133Zm-9.13-2.44a18.31,18.31,0,0,1-4.87-4.07l.77-.65a17.23,17.23,0,0,0,4.6,3.86Zm18.28,0-.5-.86a17.23,17.23,0,0,0,4.6-3.86l.76.64A18.15,18.15,0,0,1,208.5,130.5ZM182.16,121a18.22,18.22,0,0,1-1.1-6.26h1a17.19,17.19,0,0,0,1,5.91Zm34.38,0-.94-.34a17.19,17.19,0,0,0,1-5.91l.68,0,.32,0A18.22,18.22,0,0,1,216.54,120.92Zm-33.46-12.13-.94-.34a18.27,18.27,0,0,1,3.17-5.51l.76.64A17.36,17.36,0,0,0,183.08,108.79Zm32.5-.1a17.2,17.2,0,0,0-3-5.18l.77-.65a18.42,18.42,0,0,1,3.2,5.48Zm-24.92-9-.5-.86a17.92,17.92,0,0,1,6-2.19l.17,1A17.29,17.29,0,0,0,190.66,99.71Zm17.28,0a17,17,0,0,0-5.64-2l.17-1a18.28,18.28,0,0,1,6,2.15Z" style="fill: #FFC200; transform-origin: 199.33px 114.86px;" id="el21eamt5dmqm" class="animable"></path><rect x="316.39" y="192.69" width="3" height="1" style="fill: #FFC200; transform-origin: 317.89px 193.19px;" id="eliso94s5lkoo" class="animable"></rect><path d="M310.38,193.69h-6v-1h6ZM298.3,193a19.92,19.92,0,0,1-5.6-2.53l.55-.83a19,19,0,0,0,5.31,2.39Zm-10.17-6.62a19.83,19.83,0,0,1-3.14-5.27l.93-.37a19.14,19.14,0,0,0,3,5Zm-4.54-11.25c0-.51,0-1,0-1.54a20.17,20.17,0,0,1,.52-4.58l1,.23a19.21,19.21,0,0,0-.49,4.35c0,.49,0,1,0,1.47Zm3.62-11.3-.86-.51a20.22,20.22,0,0,1,3.9-4.74l.67.75A19.11,19.11,0,0,0,287.21,163.8Zm8.6-7.69-.41-.91a19.82,19.82,0,0,1,5.91-1.63l.12,1A19.16,19.16,0,0,0,295.81,156.11Zm24.24-1.68h-.66v-1h.66a19.39,19.39,0,0,0,5.15-.7l.27,1A20.19,20.19,0,0,1,320.05,154.43Zm-6.67,0h-6v-1h6Zm17.68-3.28-.55-.83a19.2,19.2,0,0,0,4.34-3.9l.78.63A20,20,0,0,1,331.06,151.15Zm7.69-9.38-.93-.37a19.47,19.47,0,0,0,1.31-5.69l1,.08A20.42,20.42,0,0,1,338.75,141.77Zm-.08-11.87a19.1,19.1,0,0,0-2.19-5.41l.86-.51a20,20,0,0,1,2.3,5.69Zm-5.91-9.9a19.36,19.36,0,0,0-4.89-3.17l.4-.91a20,20,0,0,1,5.15,3.33Zm-10.52-4.71a19.77,19.77,0,0,0-2.18-.12h-3.77v-1h3.76a17.25,17.25,0,0,1,2.3.13Zm-12-.12h-6v-1h6Zm-12,0h-6v-1h6Zm-12,0h-6v-1h6Zm-12,0h-6v-1h6Zm-12,0h-6v-1h6Zm-12,0h-6v-1h6Zm-12,0h-6v-1h6Z" style="fill: #FFC200; transform-origin: 286.185px 153.945px;" id="el8pz1hhn93w3" class="animable"></path><rect x="223.06" y="114.17" width="3" height="1" style="fill: #FFC200; transform-origin: 224.56px 114.67px;" id="elwnl8gi2t8gc" class="animable"></rect><rect x="198.93" y="136.22" width="0.84" height="2.51" style="fill: #FFC200; transform-origin: 199.35px 137.475px;" id="elef33wg3v1m4" class="animable"></rect><path d="M95,302.28h-.83v-5H95Zm0-10h-.83v-5H95Zm91.27-2.57a13.51,13.51,0,0,1-2.91-.32l.18-.81a13.12,13.12,0,0,0,4.84.12l.13.82A13.91,13.91,0,0,1,186.25,289.66Zm-51.54,0-.05-.84a12.71,12.71,0,0,0,4.68-1.21l.36.75A13.51,13.51,0,0,1,134.71,289.63ZM129.6,289a13.49,13.49,0,0,1-4.49-2.53l.54-.64a12.66,12.66,0,0,0,4.21,2.38Zm63.72-1.31-.44-.71a12.77,12.77,0,0,0,3.56-3.27l.68.5A13.56,13.56,0,0,1,193.32,287.66Zm-14.71-.37a13.56,13.56,0,0,1-3.62-3.66l.7-.47a12.65,12.65,0,0,0,3.4,3.44Zm-34.78-2-.61-.56a12.72,12.72,0,0,0,2.52-4.13l.79.29A13.51,13.51,0,0,1,143.83,285.26Zm-21.94-2.84a13.35,13.35,0,0,1-1.48-4.94l.83-.08a12.55,12.55,0,0,0,1.39,4.63ZM95,282.18h-.83v-5H95Zm104.36-2.65-.81-.21a13.13,13.13,0,0,0,.4-3.18v-1.71h.84v1.71A13.82,13.82,0,0,1,199.34,279.53ZM173,278.87a13.82,13.82,0,0,1-.28-2.73v-2.36h.84v2.36a12.93,12.93,0,0,0,.26,2.56Zm-25.64-3.08h-.83v-5h.83Zm-26.19-3.37h-.84v-5h.84ZM95,272.13h-.83v-5H95Zm104.79-2.72h-.84v-5h.84Zm-26.2-.66h-.84v-3.54a11.32,11.32,0,0,0-.08-1.43l.83-.1a13.08,13.08,0,0,1,.09,1.53Zm-26.2-3h-.83v-.53a13.52,13.52,0,0,1,.78-4.55l.79.28a12.62,12.62,0,0,0-.74,4.27Zm-27.32-3.26a12.57,12.57,0,0,0-1.93-4.44l.69-.47a13.3,13.3,0,0,1,2,4.73Zm-24.71-.28-.81-.2a13.4,13.4,0,0,1,2.16-4.68l.67.49A12.81,12.81,0,0,0,95.34,262.2Zm104.43-2.85h-.84v-5h.84Zm-28.57-.18a12.73,12.73,0,0,0-3.07-3.74l.53-.64a13.54,13.54,0,0,1,3.28,4Zm-20.62-2.38-.63-.56a13.48,13.48,0,0,1,4.1-3.13l.37.75A12.5,12.5,0,0,0,150.58,256.79Zm-35.9-2.14a12.52,12.52,0,0,0-4.46-1.86l.17-.82a13.33,13.33,0,0,1,4.75,2Zm-13.8-.15-.44-.71a13.2,13.2,0,0,1,4.8-1.88l.15.83A12.53,12.53,0,0,0,100.88,254.5Zm63-1.38a12.6,12.6,0,0,0-3.82-.59c-.37,0-.66,0-1,0l-.06-.84c.34,0,.69,0,1,0h0a13.73,13.73,0,0,1,4.08.62Zm35.89-3.82h-.84v-5h.84Zm0-10.05h-.84v-5h.84Zm0-10.05h-.84v-5h.84Zm0-10h-.84v-5h.84Zm0-10.05h-.84v-5h.84Zm0-10.06h-.84v-5h.84Zm0-10h-.84v-5h.84Zm0-10.05h-.84v-5h.84Zm0-10.05h-.84v-5h.84Zm0-10h-.84v-5h.84Zm0-10.05h-.84v-5h.84Z" style="fill: #FFC200; transform-origin: 146.98px 223.115px;" id="elpd3g56orp6" class="animable"></path><rect x="94.15" y="307.41" width="0.84" height="2.51" style="fill: #FFC200; transform-origin: 94.57px 308.665px;" id="elc8mkzcp54m8" class="animable"></rect><path d="M197.46,122.19a1.53,1.53,0,0,1-1.06-.44l-5.24-5.24a1.51,1.51,0,0,1,0-2.12,1.49,1.49,0,0,1,2.12,0l4.18,4.18,7.95-7.95a1.5,1.5,0,0,1,2.12,2.12l-9,9A1.49,1.49,0,0,1,197.46,122.19Z" style="fill: rgb(255, 255, 255); transform-origin: 199.329px 116.204px;" id="elz3fptldw5bp" class="animable"></path><path d="M385.5,152.11c-1,5-3.18,15,.3,18.35,0,0-1.36,5-10.59,5-10.16,0-4.86-5-4.86-5,5.55-1.32,5.4-5.43,4.44-9.29Z" style="fill: rgb(229, 138, 123); transform-origin: 377.384px 163.785px;" id="elqudylxrrvp" class="animable"></path><path d="M365.28,172.17c0-.75,1.14-1.52,2.8-2.12.89-.33,1.76-1.58,3.11-1.81,1-.17,2.29.69,3.57.6,1.07-.08,2.19-1.12,3.43-1.13s2.24,1,3.46,1.07c.76,0,1.52-.92,2.16-.86s1.33,1.15,1.94,1.26c.81.14,1.72-.67,2.27-.49.88.28,1,1.47,1.39,1.79,1.12.91,2,1.77,1,1.93-2.47.39-2.57-1-5.07-1s-2.5,1-5,.95-2.49-1-5-1-2.46.69-5,.95A13.15,13.15,0,0,1,365.28,172.17Z" style="fill: #FFC200; transform-origin: 378.063px 170.1px;" id="elim7eesjukye" class="animable"></path><g id="elr32zwhd3uf"><g style="opacity: 0.6; transform-origin: 378.063px 170.1px;" class="animable" id="el9pjr7oghif5"><path d="M365.28,172.17c0-.75,1.14-1.52,2.8-2.12.89-.33,1.76-1.58,3.11-1.81,1-.17,2.29.69,3.57.6,1.07-.08,2.19-1.12,3.43-1.13s2.24,1,3.46,1.07c.76,0,1.52-.92,2.16-.86s1.33,1.15,1.94,1.26c.81.14,1.72-.67,2.27-.49.88.28,1,1.47,1.39,1.79,1.12.91,2,1.77,1,1.93-2.47.39-2.57-1-5.07-1s-2.5,1-5,.95-2.49-1-5-1-2.46.69-5,.95A13.15,13.15,0,0,1,365.28,172.17Z" id="eljm7f1kgpwlh" class="animable" style="transform-origin: 378.063px 170.1px;"></path></g></g><path d="M403.66,181.23c1.3,2.75,2.32,5.38,3.35,8.12s1.86,5.5,2.66,8.29a87.18,87.18,0,0,1,2,8.56c.24,1.45.49,2.9.65,4.39.1.73.19,1.47.24,2.22l.17,2.3a14.15,14.15,0,0,1-1,5.56,31.72,31.72,0,0,1-2.05,4.3,62.78,62.78,0,0,1-5,7.36A111.37,111.37,0,0,1,393,245l-3.12-2.88c1.65-2.18,3.34-4.42,4.92-6.68s3.16-4.52,4.59-6.83a66.12,66.12,0,0,0,3.88-7,25,25,0,0,0,1.34-3.41,7.62,7.62,0,0,0,.4-2.69l-.25-1.89c-.07-.65-.18-1.3-.31-2-.21-1.3-.5-2.61-.79-3.91s-.62-2.6-1-3.9-.72-2.6-1.12-3.89c-.79-2.58-1.7-5.15-2.64-7.69s-2-5.12-3-7.49Z" style="fill: rgb(229, 138, 123); transform-origin: 401.307px 213.115px;" id="el2og0g1fi4ym" class="animable"></path><path d="M400.25,172.37c3.48.76,7.19,13.28,7.19,13.28l-13.7,8.74s-4.3-10-2.64-14.36C392.84,175.53,396.14,171.47,400.25,172.37Z" style="fill: #FFC200; transform-origin: 399.079px 183.317px;" id="el1xsxy91zegd" class="animable"></path><g id="elzz3mv0s9gx"><path d="M400.25,172.37c3.48.76,7.19,13.28,7.19,13.28l-13.7,8.74s-4.3-10-2.64-14.36C392.84,175.53,396.14,171.47,400.25,172.37Z" style="fill: rgb(255, 255, 255); opacity: 0.6; transform-origin: 399.079px 183.317px;" class="animable" id="elg7lanej2chb"></path></g><g id="ele6du5sumzos"><path d="M398.39,176.63l-4.68,17.68,0,.08,5.48-3.5Z" style="fill: #FFC200; opacity: 0.28; transform-origin: 396.45px 185.51px;" class="animable" id="eleyr96sc1iee"></path></g><path d="M356.19,172.61s-4,1.41,4,50.55h34c-.57-13.84-.59-22.38,6-50.79a101.12,101.12,0,0,0-14.45-1.91,110.53,110.53,0,0,0-15.45,0C363.72,171.07,356.19,172.61,356.19,172.61Z" style="fill: #FFC200; transform-origin: 377.69px 196.675px;" id="el81itj3e6048" class="animable"></path><g id="elf77b3n68l6n"><path d="M356.19,172.61s-4,1.41,4,50.55h34c-.57-13.84-.59-22.38,6-50.79a101.12,101.12,0,0,0-14.45-1.91,110.53,110.53,0,0,0-15.45,0C363.72,171.07,356.19,172.61,356.19,172.61Z" style="fill: rgb(255, 255, 255); opacity: 0.6; transform-origin: 377.69px 196.675px;" class="animable" id="elamj8fbt2hcu"></path></g><path d="M391.5,241l-8.1-2.44,3.38,7.82s5.35.52,7.28-2.38Z" style="fill: rgb(229, 138, 123); transform-origin: 388.73px 242.488px;" id="elkl4125scul8" class="animable"></path><polygon points="376.84 241.14 380.02 247.53 386.78 246.4 383.4 238.58 376.84 241.14" style="fill: rgb(229, 138, 123); transform-origin: 381.81px 243.055px;" id="ele5cjum5ewbb" class="animable"></polygon><polygon points="412.93 411.73 404.56 411.73 401.86 392.33 410.24 392.33 412.93 411.73" style="fill: rgb(229, 138, 123); transform-origin: 407.395px 402.03px;" id="el8hbkuszcaqe" class="animable"></polygon><polygon points="374.87 411.73 366.5 411.73 365.94 392.33 374.31 392.33 374.87 411.73" style="fill: rgb(229, 138, 123); transform-origin: 370.405px 402.03px;" id="eloqt6wzznyk" class="animable"></polygon><polygon points="365.94 392.34 366.23 402.33 374.61 402.33 374.32 392.34 365.94 392.34" style="fill: rgb(207, 111, 100); transform-origin: 370.275px 397.335px;" id="elkto9fbogshf" class="animable"></polygon><polygon points="410.24 392.34 401.86 392.34 403.25 402.33 411.63 402.33 410.24 392.34" style="fill: rgb(207, 111, 100); transform-origin: 406.745px 397.335px;" id="elpjwy0tobro" class="animable"></polygon><path d="M369.18,223.16s4.86,57.5,9.91,89.9c4.07,26.17,22.14,87.34,22.14,87.34h11.42s-9.41-59.08-11.48-85c-5.23-65.5,3.94-77.09-6.95-92.28Z" style="fill: #FFC200; transform-origin: 390.915px 311.76px;" id="el17cmqouqihx" class="animable"></path><g id="elhmu8pp9drbv"><path d="M369.18,223.16s4.86,57.5,9.91,89.9c4.07,26.17,22.14,87.34,22.14,87.34h11.42s-9.41-59.08-11.48-85c-5.23-65.5,3.94-77.09-6.95-92.28Z" style="opacity: 0.6; transform-origin: 390.915px 311.76px;" class="animable" id="elgbjlp44nsms"></path></g><g id="elebxgczz3huu"><path d="M379.56,245.78s-4.68,14.58-4.61,35.61c.81,7.11,1.67,14.17,2.55,20.71C380.18,296,385.11,278.22,379.56,245.78Z" style="opacity: 0.4; transform-origin: 378.519px 273.94px;" class="animable" id="eldku90xpeqp9"></path></g><path d="M360.2,223.16s-6.61,64.53-6.06,90.07c.57,26.57,10.31,87.17,10.31,87.17h11.32s-1.79-59-.79-85.14c1.09-28.45,10.13-92.1,10.13-92.1Z" style="fill: #FFC200; transform-origin: 369.609px 311.78px;" id="elmmgeuv7l7vm" class="animable"></path><g id="elnpbw0tcmgu"><path d="M360.2,223.16s-6.61,64.53-6.06,90.07c.57,26.57,10.31,87.17,10.31,87.17h11.32s-1.79-59-.79-85.14c1.09-28.45,10.13-92.1,10.13-92.1Z" style="opacity: 0.6; transform-origin: 369.609px 311.78px;" class="animable" id="el1y1nt3hbuii"></path></g><path d="M401.17,412.22a2.44,2.44,0,0,1-1.6-.43,1.16,1.16,0,0,1-.33-1.06.69.69,0,0,1,.4-.56c1-.43,3.52,1.2,3.8,1.39a.2.2,0,0,1,.09.2.19.19,0,0,1-.15.16A10.18,10.18,0,0,1,401.17,412.22Zm-1.12-1.73a.51.51,0,0,0-.25.05c-.06,0-.14.08-.16.25a.72.72,0,0,0,.2.7c.42.39,1.52.44,3,.15A7.27,7.27,0,0,0,400.05,410.49Z" style="fill: #FFC200; transform-origin: 401.375px 411.163px;" id="el6u7tjp20pgv" class="animable"></path><path d="M403.33,411.93a.16.16,0,0,1-.09,0c-.8-.45-2.32-2.26-2.14-3.2a.7.7,0,0,1,.67-.56,1,1,0,0,1,.84.27c.91.8.92,3.22.92,3.32a.19.19,0,0,1-.1.17A.17.17,0,0,1,403.33,411.93Zm-1.42-3.4h-.09c-.25,0-.31.14-.33.23-.11.58.84,1.94,1.63,2.57a4.49,4.49,0,0,0-.77-2.63A.64.64,0,0,0,401.91,408.53Z" style="fill: #FFC200; transform-origin: 402.308px 410.048px;" id="elqsweg9ts86" class="animable"></path><path d="M363.06,412.22a3.19,3.19,0,0,1-2-.51,1.1,1.1,0,0,1-.35-1,.63.63,0,0,1,.33-.53c1-.56,4.37,1.15,4.74,1.34a.2.2,0,0,1,.11.21.19.19,0,0,1-.16.16A14.34,14.34,0,0,1,363.06,412.22Zm-1.49-1.73a.79.79,0,0,0-.37.07.26.26,0,0,0-.13.22.72.72,0,0,0,.23.63c.51.46,1.89.54,3.74.23A10.78,10.78,0,0,0,361.57,410.49Z" style="fill: #FFC200; transform-origin: 363.294px 411.149px;" id="elure96ewh5md" class="animable"></path><path d="M365.66,411.93l-.08,0c-1-.45-3-2.26-2.82-3.21,0-.22.2-.5.75-.56a1.46,1.46,0,0,1,1.1.35c1.05.87,1.24,3.13,1.25,3.22a.21.21,0,0,1-.08.18A.19.19,0,0,1,365.66,411.93Zm-2-3.4h-.12c-.36,0-.39.18-.4.23-.09.57,1.25,2,2.27,2.6a4.65,4.65,0,0,0-1.07-2.58A1.05,1.05,0,0,0,363.67,408.53Z" style="fill: #FFC200; transform-origin: 364.305px 410.043px;" id="elm43oohnvuq" class="animable"></path><path d="M365.37,143.3a.42.42,0,0,1-.35-.13,3.13,3.13,0,0,0-2.65-1.11.4.4,0,0,1-.45-.34.41.41,0,0,1,.33-.45,4,4,0,0,1,3.36,1.37.41.41,0,0,1,0,.56A.45.45,0,0,1,365.37,143.3Z" style="fill: rgb(38, 50, 56); transform-origin: 363.819px 142.279px;" id="elqbaovzfzo6i" class="animable"></path><path d="M363.63,148.27a18,18,0,0,1-1.77,4.61,2.91,2.91,0,0,0,2.45.11Z" style="fill: rgb(223, 87, 83); transform-origin: 363.085px 150.739px;" id="elvbz4dz2b2u" class="animable"></path><path d="M364.07,147c.09.67-.18,1.26-.62,1.32s-.87-.43-1-1.09.18-1.27.62-1.33S364,146.37,364.07,147Z" style="fill: rgb(38, 50, 56); transform-origin: 363.254px 147.11px;" id="eli1kl9z8ibqa" class="animable"></path><path d="M363.3,146l-1.67-.23S362.63,146.85,363.3,146Z" style="fill: rgb(38, 50, 56); transform-origin: 362.465px 146.048px;" id="elm5pfdrjtheh" class="animable"></path><path d="M404,410.76h9.41a.65.65,0,0,1,.66.57l1.08,7.45a1.35,1.35,0,0,1-1.35,1.49c-3.28-.06-4.86-.25-9-.25-2.54,0-6.26.26-9.78.26s-3.7-3.48-2.24-3.79c6.57-1.41,7.6-3.36,9.82-5.22A2.17,2.17,0,0,1,404,410.76Z" style="fill: rgb(38, 50, 56); transform-origin: 403.538px 415.52px;" id="elh7fvj9umiz" class="animable"></path><path d="M366.21,410.76h9.41a.67.67,0,0,1,.67.57l1.07,7.45a1.35,1.35,0,0,1-1.34,1.49c-3.28-.06-4.86-.25-9-.25-2.55,0-7.81.26-11.33.26s-3.7-3.48-2.24-3.79c6.56-1.41,9.15-3.36,11.36-5.22A2.21,2.21,0,0,1,366.21,410.76Z" style="fill: rgb(38, 50, 56); transform-origin: 364.978px 415.52px;" id="elth9sc0imdrp" class="animable"></path><g id="ellf36k8kevz"><path d="M355.21,180.55v.2c.1,5.59.87,15,3.19,30.82L363.14,193Z" style="fill: #FFC200; opacity: 0.28; transform-origin: 359.175px 196.06px;" class="animable" id="elymuvvzw6ned"></path></g><path d="M361.94,183.42c-.94,4.75-2,9.4-3.26,14.07s-2.54,9.31-4.2,14l-.65,1.75-.71,1.76a9,9,0,0,1-.57,1.21,7.42,7.42,0,0,1-1,1.44,6.63,6.63,0,0,1-3.41,2,7.51,7.51,0,0,1-3.34,0,11.17,11.17,0,0,1-2.43-.8,19.87,19.87,0,0,1-3.64-2.21,43.69,43.69,0,0,1-5.62-5.17c-.86-.9-1.66-1.84-2.44-2.79s-1.53-1.9-2.27-2.95l3.17-2.81a74.74,74.74,0,0,0,10.85,8.14,14.84,14.84,0,0,0,2.62,1.2c.77.29,1.46.21,1.19.16a1,1,0,0,0-.45.18s0,0,0,0l.14-.43.53-1.58.5-1.63c1.3-4.39,2.41-9,3.51-13.52l3.13-13.76Z" style="fill: rgb(229, 138, 123); transform-origin: 345.17px 200.759px;" id="elhovadc5azfs" class="animable"></path><path d="M328.66,206.15l-4.58-6.48,6.23-.48s3.52,4.06,2.28,7.32Z" style="fill: rgb(229, 138, 123); transform-origin: 328.467px 202.85px;" id="eloqkefaix3c9" class="animable"></path><polygon points="328.28 198 329.6 197.19 330.21 194.12 331.22 195.38 331.97 202.59 328.28 198" style="fill: rgb(229, 138, 123); transform-origin: 330.125px 198.355px;" id="elqa5t424tyag" class="animable"></polygon><path d="M386.22,141.52c.68,8.28,1.14,11.77-2.4,16.59-5.33,7.23-15.66,6.25-18.79-1.67-2.83-7.13-3.46-19.48,4.12-23.9A11.33,11.33,0,0,1,386.22,141.52Z" style="fill: rgb(229, 138, 123); transform-origin: 374.883px 146.981px;" id="el1r3d8u80zwz" class="animable"></path><path d="M367.71,131.61a7.79,7.79,0,0,0-4.57,8.94s6.51-2.81,6.77,7.62c.19,7.53-5,17.69-5,17.69s12.07,2.5,29.44-2.82C401.74,160.78,398.41,116.42,367.71,131.61Z" style="fill: rgb(38, 50, 56); transform-origin: 380.305px 147.448px;" id="elkjkphiod8wq" class="animable"></path><path d="M367.09,136.22c-1.18,2.84-.87,8.46,3.78,7.86s3.29-5.29,3.29-5.29Z" style="fill: rgb(38, 50, 56); transform-origin: 370.426px 140.172px;" id="el44o0m340yno" class="animable"></path><path d="M372.27,147.44a6.13,6.13,0,0,1-1.63,4.35c-1.46,1.54-3.29.5-3.79-1.46-.46-1.75-.25-4.68,1.66-5.5A2.73,2.73,0,0,1,372.27,147.44Z" style="fill: rgb(229, 138, 123); transform-origin: 369.458px 148.58px;" id="el44nrtchd1yf" class="animable"></path><polygon points="413.5 400.77 400.45 400.77 399.06 396.22 413.95 396.57 413.5 400.77" style="fill: #FFC200; transform-origin: 406.505px 398.495px;" id="elhbl2epb0kze" class="animable"></polygon><path d="M390.1,225H391c.19,0,.33-.09.31-.21l-.43-4c0-.11-.17-.21-.36-.21h-.92c-.18,0-.32.1-.31.21l.43,4C389.76,224.93,389.92,225,390.1,225Z" style="fill: #FFC200; transform-origin: 390.301px 222.79px;" id="elaocmnh5ntpc" class="animable"></path><path d="M367.74,225h.92c.18,0,.32-.09.31-.21l-.43-4c0-.11-.18-.21-.36-.21h-.92c-.19,0-.33.1-.31.21l.43,4C367.39,224.93,367.55,225,367.74,225Z" style="fill: #FFC200; transform-origin: 367.959px 222.79px;" id="elzm5iiq9tlll" class="animable"></path><polygon points="376.64 400.77 363.58 400.77 362.64 396.88 377.13 396.22 376.64 400.77" style="fill: #FFC200; transform-origin: 369.885px 398.495px;" id="els07vmpklqu" class="animable"></polygon><path d="M394.73,221.17l1.53,3c.12.24-.16.48-.55.48H360c-.31,0-.56-.15-.58-.34l-.31-3c0-.21.25-.39.58-.39h34.45A.63.63,0,0,1,394.73,221.17Z" style="fill: #FFC200; transform-origin: 377.699px 222.782px;" id="eltchdvhf8jce" class="animable"></path><g id="elcalh7g0cw5"><path d="M394.73,221.17l1.53,3c.12.24-.16.48-.55.48H360c-.31,0-.56-.15-.58-.34l-.31-3c0-.21.25-.39.58-.39h34.45A.63.63,0,0,1,394.73,221.17Z" style="opacity: 0.1; transform-origin: 377.699px 222.782px;" class="animable" id="el1ovusgldve4"></path></g><g id="el6b5ss4q8wpm"><path d="M390.1,225H391c.19,0,.33-.09.31-.21l-.43-4c0-.11-.17-.21-.36-.21h-.92c-.18,0-.32.1-.31.21l.43,4C389.76,224.93,389.92,225,390.1,225Z" style="opacity: 0.6; transform-origin: 390.301px 222.79px;" class="animable" id="elluqh2hwxb4"></path></g><g id="elxgk9nt3pwbt"><path d="M367.74,225h.92c.18,0,.32-.09.31-.21l-.43-4c0-.11-.18-.21-.36-.21h-.92c-.19,0-.33.1-.31.21l.43,4C367.39,224.93,367.55,225,367.74,225Z" style="opacity: 0.6; transform-origin: 367.959px 222.79px;" class="animable" id="elbs5wd6c3fbh"></path></g><path d="M356.19,172.61c-3.45.88-5.86,15.09-5.86,15.09l13.32,9.05S369,179.83,366.31,176C363.54,172.08,361.23,171.33,356.19,172.61Z" style="fill: #FFC200; transform-origin: 358.698px 184.393px;" id="ellnwgh49nwl" class="animable"></path><g id="elfkog6hqo5fa"><path d="M356.19,172.61c-3.45.88-5.86,15.09-5.86,15.09l13.32,9.05S369,179.83,366.31,176C363.54,172.08,361.23,171.33,356.19,172.61Z" style="fill: rgb(255, 255, 255); opacity: 0.6; transform-origin: 358.698px 184.393px;" class="animable" id="eldywv98iw9s6"></path></g></g><g id="freepik--plant-1--inject-170" class="animable animator-hidden" style="transform-origin: 145.309px 371.501px;"><path d="M167.26,355.83a.34.34,0,0,0,0-.1c.28-1.61.52-3.23.72-4.87,2.83,3.15,5.29,3.95,7.05,3.95a5,5,0,0,0,.56,0c3.45-.34,6.36-3.72,7.8-9a.76.76,0,0,0-.1-.62.94.94,0,0,0-.53-.39,17.13,17.13,0,0,0-14.43,2.55c.12-1.54.19-3.08.21-4.63a10,10,0,0,0,1.69.15c5.7,0,9.23-5.07,9.4-5.32a.7.7,0,0,0,.06-.66.9.9,0,0,0-.52-.51c-3.56-1.34-6.45-1.46-8.58-.34a6.36,6.36,0,0,0-2.93,3.39,22.27,22.27,0,0,0-16.42-12.65.66.66,0,0,0-.81.7c.36,5.17,1.32,11.48,5.58,14.5a9.79,9.79,0,0,0,5.8,1.71,19.42,19.42,0,0,0,5.21-.83,83,83,0,0,1-1,11c-2.37-2.69-8.4-8.67-16.63-10.73a.66.66,0,0,0-.85.54c-.61,4.45.45,8.06,3.05,10.44,2.16,2,5.26,3,9,3a26,26,0,0,0,4.94-.52c-.56,3.05-1.25,6-2,8.88-2.59-2.06-10.08-7.27-17.22-5.1a.65.65,0,0,0-.41.4.74.74,0,0,0,.06.61c2.64,4.92,5.28,7.65,8.29,8.6a8.21,8.21,0,0,0,2.42.37,12.46,12.46,0,0,0,6-1.83c-1.13,3.78-2.37,7.3-3.59,10.44a16.72,16.72,0,0,0-15.47-4,.65.65,0,0,0-.49.8,10.77,10.77,0,0,0,6.34,7.27,9.34,9.34,0,0,0,3.57.71,9.5,9.5,0,0,0,4.62-1.24,119.66,119.66,0,0,1-5.39,11.41.82.82,0,0,0,.33,1.05.8.8,0,0,0,.44.13.65.65,0,0,0,.58-.32,132.29,132.29,0,0,0,6.45-14,1.17,1.17,0,0,0,.09-.24q.56-1.41,1.11-2.91c2.41,2.78,5.34,4.32,8.28,4.32.32,0,.63,0,.95,0a7.91,7.91,0,0,0,6.9-6,.86.86,0,0,0-.46-.9,16,16,0,0,0-14.53-.57c.79-2.29,1.56-4.72,2.27-7.24a.67.67,0,0,0,.1-.34h0c.19-.71.39-1.42.57-2.15,2.89,3.14,5.56,4.68,8.13,4.68h0c3.12,0,6-2.31,8.77-7a.82.82,0,0,0-.29-1c-5.81-4-12.76-1.27-15.86.33q.66-2.81,1.16-5.72Z" style="fill: #FFC200; transform-origin: 163.258px 360.926px;" id="elb6g3exskp1" class="animable"></path><g id="eldgb5mlxbq1m"><path d="M167.26,355.83a.34.34,0,0,0,0-.1c.28-1.61.52-3.23.72-4.87,2.83,3.15,5.29,3.95,7.05,3.95a5,5,0,0,0,.56,0c3.45-.34,6.36-3.72,7.8-9a.76.76,0,0,0-.1-.62.94.94,0,0,0-.53-.39,17.13,17.13,0,0,0-14.43,2.55c.12-1.54.19-3.08.21-4.63a10,10,0,0,0,1.69.15c5.7,0,9.23-5.07,9.4-5.32a.7.7,0,0,0,.06-.66.9.9,0,0,0-.52-.51c-3.56-1.34-6.45-1.46-8.58-.34a6.36,6.36,0,0,0-2.93,3.39,22.27,22.27,0,0,0-16.42-12.65.66.66,0,0,0-.81.7c.36,5.17,1.32,11.48,5.58,14.5a9.79,9.79,0,0,0,5.8,1.71,19.42,19.42,0,0,0,5.21-.83,83,83,0,0,1-1,11c-2.37-2.69-8.4-8.67-16.63-10.73a.66.66,0,0,0-.85.54c-.61,4.45.45,8.06,3.05,10.44,2.16,2,5.26,3,9,3a26,26,0,0,0,4.94-.52c-.56,3.05-1.25,6-2,8.88-2.59-2.06-10.08-7.27-17.22-5.1a.65.65,0,0,0-.41.4.74.74,0,0,0,.06.61c2.64,4.92,5.28,7.65,8.29,8.6a8.21,8.21,0,0,0,2.42.37,12.46,12.46,0,0,0,6-1.83c-1.13,3.78-2.37,7.3-3.59,10.44a16.72,16.72,0,0,0-15.47-4,.65.65,0,0,0-.49.8,10.77,10.77,0,0,0,6.34,7.27,9.34,9.34,0,0,0,3.57.71,9.5,9.5,0,0,0,4.62-1.24,119.66,119.66,0,0,1-5.39,11.41.82.82,0,0,0,.33,1.05.8.8,0,0,0,.44.13.65.65,0,0,0,.58-.32,132.29,132.29,0,0,0,6.45-14,1.17,1.17,0,0,0,.09-.24q.56-1.41,1.11-2.91c2.41,2.78,5.34,4.32,8.28,4.32.32,0,.63,0,.95,0a7.91,7.91,0,0,0,6.9-6,.86.86,0,0,0-.46-.9,16,16,0,0,0-14.53-.57c.79-2.29,1.56-4.72,2.27-7.24a.67.67,0,0,0,.1-.34h0c.19-.71.39-1.42.57-2.15,2.89,3.14,5.56,4.68,8.13,4.68h0c3.12,0,6-2.31,8.77-7a.82.82,0,0,0-.29-1c-5.81-4-12.76-1.27-15.86.33q.66-2.81,1.16-5.72Z" style="opacity: 0.3; transform-origin: 163.258px 360.926px;" class="animable" id="elzogrwf96wa"></path></g><path d="M131,376.1a11.56,11.56,0,0,0,3.33.53,10.08,10.08,0,0,0,9.94-11.44.64.64,0,0,0-.7-.5,18.75,18.75,0,0,0-13.68,8.45c-1.26-3.46-2.44-7.14-3.43-10.95a11.34,11.34,0,0,0,5.32,1.57,7.19,7.19,0,0,0,2.27-.36c3.89-1.29,6.56-5.93,8.87-10.76a.65.65,0,0,0,0-.56.6.6,0,0,0-.4-.36c-7.61-2.17-14.53,5.27-16.71,7.93a91.4,91.4,0,0,1-1.76-9.78,27,27,0,0,0,4.89.48c4,0,7.16-1.06,9.3-3.15,2.54-2.47,3.41-6.17,2.53-10.69a.63.63,0,0,0-.81-.48c-8.12,2.16-13.85,8.2-16.19,11.06,0-.59-.1-1.18-.14-1.77a.69.69,0,0,0-.17-.4,7.54,7.54,0,0,0-3.82-5.27c-2.22-1.1-5.15-.94-8.69.47a.77.77,0,0,0-.45.47.68.68,0,0,0,.09.62c.18.24,4,5.26,9.72,5.26a9.8,9.8,0,0,0,1.84-.18q.18,2.44.51,4.89a17.89,17.89,0,0,0-14.89-2.43.74.74,0,0,0-.47.36.72.72,0,0,0-.07.57c1.77,5.38,4.92,8.77,8.44,9.06a3.7,3.7,0,0,0,.48,0c1.8,0,4.29-.82,7-4.14a103.56,103.56,0,0,0,2.6,11.09c-3.22-1.58-10.5-4.3-16.2-.16a.72.72,0,0,0-.22,1c3.07,4.73,6.09,7,9.23,7h.08c2.61,0,5.24-1.63,8-4.88,1.13,3.56,2.37,6.94,3.64,10.08-3.16-2.07-6.86-1.74-11.42,1a.82.82,0,0,0-.37.57.65.65,0,0,0,.24.58c.23.18,4.12,3.11,8.47,3.11a8.37,8.37,0,0,0,4.7-1.39,141.47,141.47,0,0,0,8.49,16.62.69.69,0,0,0,.6.32.77.77,0,0,0,.45-.14.79.79,0,0,0,.27-1.07A147.23,147.23,0,0,1,131,376.1Z" style="fill: #FFC200; transform-origin: 125.781px 367.77px;" id="elslu8bfoxw9" class="animable"></path><g id="elje6wl83uyd"><path d="M131,376.1a11.56,11.56,0,0,0,3.33.53,10.08,10.08,0,0,0,9.94-11.44.64.64,0,0,0-.7-.5,18.75,18.75,0,0,0-13.68,8.45c-1.26-3.46-2.44-7.14-3.43-10.95a11.34,11.34,0,0,0,5.32,1.57,7.19,7.19,0,0,0,2.27-.36c3.89-1.29,6.56-5.93,8.87-10.76a.65.65,0,0,0,0-.56.6.6,0,0,0-.4-.36c-7.61-2.17-14.53,5.27-16.71,7.93a91.4,91.4,0,0,1-1.76-9.78,27,27,0,0,0,4.89.48c4,0,7.16-1.06,9.3-3.15,2.54-2.47,3.41-6.17,2.53-10.69a.63.63,0,0,0-.81-.48c-8.12,2.16-13.85,8.2-16.19,11.06,0-.59-.1-1.18-.14-1.77a.69.69,0,0,0-.17-.4,7.54,7.54,0,0,0-3.82-5.27c-2.22-1.1-5.15-.94-8.69.47a.77.77,0,0,0-.45.47.68.68,0,0,0,.09.62c.18.24,4,5.26,9.72,5.26a9.8,9.8,0,0,0,1.84-.18q.18,2.44.51,4.89a17.89,17.89,0,0,0-14.89-2.43.74.74,0,0,0-.47.36.72.72,0,0,0-.07.57c1.77,5.38,4.92,8.77,8.44,9.06a3.7,3.7,0,0,0,.48,0c1.8,0,4.29-.82,7-4.14a103.56,103.56,0,0,0,2.6,11.09c-3.22-1.58-10.5-4.3-16.2-.16a.72.72,0,0,0-.22,1c3.07,4.73,6.09,7,9.23,7h.08c2.61,0,5.24-1.63,8-4.88,1.13,3.56,2.37,6.94,3.64,10.08-3.16-2.07-6.86-1.74-11.42,1a.82.82,0,0,0-.37.57.65.65,0,0,0,.24.58c.23.18,4.12,3.11,8.47,3.11a8.37,8.37,0,0,0,4.7-1.39,141.47,141.47,0,0,0,8.49,16.62.69.69,0,0,0,.6.32.77.77,0,0,0,.45-.14.79.79,0,0,0,.27-1.07A147.23,147.23,0,0,1,131,376.1Z" style="fill: rgb(255, 255, 255); opacity: 0.5; transform-origin: 125.781px 367.77px;" class="animable" id="elmwxvoq41tpr"></path></g><polygon points="158.5 416.24 134.68 416.24 132.88 391.61 160.3 391.61 158.5 416.24" style="fill: rgb(38, 50, 56); transform-origin: 146.59px 403.925px;" id="elifq34wsrbye" class="animable"></polygon><rect x="131.1" y="389.95" width="30.97" height="4.17" style="fill: rgb(38, 50, 56); transform-origin: 146.585px 392.035px;" id="elvu08by614zg" class="animable"></rect></g><g id="freepik--Mobile--inject-170" class="animable animator-active" style="transform-origin: 118.83px 343.405px;"><rect x="86.02" y="270.57" width="68.97" height="145.67" rx="6.99" style="fill: #FFC200; transform-origin: 120.505px 343.405px;" id="el1fr2qc0uoch" class="animable"></rect><g id="elu6s28496px"><rect x="86.02" y="270.57" width="68.97" height="145.67" rx="6.99" style="opacity: 0.6; transform-origin: 120.505px 343.405px;" class="animable" id="elbdu8hj0mw5h"></rect></g><rect x="82.67" y="270.57" width="68.97" height="145.67" rx="6.99" style="fill: #FFC200; transform-origin: 117.155px 343.405px;" id="el172l4i2a3cv" class="animable"></rect><g id="eler68dg7ri8h"><rect x="82.67" y="270.57" width="68.97" height="145.67" rx="6.99" style="opacity: 0.3; transform-origin: 117.155px 343.405px;" class="animable" id="elgo6u7uw9rcj"></rect></g><rect x="82.67" y="278.59" width="68.97" height="125.18" style="fill: rgb(250, 250, 250); transform-origin: 117.155px 341.18px;" id="elmeatzq0nx" class="animable"></rect><g id="el1dmx5jqdfv6"><rect x="82.71" y="278.33" width="68.97" height="125.18" style="fill: #FFC200; opacity: 0.18; transform-origin: 117.195px 340.92px;" class="animable" id="elhz6n2t26nd"></rect></g><g id="el3e4wn3g99p5"><polygon points="107.7 278.6 85.33 403.78 107.48 403.78 129.86 278.6 107.7 278.6" style="fill: rgb(255, 255, 255); opacity: 0.4; transform-origin: 107.595px 341.19px;" class="animable" id="elwf3us42wwgq"></polygon></g><g id="elq7298hc9jx"><polygon points="135.26 278.6 112.89 403.78 123.97 403.78 146.34 278.6 135.26 278.6" style="fill: rgb(255, 255, 255); opacity: 0.4; transform-origin: 129.615px 341.19px;" class="animable" id="elbgymlf3k3i"></polygon></g><path d="M120.27,409.57a3.11,3.11,0,1,1-3.11-3.11A3.11,3.11,0,0,1,120.27,409.57Z" style="fill: #FFC200; transform-origin: 117.16px 409.57px;" id="elodbe0d20x8" class="animable"></path><g id="eln1s69ak1si"><path d="M120.27,409.57a3.11,3.11,0,1,1-3.11-3.11A3.11,3.11,0,0,1,120.27,409.57Z" style="opacity: 0.5; transform-origin: 117.16px 409.57px;" class="animable" id="el4c85hrar89l"></path></g><circle cx="125.31" cy="274.26" r="1.1" style="fill: #FFC200; transform-origin: 125.31px 274.26px;" id="el2yic3xq3ddc" class="animable"></circle><path d="M120.82,275.36H109a1.1,1.1,0,0,1-1.1-1.1h0a1.11,1.11,0,0,1,1.1-1.1h11.81a1.11,1.11,0,0,1,1.1,1.1h0A1.1,1.1,0,0,1,120.82,275.36Z" style="fill: #FFC200; transform-origin: 114.905px 274.26px;" id="eldbzslp30qmi" class="animable"></path><g id="elxrijweedmz"><circle cx="125.31" cy="274.26" r="1.1" style="opacity: 0.5; transform-origin: 125.31px 274.26px;" class="animable" id="ele1d451pp2kh"></circle></g><g id="el78z5edpp9gx"><path d="M120.82,275.36H109a1.1,1.1,0,0,1-1.1-1.1h0a1.11,1.11,0,0,1,1.1-1.1h11.81a1.11,1.11,0,0,1,1.1,1.1h0A1.1,1.1,0,0,1,120.82,275.36Z" style="opacity: 0.5; transform-origin: 114.905px 274.26px;" class="animable" id="elg4coi83lcxa"></path></g></g><defs>     <filter id="active" height="200%">         <feMorphology in="SourceAlpha" result="DILATED" operator="dilate" radius="2"></feMorphology>                <feFlood flood-color="#32DFEC" flood-opacity="1" result="PINK"></feFlood>        <feComposite in="PINK" in2="DILATED" operator="in" result="OUTLINE"></feComposite>        <feMerge>            <feMergeNode in="OUTLINE"></feMergeNode>            <feMergeNode in="SourceGraphic"></feMergeNode>        </feMerge>    </filter>    <filter id="hover" height="200%">        <feMorphology in="SourceAlpha" result="DILATED" operator="dilate" radius="2"></feMorphology>                <feFlood flood-color="#ff0000" flood-opacity="0.5" result="PINK"></feFlood>        <feComposite in="PINK" in2="DILATED" operator="in" result="OUTLINE"></feComposite>        <feMerge>            <feMergeNode in="OUTLINE"></feMergeNode>            <feMergeNode in="SourceGraphic"></feMergeNode>        </feMerge>            <feColorMatrix type="matrix" values="0   0   0   0   0                0   1   0   0   0                0   0   0   0   0                0   0   0   1   0 "></feColorMatrix>    </filter></defs></svg>