<?xml version="1.0" standalone="no"?>
<!DOCTYPE svg PUBLIC "-//W3C//DTD SVG 20010904//EN"
 "http://www.w3.org/TR/2001/REC-SVG-20010904/DTD/svg10.dtd">
<svg version="1.0" xmlns="http://www.w3.org/2000/svg"
 width="1054.000000pt" height="309.000000pt" viewBox="0 0 1054.000000 309.000000"
 preserveAspectRatio="xMidYMid meet">

<g transform="translate(0.000000,309.000000) scale(0.100000,-0.100000)"
fill="#000000" stroke="none">
<path d="M2820 1405 l0 -525 135 0 135 0 2 178 3 177 50 0 50 0 90 -177 90
-178 154 0 c118 0 152 3 148 13 -2 6 -52 97 -111 201 -58 104 -106 192 -106
196 0 4 12 13 26 21 15 7 44 33 65 57 64 73 91 192 69 307 -16 87 -59 150
-129 192 -88 53 -158 63 -430 63 l-241 0 0 -525z m480 290 c38 -20 49 -37 56
-86 7 -55 -18 -106 -64 -133 -26 -14 -54 -19 -115 -20 l-82 -1 -3 119 c-1 66
0 126 3 134 4 12 21 13 92 8 48 -4 98 -13 113 -21z"/>
<path d="M4237 1699 c-117 -27 -237 -122 -283 -224 -73 -159 -46 -358 65 -478
73 -78 216 -136 339 -137 70 0 193 29 264 63 l67 32 -45 81 -45 82 -52 -21
c-72 -28 -216 -30 -270 -3 -34 17 -87 77 -87 98 0 5 116 8 259 8 l259 0 6 23
c10 39 6 160 -8 212 -26 97 -67 160 -140 210 -84 57 -221 80 -329 54z m204
-237 c16 -18 29 -43 29 -57 l0 -25 -140 0 c-77 0 -140 3 -140 8 0 19 43 74 72
93 26 16 45 19 92 16 51 -3 63 -8 87 -35z"/>
<path d="M7534 1696 c-167 -38 -251 -129 -242 -261 8 -129 98 -198 324 -250
125 -29 157 -45 152 -79 -9 -63 -221 -50 -360 20 -27 14 -52 22 -57 20 -10 -7
-111 -152 -111 -161 0 -11 164 -84 226 -100 181 -48 389 -18 493 71 58 50 81
99 81 175 0 149 -84 212 -363 274 -85 19 -124 42 -114 69 17 44 126 45 250 1
40 -14 79 -28 87 -31 13 -4 84 78 123 142 9 15 -77 62 -173 96 -73 26 -233 33
-316 14z"/>
<path d="M8677 1699 c-117 -27 -237 -122 -283 -224 -73 -159 -46 -358 65 -478
73 -78 216 -136 339 -137 70 0 193 29 264 63 l67 32 -45 81 -45 82 -52 -21
c-72 -28 -216 -30 -270 -3 -34 17 -87 77 -87 98 0 5 116 8 259 8 l259 0 6 23
c10 39 6 160 -8 212 -26 97 -67 160 -140 210 -84 57 -221 80 -329 54z m204
-237 c16 -18 29 -43 29 -57 l0 -25 -140 0 c-77 0 -140 3 -140 8 0 19 43 74 72
93 26 16 45 19 92 16 51 -3 63 -8 87 -35z"/>
<path d="M10027 1699 c-81 -19 -167 -79 -208 -146 -27 -44 -35 -33 -44 63 l-7
74 -114 0 -114 0 0 -405 0 -405 140 0 140 0 0 208 0 208 30 47 c61 97 166 140
288 119 45 -7 69 -8 73 -1 11 18 50 209 45 218 -16 26 -152 38 -229 20z"/>
<path d="M6142 1388 c4 -243 8 -313 21 -351 39 -120 109 -172 232 -172 87 0
149 23 220 81 l54 43 8 -52 8 -52 113 -3 112 -3 0 406 0 405 -135 0 -135 0 0
-258 c0 -282 -1 -286 -60 -317 -44 -23 -113 -20 -136 6 -18 19 -19 42 -22 295
l-3 274 -140 0 -141 0 4 -302z"/>
<path d="M5049 1495 c0 -8 -1 -44 -1 -80 0 -36 1 -72 1 -80 1 -13 50 -15 381
-15 l380 0 0 95 0 95 -380 0 c-331 0 -380 -2 -381 -15z"/>
</g>
</svg>
