<svg class="animated" id="freepik_stories-processing-thoughts" xmlns="http://www.w3.org/2000/svg" viewBox="0 0 500 500" version="1.1" xmlns:xlink="http://www.w3.org/1999/xlink" xmlns:svgjs="http://svgjs.com/svgjs"><style>svg#freepik_stories-processing-thoughts:not(.animated) .animable {opacity: 0;}svg#freepik_stories-processing-thoughts.animated #freepik--Shadow--inject-25 {animation: 1s 1 forwards cubic-bezier(.36,-0.01,.5,1.38) fadeIn;animation-delay: 0s;}svg#freepik_stories-processing-thoughts.animated #freepik--Process--inject-25 {animation: 1s 1 forwards cubic-bezier(.36,-0.01,.5,1.38) lightSpeedRight,1.5s Infinite  linear floating;animation-delay: 0s,1s;}svg#freepik_stories-processing-thoughts.animated #freepik--Plants--inject-25 {animation: 1s 1 forwards cubic-bezier(.36,-0.01,.5,1.38) zoomIn;animation-delay: 0s;}svg#freepik_stories-processing-thoughts.animated #freepik--Gears--inject-25 {animation: 1s 1 forwards cubic-bezier(.36,-0.01,.5,1.38) slideDown,1.5s Infinite  linear floating;animation-delay: 0s,1.5s;}svg#freepik_stories-processing-thoughts.animated #freepik--speech-bubbles--inject-25 {animation: 1s 1 forwards cubic-bezier(.36,-0.01,.5,1.38) lightSpeedLeft,1.5s Infinite  linear floating;animation-delay: 0s,3s;}svg#freepik_stories-processing-thoughts.animated #freepik--Character--inject-25 {animation: 1s 1 forwards cubic-bezier(.36,-0.01,.5,1.38) slideRight;animation-delay: 0s;}svg#freepik_stories-processing-thoughts.animated #freepik--Lines--inject-25 {animation: 1s 1 forwards cubic-bezier(.36,-0.01,.5,1.38) fadeIn;animation-delay: 0s;}svg#freepik_stories-processing-thoughts.animated #freepik--Icons--inject-25 {animation: 1s 1 forwards cubic-bezier(.36,-0.01,.5,1.38) lightSpeedLeft;animation-delay: 0s;}            @keyframes fadeIn {                0% {                    opacity: 0;                }                100% {                    opacity: 1;                }            }                    @keyframes lightSpeedRight {              from {                transform: translate3d(50%, 0, 0) skewX(-20deg);                opacity: 0;              }              60% {                transform: skewX(10deg);                opacity: 1;              }              80% {                transform: skewX(-2deg);              }              to {                opacity: 1;                transform: translate3d(0, 0, 0);              }            }                    @keyframes floating {                0% {                    opacity: 1;                    transform: translateY(0px);                }                50% {                    transform: translateY(-10px);                }                100% {                    opacity: 1;                    transform: translateY(0px);                }            }                    @keyframes zoomIn {                0% {                    opacity: 0;                    transform: scale(0.5);                }                100% {                    opacity: 1;                    transform: scale(1);                }            }                    @keyframes slideDown {                0% {                    opacity: 0;                    transform: translateY(-30px);                }                100% {                    opacity: 1;                    transform: translateY(0);                }            }                    @keyframes lightSpeedLeft {              from {                transform: translate3d(-50%, 0, 0) skewX(20deg);                opacity: 0;              }              60% {                transform: skewX(-10deg);                opacity: 1;              }              80% {                transform: skewX(2deg);              }              to {                opacity: 1;                transform: translate3d(0, 0, 0);              }            }                    @keyframes slideRight {                0% {                    opacity: 0;                    transform: translateX(30px);                }                100% {                    opacity: 1;                    transform: translateX(0);                }            }        .animator-hidden { display: none; }</style><g id="freepik--Shadow--inject-25" class="animable" style="transform-origin: 239.096px 402.792px;"><path id="freepik--shadow--inject-25" d="M361.84,343.7c-16.19-9.35-40.43-11.21-59.83-5.59-42.77-12.44-96.26-8.37-132,12.25-30.52,17.63-40.13,42.76-28.82,65.11a68.25,68.25,0,0,0-24.81,8c-20.22,11.68-20.22,30.61,0,42.28s53,11.67,73.23,0a35.43,35.43,0,0,0,11.13-9.56c42.54,12,95.27,7.76,130.61-12.64,27.43-15.84,38-37.74,31.61-58.23C382,373.56,381.66,355.14,361.84,343.7Z" style="fill: rgb(224, 224, 224); transform-origin: 239.096px 402.792px;" class="animable"></path></g><g id="freepik--Process--inject-25" class="animable" style="transform-origin: 92.1859px 105.651px;"><g id="freepik--Window--inject-25" class="animable" style="transform-origin: 92.1859px 105.651px;"><g id="freepik--dark-window--inject-25" class="animable" style="transform-origin: 92.1859px 105.651px;"><g id="eleepoxxy0h87"><path d="M40.09,175.88V154.51h0V101.84a8.46,8.46,0,0,1,1.25-4.17L36,94.59a8.68,8.68,0,0,0-1.28,4.2v13.65h0v60.41a2.92,2.92,0,0,0,1.61,2.56l5.14,3A2.9,2.9,0,0,1,40.09,175.88Z" style="fill: rgb(55, 71, 79); opacity: 0.9; transform-origin: 38.095px 136.5px;" class="animable" id="el2l77sjg5zcg"></path></g><g id="el9e0o6esuez5"><path d="M149.63,38a1.59,1.59,0,0,0-.06-.38.08.08,0,0,0,0-.08,1.41,1.41,0,0,0-.09-.38,2,2,0,0,0-.25-.53.69.69,0,0,0-.14-.22.67.67,0,0,0-.12-.16,1.43,1.43,0,0,0-.28-.27l0,0a2.12,2.12,0,0,0-.36-.21,3.07,3.07,0,0,0-2.82.36L44.28,94.56a9.33,9.33,0,0,0-4.2,7.28v74a2.8,2.8,0,0,0,4.19,2.52h0l6.87-4h0l94.31-54.18a9.3,9.3,0,0,0,4.2-7.28V38.57A4.58,4.58,0,0,0,149.63,38Z" style="fill: rgb(55, 71, 79); opacity: 0.8; transform-origin: 94.8651px 107.155px;" class="animable" id="elxy0tetampz"></path></g><g id="elv177fqfulf"><g style="opacity: 0.5; transform-origin: 92.11px 65.1256px;" class="animable" id="ellsfmxb51bsm"><path d="M145.45,36.15,44.29,94.57a8.53,8.53,0,0,0-3,3.11L36,94.59a8.37,8.37,0,0,1,2.92-3.06L140.09,33.11a3,3,0,0,1,3-.25c.76.46,4.24,2.44,5.13,2.92A3,3,0,0,0,145.45,36.15Z" style="fill: rgb(55, 71, 79); transform-origin: 92.11px 65.1256px;" id="elzhs5ui1inbe" class="animable"></path></g></g></g><path d="M62.16,104.54c1-.56,1.73-.64,2.27-.25s.81,1.27.81,2.64a7.59,7.59,0,0,1-.81,3.58,5.76,5.76,0,0,1-2.27,2.39L60.24,114v4.14a1,1,0,0,1-.1.41.61.61,0,0,1-.23.28l-1,.57a.18.18,0,0,1-.23,0,.41.41,0,0,1-.09-.3v-12a1,1,0,0,1,.09-.41.61.61,0,0,1,.23-.28Zm-1.92,7.15,1.87-1.08a3,3,0,0,0,1.09-1,3.09,3.09,0,0,0,.41-1.69c0-.7-.13-1.1-.41-1.21a1.31,1.31,0,0,0-1.09.24L60.24,108Z" style="fill: rgb(250, 250, 250); transform-origin: 61.9149px 111.745px;" id="elflou3kjia0e" class="animable"></path><path d="M69.38,106a2.56,2.56,0,0,0-1,1.09,4.34,4.34,0,0,0-.31,1.8v4.82a1,1,0,0,1-.1.41.61.61,0,0,1-.23.28l-.92.53a.18.18,0,0,1-.23,0,.45.45,0,0,1-.09-.3v-8.65a1,1,0,0,1,.09-.41.61.61,0,0,1,.23-.28l.92-.53a.18.18,0,0,1,.23,0,.41.41,0,0,1,.1.3v.43a6.06,6.06,0,0,1,.66-1.08,3.35,3.35,0,0,1,.94-.78l.54-.31a.18.18,0,0,1,.23,0,.45.45,0,0,1,.1.3v1.23a1.07,1.07,0,0,1-.1.41.6.6,0,0,1-.23.28Z" style="fill: rgb(250, 250, 250); transform-origin: 68.5197px 109.125px;" id="el375q8g2st0d" class="animable"></path><path d="M74.15,100.78a2.44,2.44,0,0,1,1.2-.38,1.4,1.4,0,0,1,.93.34,2.31,2.31,0,0,1,.63.93,4.41,4.41,0,0,1,.27,1.45c0,.1,0,.24,0,.42v1c0,.16,0,.31,0,.42a8.27,8.27,0,0,1-.28,1.76,8.37,8.37,0,0,1-.62,1.65,7.1,7.1,0,0,1-.93,1.4,4.61,4.61,0,0,1-1.2,1,2.36,2.36,0,0,1-1.2.37,1.43,1.43,0,0,1-.92-.32,2.19,2.19,0,0,1-.63-.94,4.85,4.85,0,0,1-.27-1.43c0-.11,0-.25,0-.41s0-.33,0-.51,0-.35,0-.52,0-.32,0-.44a7.58,7.58,0,0,1,.27-1.75A8.25,8.25,0,0,1,72,103.2a6.73,6.73,0,0,1,.92-1.41A4.55,4.55,0,0,1,74.15,100.78Zm1.46,3.33a2.43,2.43,0,0,0-.17-.85.81.81,0,0,0-.35-.41.65.65,0,0,0-.44,0,1.91,1.91,0,0,0-.5.21,2.63,2.63,0,0,0-.49.37,2.4,2.4,0,0,0-.45.56,3.7,3.7,0,0,0-.34.8,5.19,5.19,0,0,0-.18,1.06c0,.1,0,.23,0,.38s0,.31,0,.47,0,.32,0,.47,0,.27,0,.35a2.79,2.79,0,0,0,.18.86.81.81,0,0,0,.34.4.63.63,0,0,0,.45,0,2,2,0,0,0,.49-.2,2.8,2.8,0,0,0,.5-.37,2.39,2.39,0,0,0,.44-.57,3.11,3.11,0,0,0,.35-.8,4.61,4.61,0,0,0,.17-1.06,3.21,3.21,0,0,0,0-.36v-.94A3.57,3.57,0,0,0,75.61,104.11Z" style="fill: rgb(250, 250, 250); transform-origin: 74.155px 105.77px;" id="el3p03w2jtriq" class="animable"></path><path d="M79.83,101.86c0,.2,0,.42,0,.67s0,.46,0,.63a3.12,3.12,0,0,0,.17.89,1,1,0,0,0,.33.47.65.65,0,0,0,.45.11,1.09,1.09,0,0,0,.49-.16,3.05,3.05,0,0,0,.51-.37,2.71,2.71,0,0,0,.35-.41,2.88,2.88,0,0,0,.24-.46,5.15,5.15,0,0,0,.2-.52c.05-.14.11-.28.17-.43A.62.62,0,0,1,83,102l.92-.53a.18.18,0,0,1,.23,0,.34.34,0,0,1,.09.3,5.46,5.46,0,0,1-.18,1,7.22,7.22,0,0,1-1.43,2.76,5,5,0,0,1-1.33,1.12,2.11,2.11,0,0,1-1.19.34,1.45,1.45,0,0,1-.93-.39,2.4,2.4,0,0,1-.61-1,5.34,5.34,0,0,1-.27-1.47c0-.21,0-.46,0-.73s0-.53,0-.78a9,9,0,0,1,.88-3.5,6.57,6.57,0,0,1,.92-1.46,4.32,4.32,0,0,1,1.2-1,2.45,2.45,0,0,1,1.33-.41,1.5,1.5,0,0,1,.91.33,1.88,1.88,0,0,1,.52.77,2.89,2.89,0,0,1,.18.84.79.79,0,0,1-.09.41.61.61,0,0,1-.23.28l-.92.53a.17.17,0,0,1-.23,0l-.17-.24a1.64,1.64,0,0,0-.2-.29.7.7,0,0,0-.24-.17.59.59,0,0,0-.35,0,1.73,1.73,0,0,0-.51.22,2.21,2.21,0,0,0-.49.4,3.38,3.38,0,0,0-.45.63,4.19,4.19,0,0,0-.33.85A5.56,5.56,0,0,0,79.83,101.86Z" style="fill: rgb(250, 250, 250); transform-origin: 81.273px 101.62px;" id="elgugy6wnze2l" class="animable"></path><path d="M85.21,99.41a10.41,10.41,0,0,1,.21-2.08A9.74,9.74,0,0,1,86,95.39a7.62,7.62,0,0,1,.93-1.61,4.32,4.32,0,0,1,1.23-1.09,2,2,0,0,1,1.22-.33,1.46,1.46,0,0,1,.94.48A2.94,2.94,0,0,1,90.92,94a5.87,5.87,0,0,1,.22,1.69v.84a1,1,0,0,1-.1.4.55.55,0,0,1-.23.28l-4,2.33a1.68,1.68,0,0,0,.12.69.75.75,0,0,0,.3.37.68.68,0,0,0,.45.07,1.41,1.41,0,0,0,.52-.18,2.5,2.5,0,0,0,.63-.49,2.67,2.67,0,0,0,.39-.53c.09-.15.17-.26.22-.33a.73.73,0,0,1,.23-.19l1-.56a.19.19,0,0,1,.23,0,.36.36,0,0,1,.09.31,3.08,3.08,0,0,1-.19.77,5.66,5.66,0,0,1-.52,1.1,7,7,0,0,1-.86,1.17,4.83,4.83,0,0,1-1.19,1,2.15,2.15,0,0,1-1.23.35,1.38,1.38,0,0,1-.93-.49,3,3,0,0,1-.59-1.25A7.58,7.58,0,0,1,85.21,99.41Zm3-4.49a2.22,2.22,0,0,0-.6.5,3.66,3.66,0,0,0-.67,1.35,4.8,4.8,0,0,0-.12.65l2.73-1.57a4.89,4.89,0,0,0-.09-.53,1,1,0,0,0-.22-.43.56.56,0,0,0-.4-.18A1.21,1.21,0,0,0,88.17,94.92Z" style="fill: rgb(250, 250, 250); transform-origin: 88.1754px 97.7237px;" id="elcj7gs7twrq4" class="animable"></path><path d="M95.86,95.32a.39.39,0,0,0-.08-.29.47.47,0,0,0-.3-.07,3.35,3.35,0,0,0-.56.1l-.89.22a2.1,2.1,0,0,1-.88,0,1,1,0,0,1-.56-.33,1.54,1.54,0,0,1-.3-.67,5.83,5.83,0,0,1-.08-1,4.74,4.74,0,0,1,.17-1.19,5.42,5.42,0,0,1,.49-1.24,6,6,0,0,1,.78-1.13,4.3,4.3,0,0,1,1-.86,3.17,3.17,0,0,1,1.06-.41,1.43,1.43,0,0,1,.79.09,1,1,0,0,1,.51.47,1.76,1.76,0,0,1,.2.77.75.75,0,0,1-.09.4.72.72,0,0,1-.23.29l-.93.53c-.12.07-.22.09-.27.06l-.2-.12a.52.52,0,0,0-.29-.06,1.32,1.32,0,0,0-.55.21,2.47,2.47,0,0,0-.63.53,1.12,1.12,0,0,0-.28.76.59.59,0,0,0,.06.3.29.29,0,0,0,.26.11,2.57,2.57,0,0,0,.52-.07l.86-.21c.71-.18,1.22-.1,1.51.23a2.42,2.42,0,0,1,.44,1.61,4.36,4.36,0,0,1-.18,1.19,5.61,5.61,0,0,1-.52,1.25A5.85,5.85,0,0,1,95.88,98a4.67,4.67,0,0,1-1.13.9,2.79,2.79,0,0,1-1.12.42,1.46,1.46,0,0,1-.83-.13,1.12,1.12,0,0,1-.52-.53,1.92,1.92,0,0,1-.19-.8.79.79,0,0,1,.09-.41.75.75,0,0,1,.23-.28l.93-.54c.12-.07.21-.07.27,0s.13.11.21.18a.58.58,0,0,0,.32.11,1.22,1.22,0,0,0,.61-.23,2.69,2.69,0,0,0,.73-.58,2,2,0,0,0,.28-.37A.91.91,0,0,0,95.86,95.32Z" style="fill: rgb(250, 250, 250); transform-origin: 94.7438px 93.8817px;" id="elfm7tgkjdeu5" class="animable"></path><path d="M102.14,91.7a.39.39,0,0,0-.09-.29.38.38,0,0,0-.29-.07,3.27,3.27,0,0,0-.57.1l-.89.22a1.93,1.93,0,0,1-.88,0,1,1,0,0,1-.56-.32,1.42,1.42,0,0,1-.29-.68,4.69,4.69,0,0,1,.08-2.17,5.92,5.92,0,0,1,.49-1.24,5.7,5.7,0,0,1,.78-1.13,4,4,0,0,1,1-.86,3.06,3.06,0,0,1,1-.41,1.43,1.43,0,0,1,.79.09,1,1,0,0,1,.51.47,1.76,1.76,0,0,1,.2.77.75.75,0,0,1-.09.4.7.7,0,0,1-.23.29l-.93.53q-.18.11-.27.06l-.2-.12a.5.5,0,0,0-.29-.06,1.25,1.25,0,0,0-.54.21,2.19,2.19,0,0,0-.64.53,1.12,1.12,0,0,0-.28.76.51.51,0,0,0,.07.3c0,.07.12.1.25.11a2.48,2.48,0,0,0,.52-.07l.86-.21c.72-.18,1.22-.1,1.51.23a2.37,2.37,0,0,1,.44,1.61,4.36,4.36,0,0,1-.18,1.19,5.61,5.61,0,0,1-.52,1.25,5.85,5.85,0,0,1-.85,1.16,4.82,4.82,0,0,1-1.12.9,2.88,2.88,0,0,1-1.13.42,1.46,1.46,0,0,1-.83-.13,1.16,1.16,0,0,1-.52-.53,1.92,1.92,0,0,1-.19-.8.79.79,0,0,1,.09-.41.62.62,0,0,1,.24-.28l.92-.54c.13-.07.22-.08.28,0l.2.17a.52.52,0,0,0,.32.12,1.28,1.28,0,0,0,.62-.23,3.45,3.45,0,0,0,.37-.25,2.82,2.82,0,0,0,.36-.33,2.16,2.16,0,0,0,.27-.38A.86.86,0,0,0,102.14,91.7Z" style="fill: rgb(250, 250, 250); transform-origin: 100.935px 90.2567px;" id="elp4xigtbl1z" class="animable"></path><path d="M106.3,78.88a.18.18,0,0,1,.23,0,.43.43,0,0,1,.09.3v1.45a1,1,0,0,1-.09.41.67.67,0,0,1-.23.28l-1,.6a.18.18,0,0,1-.23,0,.41.41,0,0,1-.1-.3V80.17a1,1,0,0,1,.1-.41.61.61,0,0,1,.23-.28Zm.26,12.53a1,1,0,0,1-.09.41.75.75,0,0,1-.23.28l-.92.53a.18.18,0,0,1-.23,0,.41.41,0,0,1-.1-.3V83.66a1,1,0,0,1,.1-.41.55.55,0,0,1,.23-.28l.92-.53a.18.18,0,0,1,.23,0,.4.4,0,0,1,.09.29Z" style="fill: rgb(250, 250, 250); transform-origin: 105.795px 85.755px;" id="eltnzxj9enoog" class="animable"></path><path d="M114.11,87.05a1,1,0,0,1-.09.41.67.67,0,0,1-.23.28l-.92.53a.18.18,0,0,1-.23,0,.41.41,0,0,1-.09-.3V83.24a2.86,2.86,0,0,0-.34-1.59c-.23-.32-.57-.34-1-.07a2.49,2.49,0,0,0-1,1.25,5.23,5.23,0,0,0-.37,2v4.72a1,1,0,0,1-.09.41.61.61,0,0,1-.23.28l-.92.53a.17.17,0,0,1-.23,0,.4.4,0,0,1-.09-.29V81.79a1,1,0,0,1,.09-.41.67.67,0,0,1,.23-.28l.92-.53a.18.18,0,0,1,.23,0,.41.41,0,0,1,.09.3v.43a6.8,6.8,0,0,1,.74-1.23,3.38,3.38,0,0,1,1-.89,2.1,2.1,0,0,1,1.23-.36,1.16,1.16,0,0,1,.8.49,2.87,2.87,0,0,1,.43,1.13,9.71,9.71,0,0,1,.12,1.59Z" style="fill: rgb(250, 250, 250); transform-origin: 111.219px 84.8171px;" id="elw93zj6hy9vf" class="animable"></path><path d="M118.45,86.9a2.4,2.4,0,0,0,.52-.42,3.15,3.15,0,0,0,.49-.66,4.18,4.18,0,0,0,.35-.86,3.75,3.75,0,0,0,.14-1v-.69c-.06.15-.15.32-.25.51a5.73,5.73,0,0,1-.38.58,4.61,4.61,0,0,1-.52.58,3.77,3.77,0,0,1-.67.5,1.62,1.62,0,0,1-1.09.26,1.29,1.29,0,0,1-.83-.48,3,3,0,0,1-.55-1.08,6.23,6.23,0,0,1-.22-1.51c0-.19,0-.4,0-.65s0-.46,0-.65a10.18,10.18,0,0,1,.22-1.78,10,10,0,0,1,.55-1.7,6.22,6.22,0,0,1,.83-1.45,3.61,3.61,0,0,1,1.09-1,2.4,2.4,0,0,1,.67-.28,1.56,1.56,0,0,1,.52,0,1.08,1.08,0,0,1,.38.15,1.38,1.38,0,0,1,.25.21V75a.85.85,0,0,1,.1-.4.55.55,0,0,1,.23-.28l.91-.53a.17.17,0,0,1,.23,0,.38.38,0,0,1,.1.3v8.71a8.39,8.39,0,0,1-.82,3.86,5.67,5.67,0,0,1-2.25,2.44,3.12,3.12,0,0,1-1.13.41,1.69,1.69,0,0,1-.92-.15,1.44,1.44,0,0,1-.61-.59,2,2,0,0,1-.25-.94.73.73,0,0,1,.09-.4.58.58,0,0,1,.23-.29l.82-.47a.22.22,0,0,1,.29,0l.21.2a.65.65,0,0,0,.42.28A1.5,1.5,0,0,0,118.45,86.9ZM117,80.53a6,6,0,0,0,0,1c0,.78.21,1.26.48,1.46a.88.88,0,0,0,1,0,2.73,2.73,0,0,0,1-1.11,4.43,4.43,0,0,0,.46-1.81c0-.2,0-.44,0-.72a6.66,6.66,0,0,0,0-.69,1.7,1.7,0,0,0-.46-1.26.84.84,0,0,0-1,0,2.67,2.67,0,0,0-1,1.11A5,5,0,0,0,117,80.53Z" style="fill: rgb(250, 250, 250); transform-origin: 118.482px 81.6335px;" id="elh6kg1edbzs" class="animable"></path><path d="M124.49,78.74a.17.17,0,0,1,.22,0,.4.4,0,0,1,.1.3v1.82a.88.88,0,0,1-.1.41.6.6,0,0,1-.22.28l-1.13.65a.18.18,0,0,1-.23,0,.4.4,0,0,1-.09-.29V80.08a1,1,0,0,1,.09-.41.68.68,0,0,1,.23-.28Z" style="fill: rgb(250, 250, 250); transform-origin: 123.925px 80.4706px;" id="elzxd5mgrspr" class="animable"></path><path d="M127.63,76.92a.18.18,0,0,1,.23,0,.37.37,0,0,1,.1.29v1.82a.86.86,0,0,1-.1.41.55.55,0,0,1-.23.28l-1.12.65a.18.18,0,0,1-.23,0,.45.45,0,0,1-.09-.3V78.26a1,1,0,0,1,.09-.41.61.61,0,0,1,.23-.28Z" style="fill: rgb(250, 250, 250); transform-origin: 127.075px 78.645px;" id="el21hnby8wfhmg" class="animable"></path><path d="M130.78,75.1a.18.18,0,0,1,.23,0,.41.41,0,0,1,.1.3v1.82a1.07,1.07,0,0,1-.1.41.6.6,0,0,1-.23.28l-1.12.64a.18.18,0,0,1-.23,0,.41.41,0,0,1-.1-.3V76.44a1,1,0,0,1,.1-.41.6.6,0,0,1,.23-.28Z" style="fill: rgb(250, 250, 250); transform-origin: 130.22px 76.825px;" id="elepzvmpmvz5" class="animable"></path><g id="freepik--process--inject-25" class="animable" style="transform-origin: 94.87px 119.015px;"><path d="M54.63,151.35h0c-3.09,0-5.24-2.42-5.25-5.89v-3.79a11.88,11.88,0,0,1,5.54-9.58L131.8,87.68a6.55,6.55,0,0,1,3.31-1c3.09,0,5.25,2.43,5.25,5.9V96.4a11.88,11.88,0,0,1-5.54,9.58L57.94,150.39A6.55,6.55,0,0,1,54.63,151.35Zm80.48-63.23a5.3,5.3,0,0,0-2.61.76L55.62,133.29a10.41,10.41,0,0,0-4.84,8.38v3.79c0,2.69,1.55,4.49,3.85,4.49a5.2,5.2,0,0,0,2.61-.76l76.89-44.41A10.41,10.41,0,0,0,139,96.4V92.62C139,89.93,137.41,88.12,135.11,88.12Z" style="fill: rgb(255, 255, 255); transform-origin: 94.87px 119.015px;" id="elnnqpdjhhhg" class="animable"></path><path d="M137.34,92.62c0-2.57-1.81-3.61-4-2.33l-1.94,1.13-3.4,15,5.34-3.08a8.9,8.9,0,0,0,4-7Z" style="fill: rgb(250, 250, 250); transform-origin: 132.67px 98.0812px;" id="el8xqjowrjle4" class="animable"></path><polygon points="108.72 104.5 105.32 119.54 115 113.94 118.4 98.91 108.72 104.5" style="fill: rgb(250, 250, 250); transform-origin: 111.86px 109.225px;" id="eldegpl6v47n5" class="animable"></polygon><polygon points="120.04 97.96 116.65 113 126.33 107.4 129.73 92.36 120.04 97.96" style="fill: rgb(250, 250, 250); transform-origin: 123.19px 102.68px;" id="elu10yiblh4j" class="animable"></polygon><path d="M56.43,134.7a8.93,8.93,0,0,0-4,7v3.79c0,2.56,1.81,3.6,4,2.32l2-1.13,3.4-15Zm7-4-3.4,15,9.68-5.59,3.4-15Zm34-19.62-3.39,15,9.68-5.59,3.4-15ZM74.74,124.12l-3.39,15L81,133.57l3.4-15Zm11.33-6.54-3.4,15L92.35,127l3.4-15Z" style="fill: #88F944; transform-origin: 79.775px 126.924px;" id="elip1b7gzsjl" class="animable"></path><g id="el6e4xp0jrtnq"><g style="opacity: 0.1; transform-origin: 79.775px 126.924px;" class="animable" id="ellz44p17itf"><path d="M56.43,134.7a8.93,8.93,0,0,0-4,7v3.79c0,2.56,1.81,3.6,4,2.32l2-1.13,3.4-15Zm7-4-3.4,15,9.68-5.59,3.4-15Zm34-19.62-3.39,15,9.68-5.59,3.4-15ZM74.74,124.12l-3.39,15L81,133.57l3.4-15Zm11.33-6.54-3.4,15L92.35,127l3.4-15Z" style="fill: rgb(255, 255, 255); transform-origin: 79.775px 126.924px;" id="elq4rc5b367d" class="animable"></path></g></g></g></g></g><g id="freepik--Plants--inject-25" class="animable animator-hidden" style="transform-origin: 87.858px 411.731px;"><g id="freepik--plants--inject-25" class="animable" style="transform-origin: 87.858px 411.731px;"><path d="M100.3,445.94l8.69-5s5.16-21.47,3.1-40.79c-2.89-27.16-20.77-37.38-27.57-35S75.75,375.34,87,391.52C93.64,401.06,101.79,420.94,100.3,445.94Z" style="fill: #88F944; transform-origin: 95.7828px 405.378px;" id="el69wukec4h54" class="animable"></path><g id="elyntvv6ok5vh"><g style="opacity: 0.65; transform-origin: 95.7828px 405.378px;" class="animable" id="elb07fh6msiu"><path d="M100.3,445.94l8.69-5s5.16-21.47,3.1-40.79c-2.89-27.16-20.77-37.38-27.57-35S75.75,375.34,87,391.52C93.64,401.06,101.79,420.94,100.3,445.94Z" style="fill: rgb(255, 255, 255); transform-origin: 95.7828px 405.378px;" id="elyr7gylw35bd" class="animable"></path></g></g><path d="M103.9,435.39h-.08a.6.6,0,0,1-.48-.7c4.76-25.06-4-53.21-14.83-64.92a.6.6,0,0,1,0-.85.61.61,0,0,1,.85,0c11,11.93,20,40.54,15.13,66A.6.6,0,0,1,103.9,435.39Z" style="fill: rgb(255, 255, 255); transform-origin: 97.0894px 402.069px;" id="eleegw53ttaq" class="animable"></path><path d="M78.46,458.55c-1.3.66-4.75-2.29-5.71-3A12,12,0,0,1,69,450.75a11.3,11.3,0,0,1-.66-6.82,25.91,25.91,0,0,1,1-3.56c.39-1.15.78-2.29,1.18-3.44a8.92,8.92,0,0,0,.69-3.5C71,431,69,429.24,67.15,427.7c-2.05-1.7-4.17-3.92-4-6.8A10.18,10.18,0,0,1,66,415c1.46-1.67,3.17-3.13,4.51-4.9a7.06,7.06,0,0,0,1.67-4.4,7.33,7.33,0,0,0-.83-2.84c-.92-1.93-2.18-3.71-2.77-5.76s-.38-4.54,1.27-5.9c1.34-1.12,3.27-1.19,5-1a11.33,11.33,0,0,1,4.52,1.86c4.44,2.77,6.77,8.31,11.52,10.51a51,51,0,0,0,5.8,1.73c1.92.61,3.86,1.71,4.67,3.55,1.6,3.65-1.92,7.86-.86,11.7.93,3.39,4.11,4.83,5.78,7.93a7.12,7.12,0,0,1,.63,4.41,20.85,20.85,0,0,1-2.21,7.3,66,66,0,0,1-4.39,6.74Z" style="fill: #88F944; transform-origin: 85.0804px 424.382px;" id="elmscpkn5ojds" class="animable"></path><g id="elfvm7hmmzfkd"><g style="opacity: 0.3; transform-origin: 85.0804px 424.382px;" class="animable" id="el8gbd0gjngwi"><path d="M78.46,458.55c-1.3.66-4.75-2.29-5.71-3A12,12,0,0,1,69,450.75a11.3,11.3,0,0,1-.66-6.82,25.91,25.91,0,0,1,1-3.56c.39-1.15.78-2.29,1.18-3.44a8.92,8.92,0,0,0,.69-3.5C71,431,69,429.24,67.15,427.7c-2.05-1.7-4.17-3.92-4-6.8A10.18,10.18,0,0,1,66,415c1.46-1.67,3.17-3.13,4.51-4.9a7.06,7.06,0,0,0,1.67-4.4,7.33,7.33,0,0,0-.83-2.84c-.92-1.93-2.18-3.71-2.77-5.76s-.38-4.54,1.27-5.9c1.34-1.12,3.27-1.19,5-1a11.33,11.33,0,0,1,4.52,1.86c4.44,2.77,6.77,8.31,11.52,10.51a51,51,0,0,0,5.8,1.73c1.92.61,3.86,1.71,4.67,3.55,1.6,3.65-1.92,7.86-.86,11.7.93,3.39,4.11,4.83,5.78,7.93a7.12,7.12,0,0,1,.63,4.41,20.85,20.85,0,0,1-2.21,7.3,66,66,0,0,1-4.39,6.74Z" style="fill: rgb(255, 255, 255); transform-origin: 85.0804px 424.382px;" id="el0bsvex29dagk" class="animable"></path></g></g><path d="M91,452h0a.57.57,0,0,1-.53-.62c2.08-22.53-7.3-48-14.67-55.63a.57.57,0,0,1,0-.8.58.58,0,0,1,.81,0c7.52,7.79,17.09,33.68,15,56.53A.57.57,0,0,1,91,452Z" style="fill: rgb(255, 255, 255); transform-origin: 83.7689px 423.393px;" id="elo4mk2dalzxb" class="animable"></path><path d="M88.78,424.22a.45.45,0,0,1-.16,0,76.58,76.58,0,0,0-16.26-3.47.57.57,0,0,1-.51-.62.56.56,0,0,1,.62-.52A78.22,78.22,0,0,1,89,423.12a.57.57,0,0,1,.34.73A.57.57,0,0,1,88.78,424.22Z" style="fill: rgb(255, 255, 255); transform-origin: 80.6109px 421.917px;" id="elyq3kkvis8mh" class="animable"></path></g></g><g id="freepik--Gears--inject-25" class="animable animator-active" style="transform-origin: 382.167px 248.262px;"><g id="freepik--Gear--inject-25" class="animable" style="transform-origin: 338.832px 77.1004px;"><path d="M358.16,28.65a1.26,1.26,0,0,0-1.65.39l-6.9,10.37a2,2,0,0,1-.94.71l-.52-5.23a.77.77,0,0,0-.35-.63h0l-7-4.06h0a.75.75,0,0,0-.77.06l-9.32,5.38a2.56,2.56,0,0,0-1.12,1.75l-.93,10.37a3.49,3.49,0,0,1-1,1.94,56.44,56.44,0,0,0-5.18,5.49,1.8,1.8,0,0,1-1.83.52l-6-2.09a1.44,1.44,0,0,0-1.68.62l-6.86,11.88a1.45,1.45,0,0,0,.3,1.76l4.8,4.14a1.8,1.8,0,0,1,.47,1.85,56.18,56.18,0,0,0-2.16,7.23,3.48,3.48,0,0,1-1.19,1.81l-8.52,6a2.49,2.49,0,0,0-1,1.83V101.5a.78.78,0,0,0,.31.69h0l7,4.07h0a.76.76,0,0,0,.72,0l4.82-2.17a2,2,0,0,1-.15,1.13l-5.53,11.16a1.26,1.26,0,0,0,.49,1.63l7,4,0,0,6,3.47a1.27,1.27,0,0,0,1.66-.39l6.89-10.37a2.07,2.07,0,0,1,.94-.71l.52,5.23a.77.77,0,0,0,.35.63h0l7,4.07h0a.77.77,0,0,0,.77-.06l9.32-5.39a2.52,2.52,0,0,0,1.12-1.74l.93-10.38a3.46,3.46,0,0,1,1-1.93A55.25,55.25,0,0,0,355.22,99a1.81,1.81,0,0,1,1.84-.52l6,2.09a1.44,1.44,0,0,0,1.68-.62l6.86-11.88a1.46,1.46,0,0,0-.3-1.77l-4.8-4.14a1.78,1.78,0,0,1-.47-1.84,56.18,56.18,0,0,0,2.16-7.23,3.48,3.48,0,0,1,1.19-1.81l8.52-6a2.49,2.49,0,0,0,.95-1.83V52.68a.75.75,0,0,0-.33-.7h0l-7-4.06h0a.78.78,0,0,0-.73,0L366,50.1a2.16,2.16,0,0,1,.15-1.14l5.54-11.15a1.27,1.27,0,0,0-.5-1.63l-4.57-2.64h0ZM330,96.85c-1.81-1.88-2.87-4.84-2.87-8.7,0-9.85,6.92-21.84,15.45-26.76,3.16-1.82,6.09-2.42,8.53-2,1.56,1.66,2.43,4.44,2.43,8.28,0,9.86-6.92,21.84-15.45,26.77C334.93,96.28,332.19,97.06,330,96.85Z" style="fill: #88F944; transform-origin: 338.831px 77.0654px;" id="eldx44xytyxxh" class="animable"></path><g id="ele1g3mbpscb"><path d="M358.16,28.65a1.26,1.26,0,0,0-1.65.39l-6.9,10.37a2,2,0,0,1-.94.71l-.52-5.23a.77.77,0,0,0-.35-.63h0l-7-4.06h0a.75.75,0,0,0-.77.06l-9.32,5.38a2.56,2.56,0,0,0-1.12,1.75l-.93,10.37a3.49,3.49,0,0,1-1,1.94,56.44,56.44,0,0,0-5.18,5.49,1.8,1.8,0,0,1-1.83.52l-6-2.09a1.44,1.44,0,0,0-1.68.62l-6.86,11.88a1.45,1.45,0,0,0,.3,1.76l4.8,4.14a1.8,1.8,0,0,1,.47,1.85,56.18,56.18,0,0,0-2.16,7.23,3.48,3.48,0,0,1-1.19,1.81l-8.52,6a2.49,2.49,0,0,0-1,1.83V101.5a.78.78,0,0,0,.31.69h0l7,4.07h0a.76.76,0,0,0,.72,0l4.82-2.17a2,2,0,0,1-.15,1.13l-5.53,11.16a1.26,1.26,0,0,0,.49,1.63l7,4,0,0,6,3.47a1.27,1.27,0,0,0,1.66-.39l6.89-10.37a2.07,2.07,0,0,1,.94-.71l.52,5.23a.77.77,0,0,0,.35.63h0l7,4.07h0a.77.77,0,0,0,.77-.06l9.32-5.39a2.52,2.52,0,0,0,1.12-1.74l.93-10.38a3.46,3.46,0,0,1,1-1.93A55.25,55.25,0,0,0,355.22,99a1.81,1.81,0,0,1,1.84-.52l6,2.09a1.44,1.44,0,0,0,1.68-.62l6.86-11.88a1.46,1.46,0,0,0-.3-1.77l-4.8-4.14a1.78,1.78,0,0,1-.47-1.84,56.18,56.18,0,0,0,2.16-7.23,3.48,3.48,0,0,1,1.19-1.81l8.52-6a2.49,2.49,0,0,0,.95-1.83V52.68a.75.75,0,0,0-.33-.7h0l-7-4.06h0a.78.78,0,0,0-.73,0L366,50.1a2.16,2.16,0,0,1,.15-1.14l5.54-11.15a1.27,1.27,0,0,0-.5-1.63l-4.57-2.64h0ZM330,96.85c-1.81-1.88-2.87-4.84-2.87-8.7,0-9.85,6.92-21.84,15.45-26.76,3.16-1.82,6.09-2.42,8.53-2,1.56,1.66,2.43,4.44,2.43,8.28,0,9.86-6.92,21.84-15.45,26.77C334.93,96.28,332.19,97.06,330,96.85Z" style="fill: rgb(255, 255, 255); opacity: 0.3; transform-origin: 338.831px 77.0654px;" class="animable" id="elzkjg431db2s"></path></g><g id="el5wx0gkw6whf"><path d="M351.07,59.43c1.56,1.65,2.44,4.42,2.44,8.28,0,9.85-6.92,21.84-15.45,26.77-3.13,1.8-5.87,2.58-8.1,2.36,2.8,2.93,7.4,3.24,12.59.24C351.08,92.15,358,80.16,358,70.31,358,64.09,355.25,60.2,351.07,59.43Z" style="opacity: 0.1; transform-origin: 343.98px 79.3093px;" class="animable" id="el0u4adofwro7"></path></g><path d="M329.93,119.92l7,4.07h0a.45.45,0,0,1-.14-.1.85.85,0,0,1-.23-.54l-.91-9.06a1,1,0,0,0-.41-.73,1.1,1.1,0,0,0-.83-.15,18.27,18.27,0,0,1-4.49.46,2.1,2.1,0,0,0-.87.19l.52,5.23a.81.81,0,0,0,.35.63Zm-18.31-14.71-5.53,11.16a1.26,1.26,0,0,0,.49,1.63l7,4a1.26,1.26,0,0,1-.46-1.61l5.53-11.15a1.88,1.88,0,0,0,.15-.63l-7-4.05A1.71,1.71,0,0,1,311.62,105.21Zm18.25-68.64a2.3,2.3,0,0,0-.28.81l-.93,10.37a2.84,2.84,0,0,1-.28.92l7,4.06a2.83,2.83,0,0,0,.27-.91l.94-10.38a2.15,2.15,0,0,1,.27-.81Zm-9.19,21.15-7-4.06a1.39,1.39,0,0,0-.67.57l-6.86,11.88a1.44,1.44,0,0,0,0,1.38l7,4a1.43,1.43,0,0,1,0-1.32L320,58.29A1.41,1.41,0,0,1,320.68,57.72ZM306.4,93.42l-7-4.06a2.56,2.56,0,0,0-.5,1.37V101.5a.78.78,0,0,0,.31.69h0l7,4.07h0a.76.76,0,0,1-.34-.7V94.79A2.47,2.47,0,0,1,306.4,93.42Z" style="fill: #88F944; transform-origin: 317.914px 80.28px;" id="eleso7nc7ecx" class="animable"></path><g id="elbjuzhlfl6c9"><path d="M329.93,119.92l7,4.07h0a.45.45,0,0,1-.14-.1.85.85,0,0,1-.23-.54l-.91-9.06a1,1,0,0,0-.41-.73,1.1,1.1,0,0,0-.83-.15,18.27,18.27,0,0,1-4.49.46,2.1,2.1,0,0,0-.87.19l.52,5.23a.81.81,0,0,0,.35.63Zm-18.31-14.71-5.53,11.16a1.26,1.26,0,0,0,.49,1.63l7,4a1.26,1.26,0,0,1-.46-1.61l5.53-11.15a1.88,1.88,0,0,0,.15-.63l-7-4.05A1.71,1.71,0,0,1,311.62,105.21Zm18.25-68.64a2.3,2.3,0,0,0-.28.81l-.93,10.37a2.84,2.84,0,0,1-.28.92l7,4.06a2.83,2.83,0,0,0,.27-.91l.94-10.38a2.15,2.15,0,0,1,.27-.81Zm-9.19,21.15-7-4.06a1.39,1.39,0,0,0-.67.57l-6.86,11.88a1.44,1.44,0,0,0,0,1.38l7,4a1.43,1.43,0,0,1,0-1.32L320,58.29A1.41,1.41,0,0,1,320.68,57.72ZM306.4,93.42l-7-4.06a2.56,2.56,0,0,0-.5,1.37V101.5a.78.78,0,0,0,.31.69h0l7,4.07h0a.76.76,0,0,1-.34-.7V94.79A2.47,2.47,0,0,1,306.4,93.42Z" style="fill: rgb(255, 255, 255); opacity: 0.7; transform-origin: 317.914px 80.28px;" class="animable" id="el1lkbj6pem62"></path></g><path d="M348.14,116.8l.93-10.38a3.46,3.46,0,0,1,1-1.93A55.25,55.25,0,0,0,355.22,99a1.81,1.81,0,0,1,1.84-.52l6,2.09a1.44,1.44,0,0,0,1.68-.62l6.86-11.88a1.46,1.46,0,0,0-.3-1.77l-4.8-4.14a1.78,1.78,0,0,1-.47-1.84,56.18,56.18,0,0,0,2.16-7.23,3.48,3.48,0,0,1,1.19-1.81l8.52-6a2.49,2.49,0,0,0,.95-1.83V52.68a.7.7,0,0,0-1.06-.69l-8.3,3.74a1,1,0,0,1-1.38-.64A18.64,18.64,0,0,0,366.24,51a2.32,2.32,0,0,1-.13-2l5.54-11.15a1.27,1.27,0,0,0-.5-1.63l-6-3.46a1.25,1.25,0,0,0-1.65.38l-6.9,10.37a2.26,2.26,0,0,1-1.8.9,18.18,18.18,0,0,0-4.49.46,1,1,0,0,1-1.25-.88l-.91-9.06a.7.7,0,0,0-1.13-.58L337.7,39.7a2.47,2.47,0,0,0-1.11,1.74l-.94,10.38a3.46,3.46,0,0,1-1,1.93,57.62,57.62,0,0,0-5.18,5.49,1.8,1.8,0,0,1-1.83.52l-6-2.09a1.44,1.44,0,0,0-1.68.62l-6.86,11.88a1.46,1.46,0,0,0,.3,1.77l4.81,4.14a1.77,1.77,0,0,1,.46,1.84,56.18,56.18,0,0,0-2.16,7.23A3.42,3.42,0,0,1,315.36,87l-8.52,6a2.49,2.49,0,0,0-.95,1.83v10.77a.7.7,0,0,0,1.06.69l8.3-3.74a1,1,0,0,1,1.38.64,19.11,19.11,0,0,0,1.85,4.11,2.28,2.28,0,0,1,.13,2l-5.53,11.15a1.25,1.25,0,0,0,.49,1.63l6,3.47a1.27,1.27,0,0,0,1.66-.39l6.89-10.37a2.28,2.28,0,0,1,1.81-.9,18.27,18.27,0,0,0,4.49-.46,1,1,0,0,1,1.24.88l.91,9.06a.7.7,0,0,0,1.13.58l9.32-5.39A2.52,2.52,0,0,0,348.14,116.8Zm-5.59-19.72C334,102,327.1,98,327.1,88.15S334,66.31,342.55,61.39,358,60.45,358,70.31,351.09,92.15,342.55,97.08Z" style="fill: #88F944; transform-origin: 342.37px 79.1525px;" id="elxf51mqvziz" class="animable"></path><g id="elh5tgmxjumb9"><path d="M348.14,116.8l.93-10.38a3.46,3.46,0,0,1,1-1.93A55.25,55.25,0,0,0,355.22,99a1.81,1.81,0,0,1,1.84-.52l6,2.09a1.44,1.44,0,0,0,1.68-.62l6.86-11.88a1.46,1.46,0,0,0-.3-1.77l-4.8-4.14a1.78,1.78,0,0,1-.47-1.84,56.18,56.18,0,0,0,2.16-7.23,3.48,3.48,0,0,1,1.19-1.81l8.52-6a2.49,2.49,0,0,0,.95-1.83V52.68a.7.7,0,0,0-1.06-.69l-8.3,3.74a1,1,0,0,1-1.38-.64A18.64,18.64,0,0,0,366.24,51a2.32,2.32,0,0,1-.13-2l5.54-11.15a1.27,1.27,0,0,0-.5-1.63l-6-3.46a1.25,1.25,0,0,0-1.65.38l-6.9,10.37a2.26,2.26,0,0,1-1.8.9,18.18,18.18,0,0,0-4.49.46,1,1,0,0,1-1.25-.88l-.91-9.06a.7.7,0,0,0-1.13-.58L337.7,39.7a2.47,2.47,0,0,0-1.11,1.74l-.94,10.38a3.46,3.46,0,0,1-1,1.93,57.62,57.62,0,0,0-5.18,5.49,1.8,1.8,0,0,1-1.83.52l-6-2.09a1.44,1.44,0,0,0-1.68.62l-6.86,11.88a1.46,1.46,0,0,0,.3,1.77l4.81,4.14a1.77,1.77,0,0,1,.46,1.84,56.18,56.18,0,0,0-2.16,7.23A3.42,3.42,0,0,1,315.36,87l-8.52,6a2.49,2.49,0,0,0-.95,1.83v10.77a.7.7,0,0,0,1.06.69l8.3-3.74a1,1,0,0,1,1.38.64,19.11,19.11,0,0,0,1.85,4.11,2.28,2.28,0,0,1,.13,2l-5.53,11.15a1.25,1.25,0,0,0,.49,1.63l6,3.47a1.27,1.27,0,0,0,1.66-.39l6.89-10.37a2.28,2.28,0,0,1,1.81-.9,18.27,18.27,0,0,0,4.49-.46,1,1,0,0,1,1.24.88l.91,9.06a.7.7,0,0,0,1.13.58l9.32-5.39A2.52,2.52,0,0,0,348.14,116.8Zm-5.59-19.72C334,102,327.1,98,327.1,88.15S334,66.31,342.55,61.39,358,60.45,358,70.31,351.09,92.15,342.55,97.08Z" style="fill: rgb(255, 255, 255); opacity: 0.55; transform-origin: 342.37px 79.1525px;" class="animable" id="el4omxjeeafyw"></path></g><g id="elsuwph0v6tle"><path d="M368.09,55.09a1,1,0,0,0,1.38.64l8.3-3.74a.78.78,0,0,1,.73,0h0l-7-4.06h0a.78.78,0,0,0-.73,0L366,50.1a2.28,2.28,0,0,0,.28.88A18.64,18.64,0,0,1,368.09,55.09Zm-9.93-26.44a1.26,1.26,0,0,0-1.65.39l-6.9,10.37a2,2,0,0,1-.94.71l.39,3.83a1,1,0,0,0,1.25.88,18.18,18.18,0,0,1,4.49-.46,2.26,2.26,0,0,0,1.8-.9l6.9-10.37a1.25,1.25,0,0,1,1.65-.38l1.43.82h0Z" style="opacity: 0.1; transform-origin: 363.585px 42.1566px;" class="animable" id="elo04lmcbqsck"></path></g><g id="el57ktwil0d7j"><g style="opacity: 0.2; transform-origin: 342.37px 79.1466px;" class="animable" id="elutnzozi8ptb"><path d="M356.78,63.05a8.52,8.52,0,0,0-3.08-3.14c-3.06-1.76-7.1-1.38-11.37,1.09-8.65,5-15.68,17.17-15.68,27.15,0,4.94,1.69,8.63,4.75,10.4s7.1,1.38,11.38-1.08c8.64-5,15.68-17.18,15.68-27.16A14.47,14.47,0,0,0,356.78,63.05ZM358,70.31c0,9.85-6.92,21.84-15.46,26.77S327.1,98,327.1,88.15,334,66.31,342.55,61.39,358,60.45,358,70.31Z" style="fill: rgb(255, 255, 255); transform-origin: 342.559px 79.2325px;" id="elo08yqz5l8p" class="animable"></path><path d="M363.5,33.1l-6.9,10.37a2.26,2.26,0,0,1-1.8.9,18.18,18.18,0,0,0-4.49.46,1,1,0,0,1-1.25-.88l-.91-9.06a.7.7,0,0,0-1.13-.58L337.7,39.7a2.47,2.47,0,0,0-1.11,1.74l-.94,10.38a3.46,3.46,0,0,1-1,1.93,57.62,57.62,0,0,0-5.18,5.49,1.8,1.8,0,0,1-1.83.52l-6-2.09a1.44,1.44,0,0,0-1.68.62l-6.86,11.88a1.46,1.46,0,0,0,.3,1.77l4.81,4.14a1.77,1.77,0,0,1,.46,1.84,56.18,56.18,0,0,0-2.16,7.23A3.42,3.42,0,0,1,315.36,87l-8.52,6a2.49,2.49,0,0,0-.95,1.83v10.77a.7.7,0,0,0,1.06.69l8.3-3.74a1,1,0,0,1,1.38.64,19.11,19.11,0,0,0,1.85,4.11,2.28,2.28,0,0,1,.13,2l-5.53,11.15a1.25,1.25,0,0,0,.49,1.63l6,3.47a1.27,1.27,0,0,0,1.66-.39l6.89-10.37a2.28,2.28,0,0,1,1.81-.9,18.27,18.27,0,0,0,4.49-.46,1,1,0,0,1,1.24.88l.91,9.06a.7.7,0,0,0,1.13.58l9.32-5.39a2.52,2.52,0,0,0,1.12-1.74l.93-10.38a3.46,3.46,0,0,1,1-1.93A55.25,55.25,0,0,0,355.22,99a1.81,1.81,0,0,1,1.84-.52l6,2.09a1.44,1.44,0,0,0,1.68-.62l6.86-11.88a1.46,1.46,0,0,0-.3-1.77l-4.8-4.14a1.78,1.78,0,0,1-.47-1.84,56.18,56.18,0,0,0,2.16-7.23,3.48,3.48,0,0,1,1.19-1.81l8.52-6a2.49,2.49,0,0,0,.95-1.83V52.68a.7.7,0,0,0-1.06-.69l-8.3,3.74a1,1,0,0,1-1.38-.64A18.64,18.64,0,0,0,366.24,51a2.32,2.32,0,0,1-.13-2l5.53-11.15a1.25,1.25,0,0,0-.49-1.63l-6-3.46A1.25,1.25,0,0,0,363.5,33.1Zm1.42,0,6,3.47a.8.8,0,0,1,.3,1L365.7,48.76a2.78,2.78,0,0,0,.15,2.46,17.9,17.9,0,0,1,1.8,4,1.53,1.53,0,0,0,.81.94,1.44,1.44,0,0,0,1.2,0l8.3-3.74a.38.38,0,0,1,.32,0,.37.37,0,0,1,.1.3V63.45a2.1,2.1,0,0,1-.76,1.46l-8.52,6A3.92,3.92,0,0,0,367.72,73a53.84,53.84,0,0,1-2.14,7.17,2.24,2.24,0,0,0,.6,2.35l4.8,4.14a1,1,0,0,1,.2,1.19l-6.85,11.88a1,1,0,0,1-1.14.42l-6-2.09a2.26,2.26,0,0,0-2.34.66,55.8,55.8,0,0,1-5.14,5.44,3.8,3.8,0,0,0-1.11,2.23l-.94,10.38a2.09,2.09,0,0,1-.88,1.39l-9.33,5.38c-.13.08-.24.1-.31.06a.33.33,0,0,1-.13-.28l-.91-9.06a1.44,1.44,0,0,0-.59-1,1.46,1.46,0,0,0-1.21-.23,18.09,18.09,0,0,1-4.38.44,2.75,2.75,0,0,0-2.2,1.1l-6.9,10.37a.79.79,0,0,1-1,.25l-6-3.47a.79.79,0,0,1-.31-1L319,109.48a2.69,2.69,0,0,0-.15-2.46,18.1,18.1,0,0,1-1.8-4,1.52,1.52,0,0,0-.81-.94,1.48,1.48,0,0,0-1.2,0l-8.3,3.74a.35.35,0,0,1-.31,0,.31.31,0,0,1-.1-.3V94.79a2.09,2.09,0,0,1,.75-1.46l8.52-6A3.89,3.89,0,0,0,317,85.25a57,57,0,0,1,2.14-7.17,2.24,2.24,0,0,0-.6-2.35l-4.8-4.14a1,1,0,0,1-.2-1.19l6.86-11.88a1,1,0,0,1,1.13-.42l6,2.09a2.25,2.25,0,0,0,2.33-.66A55.8,55.8,0,0,1,335,54.09a3.88,3.88,0,0,0,1.12-2.23L337,41.48a2.1,2.1,0,0,1,.89-1.39l9.32-5.38c.13-.08.25-.1.31-.06a.33.33,0,0,1,.13.28L348.6,44a1.62,1.62,0,0,0,.2.62,1.44,1.44,0,0,0,1.6.66,18.14,18.14,0,0,1,4.38-.44,2.74,2.74,0,0,0,2.2-1.1l6.9-10.37A.79.79,0,0,1,364.92,33.11Z" style="fill: rgb(255, 255, 255); transform-origin: 342.37px 79.1466px;" id="el1hv08fzvezu" class="animable"></path></g></g></g><g id="freepik--gear--inject-25" class="animable" style="transform-origin: 379.728px 126.25px;"><path d="M394.36,89.51a1,1,0,0,0-1.26.3l-5.23,7.86a1.57,1.57,0,0,1-.71.54l-.39-4a.62.62,0,0,0-.27-.48h0l-5.31-3.09h0a.58.58,0,0,0-.58,0l-7.07,4.09a1.89,1.89,0,0,0-.85,1.32L372,104a2.61,2.61,0,0,1-.73,1.47,42.08,42.08,0,0,0-3.93,4.16,1.36,1.36,0,0,1-1.39.39l-4.54-1.58a1.12,1.12,0,0,0-1.28.47l-5.2,9a1.11,1.11,0,0,0,.23,1.34l3.64,3.14a1.35,1.35,0,0,1,.36,1.4,42.21,42.21,0,0,0-1.64,5.48,2.69,2.69,0,0,1-.91,1.38l-6.46,4.54a1.93,1.93,0,0,0-.72,1.4v8.17a.59.59,0,0,0,.24.52h0l5.32,3.09h0a.59.59,0,0,0,.55,0l3.65-1.65a1.54,1.54,0,0,1-.11.86l-4.2,8.46a1,1,0,0,0,.37,1.24l5.29,3.06,0,0,4.55,2.63a1,1,0,0,0,1.26-.3l5.23-7.86a1.59,1.59,0,0,1,.7-.54l.4,4a.64.64,0,0,0,.27.48h0l5.31,3.08h0a.58.58,0,0,0,.58,0l7.07-4.09a1.89,1.89,0,0,0,.85-1.32l.71-7.87a2.58,2.58,0,0,1,.73-1.47,43.22,43.22,0,0,0,3.93-4.16,1.33,1.33,0,0,1,1.39-.39l4.54,1.58a1.12,1.12,0,0,0,1.28-.47l5.2-9a1.11,1.11,0,0,0-.23-1.34l-3.64-3.14a1.36,1.36,0,0,1-.36-1.4,41.88,41.88,0,0,0,1.64-5.49,2.67,2.67,0,0,1,.91-1.37l6.46-4.55a1.89,1.89,0,0,0,.72-1.39v-8.17a.58.58,0,0,0-.25-.52h0l-5.3-3.09h0a.58.58,0,0,0-.56,0l-3.65,1.65a1.52,1.52,0,0,1,.11-.86l4.2-8.47a1,1,0,0,0-.37-1.23l-3.47-2h0ZM373,141.23a9.33,9.33,0,0,1-2.17-6.59c0-7.47,5.25-16.56,11.72-20.3a9.59,9.59,0,0,1,6.47-1.49c1.19,1.27,1.84,3.37,1.84,6.28,0,7.48-5.24,16.57-11.72,20.31A10.66,10.66,0,0,1,373,141.23Z" style="fill: #88F944; transform-origin: 379.735px 126.24px;" id="elrw8o098od7" class="animable"></path><g id="elou8s8lrcqc"><path d="M394.36,89.51a1,1,0,0,0-1.26.3l-5.23,7.86a1.57,1.57,0,0,1-.71.54l-.39-4a.62.62,0,0,0-.27-.48h0l-5.31-3.09h0a.58.58,0,0,0-.58,0l-7.07,4.09a1.89,1.89,0,0,0-.85,1.32L372,104a2.61,2.61,0,0,1-.73,1.47,42.08,42.08,0,0,0-3.93,4.16,1.36,1.36,0,0,1-1.39.39l-4.54-1.58a1.12,1.12,0,0,0-1.28.47l-5.2,9a1.11,1.11,0,0,0,.23,1.34l3.64,3.14a1.35,1.35,0,0,1,.36,1.4,42.21,42.21,0,0,0-1.64,5.48,2.69,2.69,0,0,1-.91,1.38l-6.46,4.54a1.93,1.93,0,0,0-.72,1.4v8.17a.59.59,0,0,0,.24.52h0l5.32,3.09h0a.59.59,0,0,0,.55,0l3.65-1.65a1.54,1.54,0,0,1-.11.86l-4.2,8.46a1,1,0,0,0,.37,1.24l5.29,3.06,0,0,4.55,2.63a1,1,0,0,0,1.26-.3l5.23-7.86a1.59,1.59,0,0,1,.7-.54l.4,4a.64.64,0,0,0,.27.48h0l5.31,3.08h0a.58.58,0,0,0,.58,0l7.07-4.09a1.89,1.89,0,0,0,.85-1.32l.71-7.87a2.58,2.58,0,0,1,.73-1.47,43.22,43.22,0,0,0,3.93-4.16,1.33,1.33,0,0,1,1.39-.39l4.54,1.58a1.12,1.12,0,0,0,1.28-.47l5.2-9a1.11,1.11,0,0,0-.23-1.34l-3.64-3.14a1.36,1.36,0,0,1-.36-1.4,41.88,41.88,0,0,0,1.64-5.49,2.67,2.67,0,0,1,.91-1.37l6.46-4.55a1.89,1.89,0,0,0,.72-1.39v-8.17a.58.58,0,0,0-.25-.52h0l-5.3-3.09h0a.58.58,0,0,0-.56,0l-3.65,1.65a1.52,1.52,0,0,1,.11-.86l4.2-8.47a1,1,0,0,0-.37-1.23l-3.47-2h0ZM373,141.23a9.33,9.33,0,0,1-2.17-6.59c0-7.47,5.25-16.56,11.72-20.3a9.59,9.59,0,0,1,6.47-1.49c1.19,1.27,1.84,3.37,1.84,6.28,0,7.48-5.24,16.57-11.72,20.31A10.66,10.66,0,0,1,373,141.23Z" style="fill: rgb(255, 255, 255); opacity: 0.3; transform-origin: 379.735px 126.24px;" class="animable" id="eltq8sxmm73jp"></path></g><g id="eltgp5l1b448p"><path d="M389,112.85c1.19,1.26,1.85,3.36,1.86,6.28,0,7.48-5.25,16.57-11.73,20.31a10.66,10.66,0,0,1-6.14,1.79c2.12,2.22,5.61,2.46,9.55.18,6.47-3.74,11.72-12.83,11.72-20.3C394.24,116.39,392.15,113.44,389,112.85Z" style="opacity: 0.1; transform-origin: 383.625px 127.931px;" class="animable" id="el7c359rkvqfn"></path></g><path d="M372.94,158.74l5.32,3.08h0l-.1-.07a.68.68,0,0,1-.18-.41l-.69-6.87a.74.74,0,0,0-.31-.56.79.79,0,0,0-.63-.11,14.58,14.58,0,0,1-3.41.35,1.6,1.6,0,0,0-.66.14l.4,4a.6.6,0,0,0,.27.47Zm-13.88-11.16-4.2,8.46a1,1,0,0,0,.37,1.24l5.29,3.06a1,1,0,0,1-.36-1.22l4.2-8.46a1.41,1.41,0,0,0,.12-.48l-5.3-3.07A1.41,1.41,0,0,1,359.06,147.58ZM372.9,95.51a1.75,1.75,0,0,0-.21.62L372,104a2.3,2.3,0,0,1-.21.7l5.31,3.07a2.17,2.17,0,0,0,.21-.69l.71-7.87a1.57,1.57,0,0,1,.21-.62Zm-7,16-5.31-3.08a1.07,1.07,0,0,0-.51.43l-5.2,9a1.12,1.12,0,0,0,0,1l5.29,3a1.1,1.1,0,0,1,0-1l5.21-9A1,1,0,0,1,365.93,111.56ZM355.1,138.63l-5.31-3.07a1.92,1.92,0,0,0-.38,1v8.17a.59.59,0,0,0,.24.52h0l5.32,3.09h0a.56.56,0,0,1-.26-.52v-8.17A1.89,1.89,0,0,1,355.1,138.63Z" style="fill: #88F944; transform-origin: 363.834px 128.665px;" id="eldr9qyjekd8" class="animable"></path><g id="elvhyqksikkgc"><path d="M372.94,158.74l5.32,3.08h0l-.1-.07a.68.68,0,0,1-.18-.41l-.69-6.87a.74.74,0,0,0-.31-.56.79.79,0,0,0-.63-.11,14.58,14.58,0,0,1-3.41.35,1.6,1.6,0,0,0-.66.14l.4,4a.6.6,0,0,0,.27.47Zm-13.88-11.16-4.2,8.46a1,1,0,0,0,.37,1.24l5.29,3.06a1,1,0,0,1-.36-1.22l4.2-8.46a1.41,1.41,0,0,0,.12-.48l-5.3-3.07A1.41,1.41,0,0,1,359.06,147.58ZM372.9,95.51a1.75,1.75,0,0,0-.21.62L372,104a2.3,2.3,0,0,1-.21.7l5.31,3.07a2.17,2.17,0,0,0,.21-.69l.71-7.87a1.57,1.57,0,0,1,.21-.62Zm-7,16-5.31-3.08a1.07,1.07,0,0,0-.51.43l-5.2,9a1.12,1.12,0,0,0,0,1l5.29,3a1.1,1.1,0,0,1,0-1l5.21-9A1,1,0,0,1,365.93,111.56ZM355.1,138.63l-5.31-3.07a1.92,1.92,0,0,0-.38,1v8.17a.59.59,0,0,0,.24.52h0l5.32,3.09h0a.56.56,0,0,1-.26-.52v-8.17A1.89,1.89,0,0,1,355.1,138.63Z" style="fill: rgb(255, 255, 255); opacity: 0.7; transform-origin: 363.834px 128.665px;" class="animable" id="elrxt7g6hteul"></path></g><path d="M386.76,156.37l.71-7.87a2.58,2.58,0,0,1,.73-1.47,43.22,43.22,0,0,0,3.93-4.16,1.33,1.33,0,0,1,1.39-.39l4.54,1.58a1.12,1.12,0,0,0,1.28-.47l5.2-9a1.11,1.11,0,0,0-.23-1.34l-3.64-3.14a1.36,1.36,0,0,1-.36-1.4,41.88,41.88,0,0,0,1.64-5.49,2.67,2.67,0,0,1,.91-1.37l6.46-4.55a1.89,1.89,0,0,0,.72-1.39v-8.17a.52.52,0,0,0-.8-.52l-6.3,2.84a.75.75,0,0,1-1.05-.48,14.7,14.7,0,0,0-1.4-3.13,1.7,1.7,0,0,1-.1-1.52l4.2-8.47a1,1,0,0,0-.37-1.23l-4.56-2.63a1,1,0,0,0-1.25.3l-5.23,7.86a1.75,1.75,0,0,1-1.37.68,14.17,14.17,0,0,0-3.41.35.75.75,0,0,1-.94-.67l-.69-6.87a.53.53,0,0,0-.86-.44l-7.07,4.09a1.88,1.88,0,0,0-.84,1.32l-.71,7.87a2.65,2.65,0,0,1-.74,1.47,42.08,42.08,0,0,0-3.93,4.16,1.36,1.36,0,0,1-1.39.39l-4.54-1.58a1.1,1.1,0,0,0-1.27.47l-5.21,9a1.11,1.11,0,0,0,.23,1.34l3.65,3.14a1.37,1.37,0,0,1,.35,1.4,42.21,42.21,0,0,0-1.64,5.48,2.64,2.64,0,0,1-.9,1.38l-6.47,4.55a1.89,1.89,0,0,0-.72,1.39v8.17a.53.53,0,0,0,.81.52l6.29-2.84a.75.75,0,0,1,1.05.48,14.23,14.23,0,0,0,1.41,3.13,1.73,1.73,0,0,1,.09,1.52l-4.2,8.46a1,1,0,0,0,.38,1.24l4.55,2.63a1,1,0,0,0,1.26-.3l5.23-7.86a1.7,1.7,0,0,1,1.36-.68,14.58,14.58,0,0,0,3.41-.35.75.75,0,0,1,.95.67l.69,6.87a.53.53,0,0,0,.85.44l7.07-4.09A1.89,1.89,0,0,0,386.76,156.37Zm-4.24-15c-6.47,3.74-11.72.71-11.72-6.77s5.25-16.56,11.72-20.3,11.72-.71,11.72,6.77S389,137.67,382.52,141.41Z" style="fill: #88F944; transform-origin: 382.376px 127.797px;" id="elz61w2tetua" class="animable"></path><g id="ely68dmtpgxs"><path d="M386.76,156.37l.71-7.87a2.58,2.58,0,0,1,.73-1.47,43.22,43.22,0,0,0,3.93-4.16,1.33,1.33,0,0,1,1.39-.39l4.54,1.58a1.12,1.12,0,0,0,1.28-.47l5.2-9a1.11,1.11,0,0,0-.23-1.34l-3.64-3.14a1.36,1.36,0,0,1-.36-1.4,41.88,41.88,0,0,0,1.64-5.49,2.67,2.67,0,0,1,.91-1.37l6.46-4.55a1.89,1.89,0,0,0,.72-1.39v-8.17a.52.52,0,0,0-.8-.52l-6.3,2.84a.75.75,0,0,1-1.05-.48,14.7,14.7,0,0,0-1.4-3.13,1.7,1.7,0,0,1-.1-1.52l4.2-8.47a1,1,0,0,0-.37-1.23l-4.56-2.63a1,1,0,0,0-1.25.3l-5.23,7.86a1.75,1.75,0,0,1-1.37.68,14.17,14.17,0,0,0-3.41.35.75.75,0,0,1-.94-.67l-.69-6.87a.53.53,0,0,0-.86-.44l-7.07,4.09a1.88,1.88,0,0,0-.84,1.32l-.71,7.87a2.65,2.65,0,0,1-.74,1.47,42.08,42.08,0,0,0-3.93,4.16,1.36,1.36,0,0,1-1.39.39l-4.54-1.58a1.1,1.1,0,0,0-1.27.47l-5.21,9a1.11,1.11,0,0,0,.23,1.34l3.65,3.14a1.37,1.37,0,0,1,.35,1.4,42.21,42.21,0,0,0-1.64,5.48,2.64,2.64,0,0,1-.9,1.38l-6.47,4.55a1.89,1.89,0,0,0-.72,1.39v8.17a.53.53,0,0,0,.81.52l6.29-2.84a.75.75,0,0,1,1.05.48,14.23,14.23,0,0,0,1.41,3.13,1.73,1.73,0,0,1,.09,1.52l-4.2,8.46a1,1,0,0,0,.38,1.24l4.55,2.63a1,1,0,0,0,1.26-.3l5.23-7.86a1.7,1.7,0,0,1,1.36-.68,14.58,14.58,0,0,0,3.41-.35.75.75,0,0,1,.95.67l.69,6.87a.53.53,0,0,0,.85.44l7.07-4.09A1.89,1.89,0,0,0,386.76,156.37Zm-4.24-15c-6.47,3.74-11.72.71-11.72-6.77s5.25-16.56,11.72-20.3,11.72-.71,11.72,6.77S389,137.67,382.52,141.41Z" style="fill: rgb(255, 255, 255); opacity: 0.55; transform-origin: 382.376px 127.797px;" class="animable" id="elkyxuec99qlt"></path></g><g id="el4tino4uys8x"><path d="M401.89,109.57a.75.75,0,0,0,1.05.48l6.3-2.84a.59.59,0,0,1,.55,0h0l-5.3-3.09h0a.58.58,0,0,0-.56,0l-3.65,1.65a1.56,1.56,0,0,0,.21.66A14.7,14.7,0,0,1,401.89,109.57Zm-7.53-20.06a1,1,0,0,0-1.26.3l-5.23,7.86a1.57,1.57,0,0,1-.71.54l.3,2.9a.75.75,0,0,0,.94.67,14.17,14.17,0,0,1,3.41-.35,1.75,1.75,0,0,0,1.37-.68l5.23-7.86a1,1,0,0,1,1.25-.3l1.08.63h0Z" style="opacity: 0.1; transform-origin: 398.475px 99.7629px;" class="animable" id="elm4i58fjjp1s"></path></g><g id="el7bf486vn36r"><g style="opacity: 0.2; transform-origin: 382.376px 127.787px;" class="animable" id="ello4w273yunm"><path d="M393.31,115.6a6.42,6.42,0,0,0-2.33-2.38c-2.32-1.34-5.39-1-8.63.82-6.56,3.79-11.89,13-11.89,20.6,0,3.74,1.28,6.54,3.6,7.88s5.39,1,8.63-.82c6.56-3.78,11.89-13,11.89-20.59A11,11,0,0,0,393.31,115.6Zm.93,5.51c0,7.47-5.24,16.56-11.72,20.3s-11.72.71-11.72-6.77,5.25-16.56,11.72-20.3S394.24,113.63,394.24,121.11Z" style="fill: rgb(255, 255, 255); transform-origin: 382.523px 127.87px;" id="elcd4sijfgsgd" class="animable"></path><path d="M398.41,92.89l-5.23,7.86a1.75,1.75,0,0,1-1.37.68,14.17,14.17,0,0,0-3.41.35.75.75,0,0,1-.94-.67l-.69-6.87a.53.53,0,0,0-.86-.44l-7.07,4.09a1.88,1.88,0,0,0-.84,1.32l-.71,7.87a2.65,2.65,0,0,1-.74,1.47,42.08,42.08,0,0,0-3.93,4.16,1.36,1.36,0,0,1-1.39.39l-4.54-1.58a1.1,1.1,0,0,0-1.27.47l-5.21,9a1.11,1.11,0,0,0,.23,1.34l3.65,3.14a1.37,1.37,0,0,1,.35,1.4,42.21,42.21,0,0,0-1.64,5.48,2.64,2.64,0,0,1-.9,1.38l-6.47,4.55a1.89,1.89,0,0,0-.72,1.39v8.17a.53.53,0,0,0,.81.52l6.29-2.84a.75.75,0,0,1,1.05.48,14.23,14.23,0,0,0,1.41,3.13,1.73,1.73,0,0,1,.09,1.52l-4.2,8.46a1,1,0,0,0,.38,1.24l4.55,2.63a1,1,0,0,0,1.26-.3l5.23-7.86a1.7,1.7,0,0,1,1.36-.68,14.58,14.58,0,0,0,3.41-.35.75.75,0,0,1,.95.67l.69,6.87a.53.53,0,0,0,.85.44l7.07-4.09a1.89,1.89,0,0,0,.85-1.32l.71-7.87a2.58,2.58,0,0,1,.73-1.47,43.22,43.22,0,0,0,3.93-4.16,1.33,1.33,0,0,1,1.39-.39l4.54,1.58a1.12,1.12,0,0,0,1.28-.47l5.2-9a1.11,1.11,0,0,0-.23-1.34l-3.64-3.14a1.36,1.36,0,0,1-.36-1.4,41.88,41.88,0,0,0,1.64-5.49,2.67,2.67,0,0,1,.91-1.37l6.46-4.55a1.89,1.89,0,0,0,.72-1.39v-8.17a.52.52,0,0,0-.8-.52l-6.3,2.84a.75.75,0,0,1-1.05-.48,14.7,14.7,0,0,0-1.4-3.13,1.7,1.7,0,0,1-.1-1.52l4.2-8.47a1,1,0,0,0-.37-1.23l-4.56-2.63A1,1,0,0,0,398.41,92.89Zm1.08,0L404,95.52a.62.62,0,0,1,.24.78l-4.2,8.46a2.11,2.11,0,0,0,.11,1.86,14.14,14.14,0,0,1,1.37,3,1.09,1.09,0,0,0,1.52.7l6.3-2.84c.1,0,.19-.06.24,0s.07.11.07.22v8.17a1.55,1.55,0,0,1-.57,1.11l-6.46,4.55a3,3,0,0,0-1.05,1.58,42.3,42.3,0,0,1-1.62,5.44,1.71,1.71,0,0,0,.45,1.78l3.64,3.14a.76.76,0,0,1,.16.91l-5.2,9a.76.76,0,0,1-.86.32l-4.54-1.58a1.71,1.71,0,0,0-1.78.5,41.51,41.51,0,0,1-3.89,4.12,2.91,2.91,0,0,0-.85,1.7l-.71,7.87a1.58,1.58,0,0,1-.67,1l-7.07,4.09a.28.28,0,0,1-.24,0c-.05,0-.09-.11-.1-.22l-.69-6.87a1.08,1.08,0,0,0-.44-.79,1.14,1.14,0,0,0-.92-.18,13.8,13.8,0,0,1-3.33.34,2.06,2.06,0,0,0-1.66.83l-5.23,7.87a.61.61,0,0,1-.79.19l-4.56-2.63a.61.61,0,0,1-.23-.78l4.19-8.46a2,2,0,0,0-.11-1.87,14.55,14.55,0,0,1-1.37-3,1.09,1.09,0,0,0-1.52-.7l-6.3,2.84a.24.24,0,0,1-.23,0,.25.25,0,0,1-.08-.22v-8.17a1.59,1.59,0,0,1,.57-1.11L362.1,134a3,3,0,0,0,1-1.58,44,44,0,0,1,1.62-5.44,1.71,1.71,0,0,0-.45-1.78l-3.64-3.14a.76.76,0,0,1-.16-.91l5.21-9a.76.76,0,0,1,.86-.32l4.54,1.59a1.69,1.69,0,0,0,1.77-.5,41.65,41.65,0,0,1,3.9-4.13,2.9,2.9,0,0,0,.84-1.69l.71-7.87a1.58,1.58,0,0,1,.67-1l7.08-4.09a.26.26,0,0,1,.23,0c.05,0,.09.1.1.21l.69,6.88a1.19,1.19,0,0,0,.15.46,1,1,0,0,0,.29.33,1.16,1.16,0,0,0,.93.18,13.72,13.72,0,0,1,3.32-.34,2.07,2.07,0,0,0,1.67-.84l5.23-7.86A.61.61,0,0,1,399.49,92.89Z" style="fill: rgb(255, 255, 255); transform-origin: 382.376px 127.787px;" id="elklanrfwnjld" class="animable"></path></g></g></g><g id="freepik--gear--inject-25" class="animable" style="transform-origin: 429.435px 416.66px;"><path d="M397.31,410.18h0a1,1,0,0,0,.59.85l2.26,1.17,1.32-.22a2.34,2.34,0,0,0,1.71-1.66,10.56,10.56,0,0,1,.51-1.42,1.47,1.47,0,0,0-.62-1.95l-5.26-2.72a1,1,0,0,1-.6-.83Zm19.27-2.26c-3.05,2.57-3.47,5.78-1.56,8.54a9.38,9.38,0,0,1,1.64-1.74c4.85-4.08,14.54-5,21.64-2a12.42,12.42,0,0,1,5.6,4.14c2.62-3.82.43-8.4-5.69-10.95C431.12,402.93,421.43,403.85,416.58,407.92Zm-23.13,13.23h0a1.22,1.22,0,0,0,.07.41l1.16,3.67a2,2,0,0,0,1.9,1.36l7.45-.21a3,3,0,0,1,1.15.24h0a3,3,0,0,1,.64.33l2.55-2.75a1.28,1.28,0,0,0-.21-1.93,17.88,17.88,0,0,1-1.79-1.64,4.16,4.16,0,0,0-1.26-.82,3,3,0,0,0-1.17-.25l-7.44.23a2.08,2.08,0,0,1-1.9-1.37l-1.17-3.67a1.89,1.89,0,0,1-.07-.39Zm60.26-22.57a1.08,1.08,0,0,1-.3.59l-2.92,3.15a1.28,1.28,0,0,0,.2,1.93,16.8,16.8,0,0,1,1.8,1.64,2.76,2.76,0,0,0,.62.48l.38-.41a1.05,1.05,0,0,0,.3-.73h0ZM405.22,434.9a1,1,0,0,0,.12.41,1.09,1.09,0,0,0,.57.47l6.55,2.73a1.29,1.29,0,0,0,.28.08.79.79,0,0,0,.22.05,3.65,3.65,0,0,0,1,0l.22-.05h0a2.45,2.45,0,0,0,.84-.31l4.35-2.9a4.06,4.06,0,0,1,2.62-.5c1.4.26,2.81.45,4.23.58a2.75,2.75,0,0,1,1.42.61,2.47,2.47,0,0,1,.37.35.66.66,0,0,1,.15.19.8.8,0,0,1,.18.27l1.66,3.22,0,.07a1.38,1.38,0,0,0,.17.25,1.12,1.12,0,0,0,.18.2l0,0a1.59,1.59,0,0,0,.24.2,2.35,2.35,0,0,0,.54.29,2.26,2.26,0,0,0,.91.15l8.13-.77a1.38,1.38,0,0,0,1.26-1.39l-.06-4.61a1.75,1.75,0,0,1,.84-.58,33.67,33.67,0,0,0,3.38-1.23,4.42,4.42,0,0,1,2.69-.15l.07,0,6.29,2.07a2.05,2.05,0,0,0,.34.07h.06a1.53,1.53,0,0,0,.37,0,2.81,2.81,0,0,0,1.73-.57l4.11-3.46a1.08,1.08,0,0,0,.41-.74l-.09-6.77a1,1,0,0,1-.4.71l-4.12,3.46a2.3,2.3,0,0,1-.91.46,2.74,2.74,0,0,1-1.58,0l-6.29-2.06-.07,0a4.42,4.42,0,0,0-2.69.15,29.5,29.5,0,0,1-3.39,1.22A1.78,1.78,0,0,0,441,429l.42,3.14a1.4,1.4,0,0,1-1.25,1.59l-8.13.77a2.09,2.09,0,0,1-.91-.14,2.38,2.38,0,0,1-1.21-1l-1.66-3.22a2.43,2.43,0,0,0-.7-.81,2.83,2.83,0,0,0-1.42-.61c-1.42-.13-2.84-.32-4.23-.58a4,4,0,0,0-2.62.5l-4.34,2.9a2.22,2.22,0,0,1-.85.33,3,3,0,0,1-1.71-.1L405.83,429a1,1,0,0,1-.69-.88Zm52.16-20.36a2.4,2.4,0,0,0-1.71,1.67,8.68,8.68,0,0,1-.52,1.42,1.47,1.47,0,0,0,.62,1.95l3,1.56,5.75-.94a1.19,1.19,0,0,0,1-1.18h0l-.08-6.82a1.2,1.2,0,0,1-1,1.19Z" style="fill: rgb(230, 230, 230); transform-origin: 429.44px 419.921px;" id="eloz5i7hotq5j" class="animable"></path><g id="elrbd9slfsi1k"><path d="M397.31,410.18h0a1,1,0,0,0,.59.85l2.26,1.17,1.32-.22a2.34,2.34,0,0,0,1.71-1.66,10.56,10.56,0,0,1,.51-1.42,1.47,1.47,0,0,0-.62-1.95l-5.26-2.72a1,1,0,0,1-.6-.83Zm19.27-2.26c-3.05,2.57-3.47,5.78-1.56,8.54a9.38,9.38,0,0,1,1.64-1.74c4.85-4.08,14.54-5,21.64-2a12.42,12.42,0,0,1,5.6,4.14c2.62-3.82.43-8.4-5.69-10.95C431.12,402.93,421.43,403.85,416.58,407.92Zm-23.13,13.23h0a1.22,1.22,0,0,0,.07.41l1.16,3.67a2,2,0,0,0,1.9,1.36l7.45-.21a3,3,0,0,1,1.15.24h0a3,3,0,0,1,.64.33l2.55-2.75a1.28,1.28,0,0,0-.21-1.93,17.88,17.88,0,0,1-1.79-1.64,4.16,4.16,0,0,0-1.26-.82,3,3,0,0,0-1.17-.25l-7.44.23a2.08,2.08,0,0,1-1.9-1.37l-1.17-3.67a1.89,1.89,0,0,1-.07-.39Zm60.26-22.57a1.08,1.08,0,0,1-.3.59l-2.92,3.15a1.28,1.28,0,0,0,.2,1.93,16.8,16.8,0,0,1,1.8,1.64,2.76,2.76,0,0,0,.62.48l.38-.41a1.05,1.05,0,0,0,.3-.73h0ZM405.22,434.9a1,1,0,0,0,.12.41,1.09,1.09,0,0,0,.57.47l6.55,2.73a1.29,1.29,0,0,0,.28.08.79.79,0,0,0,.22.05,3.65,3.65,0,0,0,1,0l.22-.05h0a2.45,2.45,0,0,0,.84-.31l4.35-2.9a4.06,4.06,0,0,1,2.62-.5c1.4.26,2.81.45,4.23.58a2.75,2.75,0,0,1,1.42.61,2.47,2.47,0,0,1,.37.35.66.66,0,0,1,.15.19.8.8,0,0,1,.18.27l1.66,3.22,0,.07a1.38,1.38,0,0,0,.17.25,1.12,1.12,0,0,0,.18.2l0,0a1.59,1.59,0,0,0,.24.2,2.35,2.35,0,0,0,.54.29,2.26,2.26,0,0,0,.91.15l8.13-.77a1.38,1.38,0,0,0,1.26-1.39l-.06-4.61a1.75,1.75,0,0,1,.84-.58,33.67,33.67,0,0,0,3.38-1.23,4.42,4.42,0,0,1,2.69-.15l.07,0,6.29,2.07a2.05,2.05,0,0,0,.34.07h.06a1.53,1.53,0,0,0,.37,0,2.81,2.81,0,0,0,1.73-.57l4.11-3.46a1.08,1.08,0,0,0,.41-.74l-.09-6.77a1,1,0,0,1-.4.71l-4.12,3.46a2.3,2.3,0,0,1-.91.46,2.74,2.74,0,0,1-1.58,0l-6.29-2.06-.07,0a4.42,4.42,0,0,0-2.69.15,29.5,29.5,0,0,1-3.39,1.22A1.78,1.78,0,0,0,441,429l.42,3.14a1.4,1.4,0,0,1-1.25,1.59l-8.13.77a2.09,2.09,0,0,1-.91-.14,2.38,2.38,0,0,1-1.21-1l-1.66-3.22a2.43,2.43,0,0,0-.7-.81,2.83,2.83,0,0,0-1.42-.61c-1.42-.13-2.84-.32-4.23-.58a4,4,0,0,0-2.62.5l-4.34,2.9a2.22,2.22,0,0,1-.85.33,3,3,0,0,1-1.71-.1L405.83,429a1,1,0,0,1-.69-.88Zm52.16-20.36a2.4,2.4,0,0,0-1.71,1.67,8.68,8.68,0,0,1-.52,1.42,1.47,1.47,0,0,0,.62,1.95l3,1.56,5.75-.94a1.19,1.19,0,0,0,1-1.18h0l-.08-6.82a1.2,1.2,0,0,1-1,1.19Z" style="opacity: 0.1; transform-origin: 429.44px 419.921px;" class="animable" id="elqn7t9d9hv4g"></path></g><path d="M448.33,425.77l6.29,2.06a2.74,2.74,0,0,0,1.58,0l.09,6.78a3.79,3.79,0,0,1-.82.13,1.53,1.53,0,0,1-.37,0H455a2.05,2.05,0,0,1-.34-.07l-6.29-2.07Z" style="fill: rgb(224, 224, 224); transform-origin: 452.31px 430.261px;" id="eld8o778dc8t6" class="animable"></path><path d="M427.54,429.26a2.43,2.43,0,0,1,.7.81l1.66,3.22a2.38,2.38,0,0,0,1.21,1l.08,6.79a2.35,2.35,0,0,1-.54-.29,1.59,1.59,0,0,1-.24-.2l0,0a1.12,1.12,0,0,1-.18-.2,1.38,1.38,0,0,1-.17-.25l0-.07-1.66-3.22a.8.8,0,0,0-.18-.27.9.9,0,0,0-.15-.19,4,4,0,0,0-.37-.33v0Z" style="fill: rgb(224, 224, 224); transform-origin: 429.365px 435.17px;" id="el2newzbwstyb" class="animable"></path><path d="M397.22,403.41a1,1,0,0,0,.61.82l5.26,2.72a1.47,1.47,0,0,1,.62,1.95,9.83,9.83,0,0,0-.52,1.43,2.35,2.35,0,0,1-1.71,1.66l-1.31.21L397.92,411a1,1,0,0,1-.6-.85h0Z" style="fill: rgb(224, 224, 224); transform-origin: 400.542px 407.805px;" id="elx0c7yjh284" class="animable"></path><path d="M393.37,414.37a1.89,1.89,0,0,0,.07.39l1.17,3.67a2.08,2.08,0,0,0,1.9,1.37l7.44-.23a3,3,0,0,1,1.17.25l.07,6.8a3,3,0,0,0-1.15-.24l-7.45.21a2,2,0,0,1-1.9-1.36l-1.16-3.67a1.22,1.22,0,0,1-.07-.41h0Z" style="fill: rgb(224, 224, 224); transform-origin: 399.28px 420.495px;" id="elpmri3ad8kmk" class="animable"></path><path d="M405.14,428.1a1,1,0,0,0,.69.88l6.54,2.72a3,3,0,0,0,1.71.1l.09,6.79-.22.05a3.65,3.65,0,0,1-1,0,.79.79,0,0,1-.22-.05,1.29,1.29,0,0,1-.28-.08l-6.55-2.73a1.09,1.09,0,0,1-.57-.47,1,1,0,0,1-.12-.41Z" style="fill: rgb(224, 224, 224); transform-origin: 409.655px 433.387px;" id="elh320h2bk8xv" class="animable"></path><path d="M401.75,399.17l-4.12,3.46a.9.9,0,0,0,.2,1.6l5.26,2.72a1.47,1.47,0,0,1,.62,1.95,11.61,11.61,0,0,0-.52,1.42,2.32,2.32,0,0,1-1.71,1.66l-7.06,1.15a1.22,1.22,0,0,0-1,1.64l1.17,3.66a2,2,0,0,0,1.9,1.36l7.44-.21a3.7,3.7,0,0,1,2.42,1.06,17.92,17.92,0,0,0,1.8,1.64,1.28,1.28,0,0,1,.21,1.93l-2.92,3.15a.94.94,0,0,0,.37,1.62l6.54,2.73a3,3,0,0,0,2.55-.24l4.35-2.9a4,4,0,0,1,2.62-.5c1.4.26,2.81.45,4.23.58a2.9,2.9,0,0,1,2.12,1.42l1.66,3.22a2.34,2.34,0,0,0,2.12,1.18l8.13-.77a1.39,1.39,0,0,0,1.25-1.59L441,429a1.74,1.74,0,0,1,1.19-1.85,33.86,33.86,0,0,0,3.39-1.23,4.42,4.42,0,0,1,2.69-.15l6.36,2.09a2.9,2.9,0,0,0,2.49-.47l4.12-3.46a.9.9,0,0,0-.2-1.6l-5.26-2.72a1.47,1.47,0,0,1-.62-1.95,11.61,11.61,0,0,0,.52-1.42,2.32,2.32,0,0,1,1.71-1.66l7.06-1.15a1.22,1.22,0,0,0,1-1.64l-1.17-3.66a2.06,2.06,0,0,0-1.9-1.36l-7.44.21a3.7,3.7,0,0,1-2.42-1.06,17.92,17.92,0,0,0-1.8-1.64,1.28,1.28,0,0,1-.2-1.93l2.91-3.15a.94.94,0,0,0-.37-1.62l-6.54-2.73a3,3,0,0,0-2.55.24l-4.35,2.9a4,4,0,0,1-2.62.5c-1.39-.26-2.81-.45-4.23-.58a2.9,2.9,0,0,1-2.12-1.42L429,393.24a2.34,2.34,0,0,0-2.12-1.18l-8.13.77a1.4,1.4,0,0,0-1.25,1.59l.41,3.14a1.74,1.74,0,0,1-1.19,1.85,32.79,32.79,0,0,0-3.38,1.23,4.45,4.45,0,0,1-2.7.15l-6.36-2.09A2.9,2.9,0,0,0,401.75,399.17Zm36.46,6.72c7.1,2.95,8.92,8.64,4.07,12.72s-14.54,5-21.63,2-8.92-8.64-4.07-12.72S431.12,402.94,438.21,405.89Z" style="fill: rgb(235, 235, 235); transform-origin: 429.435px 413.265px;" id="el4mqb3ougrer" class="animable"></path></g><g id="freepik--gear--inject-25" class="animable" style="transform-origin: 380.777px 448.416px;"><path d="M355.18,443.24h0a.79.79,0,0,0,.47.68l1.8.93,1.05-.17a1.92,1.92,0,0,0,1.37-1.33,7.33,7.33,0,0,1,.41-1.13,1.19,1.19,0,0,0-.5-1.56l-4.19-2.17a.77.77,0,0,1-.48-.66Zm15.37-1.8c-2.44,2.05-2.77,4.61-1.25,6.81a7.66,7.66,0,0,1,1.31-1.4c3.87-3.24,11.59-4,17.25-1.62a10,10,0,0,1,4.47,3.31c2.09-3.05.34-6.7-4.54-8.73C382.13,437.46,374.41,438.19,370.55,441.44ZM352.11,452h0a1,1,0,0,0,.05.33l.92,2.92a1.64,1.64,0,0,0,1.51,1.09l5.94-.17a2.28,2.28,0,0,1,.92.2h0a2.45,2.45,0,0,1,.51.26l2-2.19a1,1,0,0,0-.17-1.54,15.18,15.18,0,0,1-1.43-1.3,3.2,3.2,0,0,0-1-.65,2.37,2.37,0,0,0-.93-.2l-5.94.18a1.66,1.66,0,0,1-1.51-1.09l-.93-2.93a1.21,1.21,0,0,1-.06-.31Zm48-18a.85.85,0,0,1-.24.47L397.58,437a1,1,0,0,0,.16,1.54,13.05,13.05,0,0,1,1.44,1.31,2.44,2.44,0,0,0,.49.38l.3-.32a.84.84,0,0,0,.24-.59h0Zm-38.66,28.95a.74.74,0,0,0,.09.33.83.83,0,0,0,.46.37l5.22,2.18.22.07.18,0a3,3,0,0,0,.79,0l.17,0h0a1.91,1.91,0,0,0,.67-.25l3.46-2.31a3.26,3.26,0,0,1,2.1-.4c1.11.21,2.23.36,3.36.46a2.21,2.21,0,0,1,1.14.49,1.94,1.94,0,0,1,.29.28.93.93,0,0,1,.13.15,1.53,1.53,0,0,1,.14.21l1.32,2.57,0,.06a1.27,1.27,0,0,0,.13.19,1.22,1.22,0,0,0,.15.17h0a1.08,1.08,0,0,0,.2.16,1.44,1.44,0,0,0,.42.23,1.7,1.7,0,0,0,.73.12l6.48-.61a1.11,1.11,0,0,0,1-1.11l-.05-3.67a1.33,1.33,0,0,1,.67-.47,27.55,27.55,0,0,0,2.69-1,3.44,3.44,0,0,1,2.15-.13l.05,0,5,1.65a.9.9,0,0,0,.27.07h.05a1.38,1.38,0,0,0,.29,0,2.28,2.28,0,0,0,1.38-.45l3.28-2.77a.84.84,0,0,0,.32-.58l-.07-5.4a.82.82,0,0,1-.32.57l-3.28,2.75a1.89,1.89,0,0,1-.72.37,2.29,2.29,0,0,1-1.27,0l-5-1.64-.06,0a3.51,3.51,0,0,0-2.15.11,24.42,24.42,0,0,1-2.69,1,1.4,1.4,0,0,0-1,1.48l.33,2.5a1.11,1.11,0,0,1-1,1.27l-6.48.61a1.55,1.55,0,0,1-.73-.11,1.83,1.83,0,0,1-1-.83l-1.33-2.57a2,2,0,0,0-.55-.64,2.3,2.3,0,0,0-1.14-.49c-1.13-.1-2.26-.25-3.37-.46a3.23,3.23,0,0,0-2.09.4l-3.46,2.31a1.79,1.79,0,0,1-.68.26,2.31,2.31,0,0,1-1.36-.07L362,458.23a.81.81,0,0,1-.55-.71Zm41.58-16.23a1.9,1.9,0,0,0-1.36,1.33,7,7,0,0,1-.42,1.13,1.18,1.18,0,0,0,.5,1.56l2.39,1.24,4.59-.74a.94.94,0,0,0,.82-.94h0l-.06-5.43a1,1,0,0,1-.83.94Z" style="fill: rgb(230, 230, 230); transform-origin: 380.77px 451.016px;" id="elauenvvn2zvd" class="animable"></path><g id="elyhw714ue7kh"><path d="M355.18,443.24h0a.79.79,0,0,0,.47.68l1.8.93,1.05-.17a1.92,1.92,0,0,0,1.37-1.33,7.33,7.33,0,0,1,.41-1.13,1.19,1.19,0,0,0-.5-1.56l-4.19-2.17a.77.77,0,0,1-.48-.66Zm15.37-1.8c-2.44,2.05-2.77,4.61-1.25,6.81a7.66,7.66,0,0,1,1.31-1.4c3.87-3.24,11.59-4,17.25-1.62a10,10,0,0,1,4.47,3.31c2.09-3.05.34-6.7-4.54-8.73C382.13,437.46,374.41,438.19,370.55,441.44ZM352.11,452h0a1,1,0,0,0,.05.33l.92,2.92a1.64,1.64,0,0,0,1.51,1.09l5.94-.17a2.28,2.28,0,0,1,.92.2h0a2.45,2.45,0,0,1,.51.26l2-2.19a1,1,0,0,0-.17-1.54,15.18,15.18,0,0,1-1.43-1.3,3.2,3.2,0,0,0-1-.65,2.37,2.37,0,0,0-.93-.2l-5.94.18a1.66,1.66,0,0,1-1.51-1.09l-.93-2.93a1.21,1.21,0,0,1-.06-.31Zm48-18a.85.85,0,0,1-.24.47L397.58,437a1,1,0,0,0,.16,1.54,13.05,13.05,0,0,1,1.44,1.31,2.44,2.44,0,0,0,.49.38l.3-.32a.84.84,0,0,0,.24-.59h0Zm-38.66,28.95a.74.74,0,0,0,.09.33.83.83,0,0,0,.46.37l5.22,2.18.22.07.18,0a3,3,0,0,0,.79,0l.17,0h0a1.91,1.91,0,0,0,.67-.25l3.46-2.31a3.26,3.26,0,0,1,2.1-.4c1.11.21,2.23.36,3.36.46a2.21,2.21,0,0,1,1.14.49,1.94,1.94,0,0,1,.29.28.93.93,0,0,1,.13.15,1.53,1.53,0,0,1,.14.21l1.32,2.57,0,.06a1.27,1.27,0,0,0,.13.19,1.22,1.22,0,0,0,.15.17h0a1.08,1.08,0,0,0,.2.16,1.44,1.44,0,0,0,.42.23,1.7,1.7,0,0,0,.73.12l6.48-.61a1.11,1.11,0,0,0,1-1.11l-.05-3.67a1.33,1.33,0,0,1,.67-.47,27.55,27.55,0,0,0,2.69-1,3.44,3.44,0,0,1,2.15-.13l.05,0,5,1.65a.9.9,0,0,0,.27.07h.05a1.38,1.38,0,0,0,.29,0,2.28,2.28,0,0,0,1.38-.45l3.28-2.77a.84.84,0,0,0,.32-.58l-.07-5.4a.82.82,0,0,1-.32.57l-3.28,2.75a1.89,1.89,0,0,1-.72.37,2.29,2.29,0,0,1-1.27,0l-5-1.64-.06,0a3.51,3.51,0,0,0-2.15.11,24.42,24.42,0,0,1-2.69,1,1.4,1.4,0,0,0-1,1.48l.33,2.5a1.11,1.11,0,0,1-1,1.27l-6.48.61a1.55,1.55,0,0,1-.73-.11,1.83,1.83,0,0,1-1-.83l-1.33-2.57a2,2,0,0,0-.55-.64,2.3,2.3,0,0,0-1.14-.49c-1.13-.1-2.26-.25-3.37-.46a3.23,3.23,0,0,0-2.09.4l-3.46,2.31a1.79,1.79,0,0,1-.68.26,2.31,2.31,0,0,1-1.36-.07L362,458.23a.81.81,0,0,1-.55-.71Zm41.58-16.23a1.9,1.9,0,0,0-1.36,1.33,7,7,0,0,1-.42,1.13,1.18,1.18,0,0,0,.5,1.56l2.39,1.24,4.59-.74a.94.94,0,0,0,.82-.94h0l-.06-5.43a1,1,0,0,1-.83.94Z" style="opacity: 0.1; transform-origin: 380.77px 451.016px;" class="animable" id="eld09rdqa9bcb"></path></g><path d="M395.86,455.67l5,1.64a2.29,2.29,0,0,0,1.27,0l.06,5.4a2.85,2.85,0,0,1-.65.11,1.38,1.38,0,0,1-.29,0h-.05a.9.9,0,0,1-.27-.07l-5-1.65Z" style="fill: rgb(224, 224, 224); transform-origin: 399.025px 459.249px;" id="elyxi8kzye22" class="animable"></path><path d="M379.29,458.45a2,2,0,0,1,.55.64l1.33,2.57a1.83,1.83,0,0,0,1,.83l.06,5.41a1.44,1.44,0,0,1-.42-.23,1.08,1.08,0,0,1-.2-.16h0a1.22,1.22,0,0,1-.15-.17,1.27,1.27,0,0,1-.13-.19l0-.06-1.32-2.57a1.53,1.53,0,0,0-.14-.21l-.13-.15a3.84,3.84,0,0,0-.29-.27h0Z" style="fill: rgb(224, 224, 224); transform-origin: 380.76px 463.175px;" id="elkftfordley" class="animable"></path><path d="M355.11,437.84a.78.78,0,0,0,.49.65l4.19,2.17a1.17,1.17,0,0,1,.49,1.56,10.26,10.26,0,0,0-.41,1.13,1.87,1.87,0,0,1-1.36,1.33l-1,.16-1.8-.93a.77.77,0,0,1-.48-.67h0Z" style="fill: rgb(224, 224, 224); transform-origin: 357.758px 441.34px;" id="elfp1rr4p9awk" class="animable"></path><path d="M352,446.58a1.21,1.21,0,0,0,.06.31l.93,2.93a1.66,1.66,0,0,0,1.51,1.09l5.94-.18a2.37,2.37,0,0,1,.93.2l0,5.42a2.28,2.28,0,0,0-.92-.2l-5.94.17a1.64,1.64,0,0,1-1.51-1.09l-.92-2.92a1,1,0,0,1-.05-.33h0Z" style="fill: rgb(224, 224, 224); transform-origin: 356.685px 451.465px;" id="elgz5dftbriel" class="animable"></path><path d="M361.42,457.52a.81.81,0,0,0,.55.71l5.22,2.17a2.31,2.31,0,0,0,1.36.07l.07,5.42-.17,0a3,3,0,0,1-.79,0l-.18,0-.22-.07L362,463.64a.83.83,0,0,1-.46-.37.74.74,0,0,1-.09-.33Z" style="fill: rgb(224, 224, 224); transform-origin: 365.02px 461.718px;" id="elaem6v0k1ro6" class="animable"></path><path d="M358.72,434.46l-3.28,2.76a.71.71,0,0,0,.16,1.27l4.19,2.17a1.19,1.19,0,0,1,.5,1.56,8.12,8.12,0,0,0-.42,1.13,1.89,1.89,0,0,1-1.36,1.33l-5.63.91a1,1,0,0,0-.78,1.3l.93,2.92a1.64,1.64,0,0,0,1.51,1.09l5.94-.17a3,3,0,0,1,1.93.85,15.06,15.06,0,0,0,1.43,1.3,1,1,0,0,1,.16,1.54l-2.32,2.52a.75.75,0,0,0,.29,1.29l5.22,2.17a2.4,2.4,0,0,0,2-.19l3.47-2.31a3.23,3.23,0,0,1,2.09-.4c1.11.21,2.24.36,3.37.46a2.32,2.32,0,0,1,1.69,1.13l1.33,2.57a1.84,1.84,0,0,0,1.68.94l6.49-.61a1.11,1.11,0,0,0,1-1.27l-.33-2.5a1.41,1.41,0,0,1,1-1.48,24.42,24.42,0,0,0,2.69-1,3.44,3.44,0,0,1,2.15-.11l5.07,1.66a2.35,2.35,0,0,0,2-.37l3.28-2.76a.72.72,0,0,0-.16-1.28l-4.19-2.17a1.16,1.16,0,0,1-.49-1.55,10.41,10.41,0,0,0,.41-1.14,1.86,1.86,0,0,1,1.36-1.32l5.63-.91a1,1,0,0,0,.78-1.31l-.93-2.92a1.64,1.64,0,0,0-1.51-1.09l-5.93.17a2.92,2.92,0,0,1-1.93-.85,16.7,16.7,0,0,0-1.44-1.3,1,1,0,0,1-.16-1.54l2.32-2.51a.75.75,0,0,0-.29-1.29L394.39,431a2.44,2.44,0,0,0-2,.19l-3.47,2.31a3.23,3.23,0,0,1-2.09.4c-1.11-.21-2.24-.36-3.37-.46a2.29,2.29,0,0,1-1.69-1.13l-1.33-2.57a1.84,1.84,0,0,0-1.68-.94l-6.49.61a1.11,1.11,0,0,0-1,1.27l.33,2.51a1.39,1.39,0,0,1-1,1.47,24.42,24.42,0,0,0-2.69,1,3.52,3.52,0,0,1-2.15.12l-5.07-1.67A2.32,2.32,0,0,0,358.72,434.46Zm29.07,5.35c5.66,2.36,7.11,6.9,3.24,10.15s-11.58,4-17.24,1.62-7.11-6.89-3.24-10.14S382.14,437.46,387.79,439.81Z" style="fill: rgb(235, 235, 235); transform-origin: 380.807px 445.7px;" id="el2wgqxghmgwi" class="animable"></path></g></g><g id="freepik--speech-bubbles--inject-25" class="animable" style="transform-origin: 225.454px 60.6574px;"><g id="freepik--speech-bubbles--inject-25" class="animable" style="transform-origin: 225.454px 60.6574px;"><g id="freepik--speech-bubble--inject-25" class="animable" style="transform-origin: 205.89px 65.9811px;"><path d="M186,94.91a1.82,1.82,0,0,1-1-.29,2.75,2.75,0,0,1-1.09-2.46V66.73a7.33,7.33,0,0,1,3-5.7l37.37-23.49a2.28,2.28,0,0,1,2.5-.21,2.75,2.75,0,0,1,1.09,2.46V65.22a7.35,7.35,0,0,1-3,5.71l-5.54,3.48L215.6,88.24a1.32,1.32,0,0,1-1.17,1,1.31,1.31,0,0,1-1.29-.86l-3.21-8.08-22.42,14.1A2.92,2.92,0,0,1,186,94.91ZM224.88,38.6,187.51,62.09a6.15,6.15,0,0,0-2.46,4.64V92.16a1.62,1.62,0,0,0,.52,1.4,1.32,1.32,0,0,0,1.37-.21l23.52-14.78,3.72,9.34c0,.11.1.13.18.12a.17.17,0,0,0,.16-.14l3.86-14.3,5.93-3.73a6.15,6.15,0,0,0,2.46-4.64V39.79a1.62,1.62,0,0,0-.52-1.4,1.34,1.34,0,0,0-1.37.21Z" style="fill: rgb(224, 224, 224); transform-origin: 205.89px 65.9811px;" id="el2mvdc6v035x" class="animable"></path><path d="M193.06,69.25a.55.55,0,0,1-.49-.31.64.64,0,0,1,.2-.84l25.71-16.16a.54.54,0,0,1,.77.23.64.64,0,0,1-.2.84L193.34,69.17A.5.5,0,0,1,193.06,69.25Z" style="fill: rgb(224, 224, 224); transform-origin: 205.91px 60.5554px;" id="elxh83oy4rvao" class="animable"></path><path d="M193.06,74.67a.55.55,0,0,1-.49-.31.64.64,0,0,1,.2-.84l25.71-16.16a.54.54,0,0,1,.77.23.64.64,0,0,1-.2.84L193.34,74.59A.5.5,0,0,1,193.06,74.67Z" style="fill: rgb(224, 224, 224); transform-origin: 205.91px 65.9754px;" id="elgq9119lexkn" class="animable"></path><path d="M193.06,80.09a.55.55,0,0,1-.49-.31.64.64,0,0,1,.2-.84l25.71-16.16a.53.53,0,0,1,.77.23.64.64,0,0,1-.2.84L193.34,80A.6.6,0,0,1,193.06,80.09Z" style="fill: rgb(224, 224, 224); transform-origin: 205.91px 71.3931px;" id="elgji6g9o5bqd" class="animable"></path></g><g id="freepik--speech-bubble--inject-25" class="animable" style="transform-origin: 244.989px 55.3425px;"><path d="M265.89,26.68a2.31,2.31,0,0,0-2.51.21L229.1,48.44v1.42L264,28a1.32,1.32,0,0,1,1.37-.21,1.6,1.6,0,0,1,.52,1.4V54.58a6.1,6.1,0,0,1-2.46,4.63l-5.92,3.73-3.87,14.3a.19.19,0,0,1-.16.15.17.17,0,0,1-.18-.12l-3.71-9.35L226,82.7a1.32,1.32,0,0,1-1.37.21,1.6,1.6,0,0,1-.52-1.4V73.25l-.61.34-.52.32v7.6A2.77,2.77,0,0,0,224.08,84a1.84,1.84,0,0,0,1,.28,2.92,2.92,0,0,0,1.5-.49L249,69.67l3.22,8.08a1.29,1.29,0,0,0,1.28.86,1.34,1.34,0,0,0,1.18-1l3.73-13.83L264,60.28a7.34,7.34,0,0,0,3-5.7V29.15A2.77,2.77,0,0,0,265.89,26.68Z" style="fill: rgb(224, 224, 224); transform-origin: 244.989px 55.3425px;" id="elyl2zrkuy6qd" class="animable"></path><path d="M232.13,58.6a.55.55,0,0,1-.49-.3.64.64,0,0,1,.21-.84L257.56,41.3a.54.54,0,0,1,.77.22.65.65,0,0,1-.21.84L232.41,58.52A.48.48,0,0,1,232.13,58.6Z" style="fill: rgb(224, 224, 224); transform-origin: 244.983px 49.9093px;" id="elx4xbm8ezma" class="animable"></path><path d="M232.13,64a.55.55,0,0,1-.49-.3.64.64,0,0,1,.21-.84l25.71-16.16a.54.54,0,0,1,.77.22.65.65,0,0,1-.21.84L232.41,63.94A.48.48,0,0,1,232.13,64Z" style="fill: rgb(224, 224, 224); transform-origin: 244.983px 55.3102px;" id="elyspg3kq8cp" class="animable"></path><path d="M232.13,69.44a.55.55,0,0,1-.49-.3.64.64,0,0,1,.21-.84l25.71-16.16a.54.54,0,0,1,.77.22.65.65,0,0,1-.21.84L232.41,69.36A.48.48,0,0,1,232.13,69.44Z" style="fill: rgb(224, 224, 224); transform-origin: 244.983px 60.7493px;" id="el7pw2mtp2v4q" class="animable"></path></g></g></g><g id="freepik--Character--inject-25" class="animable" style="transform-origin: 239.618px 282.587px;"><g id="freepik--Bust--inject-25" class="animable" style="transform-origin: 239.618px 282.587px;"><g id="freepik--Chest--inject-25" class="animable" style="transform-origin: 239.618px 366.279px;"><path d="M370.12,359.18h0c-3.33-26.33-13.45-63.45-29.38-76.79h0c-17.57-18.59-41-15.6-58-9.53l-1.63,87.87c0,13.48,19.95,24.42,44.55,24.42C350.92,384.92,371.39,374.15,370.12,359.18Z" style="fill: rgb(69, 90, 100); transform-origin: 325.643px 326.68px;" id="elrzep5ve5y6h" class="animable"></path><path d="M356.69,391h0c0-32.34-13.64-68.6-19.18-80.07-11.86-24.53-31.43-47.91-82.66-33.63-31.9,8.89-61.56,22.63-83.49,33.44a56.35,56.35,0,0,0-9.65,6.13c-5.3,4.08-8.77,12.13-9.73,17.88-3.08,18.39-4.73,34.5-5.73,48.16a38.29,38.29,0,0,0-.3,4.53h0c-2.07,18,2.33,29.24,24.48,42,44.32,25.58,110.26,25.74,152.82,3.41C346.17,420.82,356.56,401.18,356.69,391Z" style="fill: #88F944; transform-origin: 251.091px 361.042px;" id="elap2qmg5jfcg" class="animable"></path><path d="M171.36,310.71c-33,16.2-42.15,22.55-48.23,56.56-4,22.56-13.25,67.31-14,72.61s4.62,13.6,12.45,18.12c15.64,9,48.83,8.43,65.12-1.7,7.55-4.69,10.73-10.71,11.73-17.41h0l3.9-44.66S203.92,318.86,171.36,310.71Z" style="fill: rgb(69, 90, 100); transform-origin: 155.701px 387.529px;" id="el6q5forqotd" class="animable"></path></g><g id="freepik--Head--inject-25" class="animable" style="transform-origin: 254.537px 217.34px;"><path d="M331.71,178.07c7.79-19.33-1.07-44.42-11.35-56-14.87-16.8-37.46-23.58-71.14-20.54-25.61,2.31-50.55,13.68-54.61,40.14-24.94,8.7-22.22,39-16.67,53.79,11.26,30,31.8,53.39,38.53,72.35Z" style="fill: rgb(38, 50, 56); transform-origin: 254.439px 184.317px;" id="elvahgd24ybbf" class="animable"></path><path d="M331.9,249.61c-3.65,14.75-10.1,24.89-23.56,27.38-8.06,1.51-20.93,1.67-20.93,1.67l-1.33,23.21c8.79,6.62,20,26-.53,31s-61.28-9.62-76.25-30.58l1-61.84s-7.11,10.84-21,2.33c-9.53-5.88-18.24-22.73-11.83-37.46,6.36-14.47,22.91-13.28,29.17-5.27,3.69,4.73,5.4,12.37,12.81,11,5.48-1,6.9-5.27,8.16-8.81,2.25-6.19,3.77-14.14,3.65-27.8,3.72-2,8-4.37,10.36-8.47,3-5.25,2.77-12.2,11-21,12.44-13.31,60.84-15.91,72.81,2,5.74,10.87,8.43,40.82,9.1,57.36C335.27,224.43,335,237.27,331.9,249.61Z" style="fill: rgb(200, 133, 106); transform-origin: 255.072px 234.058px;" id="elaz5orh1p2gj" class="animable"></path><path d="M287.41,278.66c-15-.42-45.67-6.92-53.92-15.06s-12.15-25.13-12.15-25.13,1.81,21.56,8.28,30.92,22.27,12.95,31.82,15.16a145.42,145.42,0,0,0,25.45,3.09Z" style="fill: rgb(175, 97, 82); transform-origin: 254.375px 263.055px;" id="elv98ig9bi8j" class="animable"></path><path d="M273.85,196.48a6.27,6.27,0,1,1-6.38-6.41A6.36,6.36,0,0,1,273.85,196.48Z" style="fill: rgb(38, 50, 56); transform-origin: 267.581px 196.339px;" id="elc2sbp08uti" class="animable"></path><path d="M269.5,231.78,294.89,239a13,13,0,0,1-16.08,9.52A13.83,13.83,0,0,1,269.5,231.78Z" style="fill: rgb(175, 97, 82); transform-origin: 281.967px 240.381px;" id="elqa70pva0znk" class="animable"></path><path d="M272,237.62a11.92,11.92,0,0,1,11,11.34,12.71,12.71,0,0,1-4.13-.41A13.55,13.55,0,0,1,269.37,238,11.8,11.8,0,0,1,272,237.62Z" style="fill: rgb(255, 168, 167); transform-origin: 276.185px 243.303px;" id="elka11einlcx" class="animable"></path><path d="M322,193.3a6.31,6.31,0,1,1-6.43-6.46A6.41,6.41,0,0,1,322,193.3Z" style="fill: rgb(38, 50, 56); transform-origin: 315.691px 193.149px;" id="elill3w13kon" class="animable"></path><path d="M325,181.22l-17-4.51a8.62,8.62,0,0,1,10.56-6.52A9.18,9.18,0,0,1,325,181.22Z" style="fill: rgb(38, 50, 56); transform-origin: 316.633px 175.57px;" id="eltyjkw0nryio" class="animable"></path><path d="M254.69,185.25l15.36-8.49A8.62,8.62,0,0,0,258.21,173,9.19,9.19,0,0,0,254.69,185.25Z" style="fill: rgb(38, 50, 56); transform-origin: 261.837px 178.603px;" id="elrvu925lsmy8" class="animable"></path><path d="M288.67,183.54l5.5,41.33,22.8-6.13C310.08,202.88,300,192.19,288.67,183.54Z" style="fill: rgb(175, 97, 82); transform-origin: 302.82px 204.205px;" id="el0rhflb0pdeq" class="animable"></path></g></g></g><g id="freepik--Lines--inject-25" class="animable" style="transform-origin: 246.525px 267.601px;"><g id="freepik--lines--inject-25" class="animable" style="transform-origin: 246.525px 267.601px;"><path d="M339.1,194.28h-2.5a.65.65,0,0,1,0-1.3h2.5a.65.65,0,0,1,0,1.3Z" style="fill: #88F944; transform-origin: 337.85px 193.63px;" id="eljlssy04ykc" class="animable"></path><path d="M402.29,194.28H397a.65.65,0,1,1,0-1.3h5.26a.65.65,0,0,1,0,1.3Zm-10.53,0h-5.27a.65.65,0,0,1,0-1.3h5.27a.65.65,0,1,1,0,1.3Zm-10.53,0H376a.65.65,0,1,1,0-1.3h5.27a.65.65,0,0,1,0,1.3Zm-10.53,0h-5.27a.65.65,0,0,1,0-1.3h5.27a.65.65,0,1,1,0,1.3Zm-10.53,0H354.9a.65.65,0,1,1,0-1.3h5.27a.65.65,0,0,1,0,1.3Zm-10.53,0h-5.27a.65.65,0,1,1,0-1.3h5.27a.65.65,0,1,1,0,1.3Z" style="fill: #88F944; transform-origin: 373.315px 193.63px;" id="el7lkemgzac0p" class="animable"></path><path d="M410.06,194.28h-2.5a.65.65,0,1,1,0-1.3h2.5a.65.65,0,0,1,0,1.3Z" style="fill: #88F944; transform-origin: 408.81px 193.63px;" id="elr9k9obuhfcs" class="animable"></path><path d="M340.76,243.53h-2.5a.65.65,0,1,1,0-1.3h2.5a.65.65,0,1,1,0,1.3Z" style="fill: #88F944; transform-origin: 339.51px 242.88px;" id="elp6gzo3uihpo" class="animable"></path><path d="M377.18,243.53h-4.55a.65.65,0,1,1,0-1.3h4.55a.65.65,0,0,1,0,1.3Zm-9.11,0h-4.55a.65.65,0,1,1,0-1.3h4.55a.65.65,0,1,1,0,1.3Zm-9.1,0h-4.55a.65.65,0,0,1,0-1.3H359a.65.65,0,0,1,0,1.3Zm-9.11,0h-4.55a.65.65,0,1,1,0-1.3h4.55a.65.65,0,0,1,0,1.3Z" style="fill: #88F944; transform-origin: 361.245px 242.88px;" id="el4vloy1zq00j" class="animable"></path><path d="M384.23,246a.65.65,0,0,1-.65-.65v-1.85h-1.85a.65.65,0,0,1,0-1.3h2.5a.65.65,0,0,1,.65.65v2.5A.65.65,0,0,1,384.23,246Z" style="fill: #88F944; transform-origin: 382.98px 244.1px;" id="els08u8yeseai" class="animable"></path><path d="M384.23,281.45a.65.65,0,0,1-.65-.65v-4.43a.65.65,0,1,1,1.3,0v4.43A.65.65,0,0,1,384.23,281.45Zm0-8.86a.65.65,0,0,1-.65-.65v-4.42a.65.65,0,1,1,1.3,0v4.42A.65.65,0,0,1,384.23,272.59Zm0-8.85a.65.65,0,0,1-.65-.65v-4.43a.65.65,0,0,1,1.3,0v4.43A.65.65,0,0,1,384.23,263.74Zm0-8.85a.65.65,0,0,1-.65-.65v-4.43a.65.65,0,1,1,1.3,0v4.43A.65.65,0,0,1,384.23,254.89Z" style="fill: #88F944; transform-origin: 384.23px 265.305px;" id="ela10zunoipx9" class="animable"></path><path d="M386.73,288.38h-2.5a.66.66,0,0,1-.65-.65v-2.5a.65.65,0,1,1,1.3,0v1.84h1.85a.66.66,0,0,1,0,1.31Z" style="fill: #88F944; transform-origin: 385.444px 286.48px;" id="elnlrmykw250i" class="animable"></path><path d="M404.45,288.38H400a.66.66,0,0,1,0-1.31h4.43a.66.66,0,0,1,0,1.31Zm-8.86,0h-4.43a.66.66,0,0,1,0-1.31h4.43a.66.66,0,0,1,0,1.31Z" style="fill: #88F944; transform-origin: 397.795px 287.725px;" id="el0dyxzxkaie48" class="animable"></path><path d="M411.38,288.38h-2.5a.66.66,0,0,1,0-1.31h2.5a.66.66,0,0,1,0,1.31Z" style="fill: #88F944; transform-origin: 410.13px 287.725px;" id="el6qgg44mtfx8" class="animable"></path><path d="M167.65,223.21h-2.5a.65.65,0,1,1,0-1.3h2.5a.65.65,0,1,1,0,1.3Z" style="fill: #88F944; transform-origin: 166.4px 222.56px;" id="elzgb1rzor56" class="animable"></path><path d="M159.4,223.21h-5.76a.65.65,0,0,1,0-1.3h5.76a.65.65,0,1,1,0,1.3Z" style="fill: #88F944; transform-origin: 156.52px 222.56px;" id="elkn4upmzpxk" class="animable"></path><path d="M147.88,223.21h-2.5a.65.65,0,0,1,0-1.3h2.5a.65.65,0,0,1,0,1.3Z" style="fill: #88F944; transform-origin: 146.63px 222.56px;" id="elwe59w9fyoy" class="animable"></path><path d="M116.65,192.09a.65.65,0,0,1-.65-.65v-5.32a.65.65,0,1,1,1.3,0v5.32A.65.65,0,0,1,116.65,192.09Zm0-10.63a.65.65,0,0,1-.65-.65V175.5a.65.65,0,1,1,1.3,0v5.31A.65.65,0,0,1,116.65,181.46Zm0-10.62a.65.65,0,0,1-.65-.65v-5.31a.65.65,0,1,1,1.3,0v5.31A.65.65,0,0,1,116.65,170.84Zm0-10.62a.65.65,0,0,1-.65-.65v-5.31a.65.65,0,0,1,1.3,0v5.31A.65.65,0,0,1,116.65,160.22Z" style="fill: #88F944; transform-origin: 116.65px 172.851px;" id="elzbcc9q3ezs" class="animable"></path><path d="M116.65,149.6A.66.66,0,0,1,116,149v-2.5a.65.65,0,0,1,1.3,0V149A.66.66,0,0,1,116.65,149.6Z" style="fill: #88F944; transform-origin: 116.65px 147.726px;" id="el7my2qbazvrq" class="animable"></path><path d="M101.44,297.47h-2.5a.65.65,0,1,1,0-1.3h2.5a.65.65,0,1,1,0,1.3Z" style="fill: #88F944; transform-origin: 100.19px 296.82px;" id="eltkrp107od2" class="animable"></path><path d="M189.31,297.47h-4.88a.65.65,0,0,1,0-1.3h4.88a.65.65,0,0,1,0,1.3Zm-9.76,0h-4.88a.65.65,0,0,1,0-1.3h4.88a.65.65,0,0,1,0,1.3Zm-9.77,0H164.9a.65.65,0,1,1,0-1.3h4.88a.65.65,0,1,1,0,1.3Zm-9.76,0h-4.88a.65.65,0,0,1,0-1.3H160a.65.65,0,0,1,0,1.3Zm-9.76,0h-4.88a.65.65,0,0,1,0-1.3h4.88a.65.65,0,0,1,0,1.3Zm-9.76,0h-4.89a.65.65,0,0,1,0-1.3h4.89a.65.65,0,0,1,0,1.3Zm-9.77,0h-4.88a.65.65,0,1,1,0-1.3h4.88a.65.65,0,1,1,0,1.3Zm-9.76,0h-4.88a.65.65,0,1,1,0-1.3H121a.65.65,0,1,1,0,1.3Zm-9.76,0h-4.88a.65.65,0,1,1,0-1.3h4.88a.65.65,0,1,1,0,1.3Z" style="fill: #88F944; transform-origin: 147.816px 296.82px;" id="elguy33ups88v" class="animable"></path><path d="M70.64,268.61A.65.65,0,0,1,70,268v-5a.65.65,0,1,1,1.3,0v5A.65.65,0,0,1,70.64,268.61Zm0-9.94A.65.65,0,0,1,70,258v-5a.65.65,0,0,1,1.3,0v5A.65.65,0,0,1,70.64,258.67Zm0-10a.65.65,0,0,1-.65-.65v-5a.65.65,0,0,1,1.3,0v5A.65.65,0,0,1,70.64,248.72Zm0-9.94a.65.65,0,0,1-.65-.65v-5a.65.65,0,1,1,1.3,0v5A.65.65,0,0,1,70.64,238.78Zm0-9.95a.65.65,0,0,1-.65-.65v-5a.65.65,0,0,1,1.3,0v5A.65.65,0,0,1,70.64,228.83Zm0-9.94a.65.65,0,0,1-.65-.65v-5a.65.65,0,1,1,1.3,0v5A.65.65,0,0,1,70.64,218.89Zm0-9.95a.65.65,0,0,1-.65-.65v-5a.65.65,0,0,1,1.3,0v5A.65.65,0,0,1,70.64,208.94Zm0-9.94a.65.65,0,0,1-.65-.65v-5a.65.65,0,0,1,1.3,0v5A.65.65,0,0,1,70.64,199Zm0-9.95a.65.65,0,0,1-.65-.65v-5a.65.65,0,0,1,1.3,0v5A.65.65,0,0,1,70.64,189.05Z" style="fill: #88F944; transform-origin: 70.6452px 225.655px;" id="elm3sgh1xkes" class="animable"></path><path d="M70.64,179.11a.65.65,0,0,1-.65-.65V176a.65.65,0,1,1,1.3,0v2.5A.65.65,0,0,1,70.64,179.11Z" style="fill: #88F944; transform-origin: 70.64px 177.23px;" id="elo6du46y3cbk" class="animable"></path><path d="M45.11,389.35a.66.66,0,0,1-.65-.65v-2.5a.65.65,0,0,1,1.3,0v2.5A.65.65,0,0,1,45.11,389.35Z" style="fill: #88F944; transform-origin: 45.11px 387.45px;" id="elympd0ssmli9" class="animable"></path><path d="M45.11,381.54a.66.66,0,0,1-.65-.65v-5.32a.65.65,0,0,1,1.3,0v5.32A.65.65,0,0,1,45.11,381.54Zm0-10.64a.66.66,0,0,1-.65-.65v-5.31a.65.65,0,0,1,1.3,0v5.31A.65.65,0,0,1,45.11,370.9Zm0-10.63a.66.66,0,0,1-.65-.65V354.3a.66.66,0,0,1,.65-.65.66.66,0,0,1,.65.65v5.32A.65.65,0,0,1,45.11,360.27Z" style="fill: #88F944; transform-origin: 45.11px 367.595px;" id="elgf9vl60e1p5" class="animable"></path><path d="M45.11,349.64a.66.66,0,0,1-.65-.65v-2.5a.66.66,0,0,1,.65-.65h2.5a.65.65,0,0,1,0,1.3H45.76V349A.65.65,0,0,1,45.11,349.64Z" style="fill: #88F944; transform-origin: 46.36px 347.74px;" id="el2dehqzmfavz" class="animable"></path><path d="M94.77,347.14H90.05a.65.65,0,0,1,0-1.3h4.72a.65.65,0,0,1,0,1.3Zm-9.43,0H80.62a.65.65,0,0,1,0-1.3h4.72a.65.65,0,1,1,0,1.3Zm-9.43,0H71.19a.65.65,0,0,1,0-1.3h4.72a.65.65,0,0,1,0,1.3Zm-9.43,0H61.76a.65.65,0,1,1,0-1.3h4.72a.65.65,0,1,1,0,1.3Zm-9.43,0H52.33a.65.65,0,1,1,0-1.3h4.72a.65.65,0,0,1,0,1.3Z" style="fill: #88F944; transform-origin: 73.55px 346.49px;" id="elwpzn0em988a" class="animable"></path><path d="M102,347.14h-2.5a.65.65,0,0,1,0-1.3H102a.65.65,0,0,1,0,1.3Z" style="fill: #88F944; transform-origin: 100.75px 346.49px;" id="el064xrkb4zuvs" class="animable"></path><polygon points="101.98 341.17 101.98 351.81 111.88 346.49 101.98 341.17" style="fill: #88F944; transform-origin: 106.93px 346.49px;" id="elxqy1ix5b08" class="animable"></polygon><path d="M428.84,352.61a.65.65,0,0,1-.65-.65v-5.4a.65.65,0,1,1,1.3,0V352A.65.65,0,0,1,428.84,352.61Zm0-10.8a.65.65,0,0,1-.65-.65v-5.4a.65.65,0,1,1,1.3,0v5.4A.65.65,0,0,1,428.84,341.81Z" style="fill: #88F944; transform-origin: 428.84px 343.86px;" id="elapuw5an7k" class="animable"></path><path d="M428.84,374.2a.65.65,0,0,1-.65-.65v-5.4a.65.65,0,1,1,1.3,0v5.4A.65.65,0,0,1,428.84,374.2Zm0-10.8a.65.65,0,0,1-.65-.65v-5.4a.65.65,0,0,1,1.3,0v5.4A.65.65,0,0,1,428.84,363.4Z" style="fill: #88F944; transform-origin: 428.84px 365.45px;" id="elljx7mtbw8y" class="animable"></path><path d="M428.84,382a.65.65,0,0,1-.65-.65v-2.4a.65.65,0,1,1,1.3,0v2.4A.65.65,0,0,1,428.84,382Z" style="fill: #88F944; transform-origin: 428.84px 380.15px;" id="elxkdlkekazxd" class="animable"></path><path d="M428.84,331a.65.65,0,0,1-.65-.65v-1.85h-1.85a.65.65,0,0,1,0-1.3h2.5a.65.65,0,0,1,.65.65v2.5A.65.65,0,0,1,428.84,331Z" style="fill: #88F944; transform-origin: 427.592px 329.1px;" id="eldyv4v8w3gdu" class="animable"></path><path d="M421.7,328.52h-4.63a.65.65,0,0,1,0-1.3h4.63a.65.65,0,0,1,0,1.3Zm-9.27,0h-4.64a.65.65,0,1,1,0-1.3h4.64a.65.65,0,0,1,0,1.3Zm-9.28,0h-4.64a.65.65,0,0,1,0-1.3h4.64a.65.65,0,0,1,0,1.3Zm-9.28,0h-4.64a.65.65,0,1,1,0-1.3h4.64a.65.65,0,0,1,0,1.3Zm-9.27,0H380a.65.65,0,1,1,0-1.3h4.64a.65.65,0,0,1,0,1.3Z" style="fill: #88F944; transform-origin: 400.85px 327.87px;" id="elgh31itk9ej4" class="animable"></path><path d="M375.32,328.52h-2.5a.65.65,0,0,1,0-1.3h2.5a.65.65,0,0,1,0,1.3Z" style="fill: #88F944; transform-origin: 374.07px 327.87px;" id="el68rylvsq8qi" class="animable"></path><polygon points="380.78 322.26 380.78 332.91 370.88 327.58 380.78 322.26" style="fill: #88F944; transform-origin: 375.83px 327.585px;" id="el6b9j3a7z73o" class="animable"></polygon><path d="M447.94,238.84h-2.5a.65.65,0,1,1,0-1.3h2.5a.65.65,0,0,1,0,1.3Z" style="fill: #88F944; transform-origin: 446.69px 238.19px;" id="elnx4svju6nmr" class="animable"></path><path d="M439.77,238.84H434.1a.65.65,0,0,1,0-1.3h5.67a.65.65,0,1,1,0,1.3Zm-11.34,0h-5.67a.65.65,0,1,1,0-1.3h5.67a.65.65,0,0,1,0,1.3Zm-11.34,0h-5.67a.65.65,0,0,1,0-1.3h5.67a.65.65,0,1,1,0,1.3Z" style="fill: #88F944; transform-origin: 425.595px 238.19px;" id="elr4mim697ljm" class="animable"></path><path d="M405.75,238.84h-2.5a.65.65,0,0,1-.65-.65v-2.5a.65.65,0,1,1,1.3,0v1.85h1.85a.65.65,0,0,1,0,1.3Z" style="fill: #88F944; transform-origin: 404.5px 236.94px;" id="elluddg7m5y9p" class="animable"></path><path d="M403.25,231.33a.65.65,0,0,1-.65-.65v-5a.65.65,0,1,1,1.3,0v5A.65.65,0,0,1,403.25,231.33Z" style="fill: #88F944; transform-origin: 403.25px 228.18px;" id="el3zs3tokam42" class="animable"></path><path d="M403.25,221.3a.65.65,0,0,1-.65-.65V218.8h-1.85a.65.65,0,1,1,0-1.3h2.5a.65.65,0,0,1,.65.65v2.5A.65.65,0,0,1,403.25,221.3Z" style="fill: #88F944; transform-origin: 402px 219.4px;" id="el0c63oxq8a8si" class="animable"></path><path d="M395.82,218.8H390.9a.65.65,0,1,1,0-1.3h4.92a.65.65,0,1,1,0,1.3Zm-9.85,0H381a.65.65,0,0,1,0-1.3H386a.65.65,0,0,1,0,1.3Zm-9.86,0h-4.93a.65.65,0,0,1,0-1.3h4.93a.65.65,0,0,1,0,1.3Zm-9.86,0h-4.93a.65.65,0,1,1,0-1.3h4.93a.65.65,0,0,1,0,1.3Zm-9.85,0h-4.93a.65.65,0,0,1,0-1.3h4.93a.65.65,0,1,1,0,1.3Z" style="fill: #88F944; transform-origin: 373.645px 218.15px;" id="el6xbfvdvoils" class="animable"></path><path d="M346.54,218.8H344a.65.65,0,0,1,0-1.3h2.5a.65.65,0,0,1,0,1.3Z" style="fill: #88F944; transform-origin: 345.25px 218.15px;" id="elxioalq7gm8c" class="animable"></path><polygon points="351.33 212.93 351.33 223.58 341.44 218.26 351.33 212.93" style="fill: #88F944; transform-origin: 346.385px 218.255px;" id="eln2zwdzion2h" class="animable"></polygon><path d="M114.29,273.93h-2.5a.65.65,0,0,1,0-1.3h2.5a.65.65,0,1,1,0,1.3Z" style="fill: #88F944; transform-origin: 113.044px 273.28px;" id="eld7h5u3sb5ht" class="animable"></path><path d="M169.67,273.93h-4.61a.65.65,0,0,1,0-1.3h4.61a.65.65,0,0,1,0,1.3Zm-9.23,0h-4.61a.65.65,0,0,1,0-1.3h4.61a.65.65,0,0,1,0,1.3Zm-9.23,0H146.6a.65.65,0,0,1,0-1.3h4.61a.65.65,0,0,1,0,1.3Zm-9.23,0h-4.61a.65.65,0,0,1,0-1.3H142a.65.65,0,1,1,0,1.3Zm-9.23,0h-4.61a.65.65,0,1,1,0-1.3h4.61a.65.65,0,0,1,0,1.3Zm-9.23,0h-4.61a.65.65,0,1,1,0-1.3h4.61a.65.65,0,0,1,0,1.3Z" style="fill: #88F944; transform-origin: 144.286px 273.28px;" id="ele4ihfjl4sjs" class="animable"></path><path d="M176.79,273.93h-2.5a.65.65,0,0,1,0-1.3h1.85v-1.85a.65.65,0,1,1,1.3,0v2.5A.65.65,0,0,1,176.79,273.93Z" style="fill: #88F944; transform-origin: 175.542px 272.03px;" id="el1nmisnd1idy" class="animable"></path><path d="M176.79,265.69a.65.65,0,0,1-.65-.65v-5.75a.65.65,0,0,1,1.3,0V265A.65.65,0,0,1,176.79,265.69Z" style="fill: #88F944; transform-origin: 176.791px 262.165px;" id="elr5gmbildybk" class="animable"></path><path d="M176.79,254.2a.65.65,0,0,1-.65-.65v-2.5a.65.65,0,0,1,1.3,0v2.5A.65.65,0,0,1,176.79,254.2Z" style="fill: #88F944; transform-origin: 176.79px 252.3px;" id="el6xgqna18sls" class="animable"></path><polygon points="182.11 255.35 171.46 255.35 176.79 245.45 182.11 255.35" style="fill: #88F944; transform-origin: 176.785px 250.4px;" id="elrdkla0rtwv" class="animable"></polygon></g></g><g id="freepik--Icons--inject-25" class="animable" style="transform-origin: 255.17px 245.25px;"><path d="M438.66,222.9a29.27,29.27,0,1,1,29.27-29.27A29.29,29.29,0,0,1,438.66,222.9Zm0-57.21a27.95,27.95,0,1,0,27.94,27.94A28,28,0,0,0,438.66,165.69Z" style="fill: #88F944; transform-origin: 438.66px 193.63px;" id="el9cv95c9gwq6" class="animable"></path><path d="M454.58,209.75H422.75a4,4,0,0,1-4-4V181.53a4,4,0,0,1,4-4h31.83a4,4,0,0,1,4,4v24.21A4,4,0,0,1,454.58,209.75Zm-31.83-31.23a3,3,0,0,0-3,3v24.21a3,3,0,0,0,3,3h31.83a3,3,0,0,0,3-3V181.53a3,3,0,0,0-3-3Z" style="fill: #88F944; transform-origin: 438.665px 193.64px;" id="el50lvxe4219p" class="animable"></path><path d="M455,206.24H422.37a.5.5,0,0,1-.5-.5v-9.5a.52.52,0,0,1,.14-.36l9.77-9.91a.5.5,0,0,1,.7,0l13.13,12.2-1.6-3a.52.52,0,0,1,.1-.62l4.43-3.92a.5.5,0,0,1,.67,0l6.08,5.62a.47.47,0,0,1,.16.37v9.09A.5.5,0,0,1,455,206.24Zm-32.08-1h31.58v-8.38l-5.59-5.15-3.79,3.36,2.86,5.28a.5.5,0,0,1-.79.6l-15-13.93-9.28,9.42Z" style="fill: #88F944; transform-origin: 438.661px 196.034px;" id="el6zkw7dx39cq" class="animable"></path><path d="M444.94,188.27a2.93,2.93,0,1,1,2.93-2.93A2.93,2.93,0,0,1,444.94,188.27Zm0-4.86a1.93,1.93,0,1,0,1.93,1.93A1.92,1.92,0,0,0,444.94,183.41Z" style="fill: #88F944; transform-origin: 444.94px 185.34px;" id="elmeesv4eua8n" class="animable"></path><path d="M116.77,251.83A29.27,29.27,0,1,1,146,222.56,29.3,29.3,0,0,1,116.77,251.83Zm0-57.21a27.94,27.94,0,1,0,28,27.94A28,28,0,0,0,116.77,194.62Z" style="fill: #88F944; transform-origin: 116.73px 222.56px;" id="el9v11xs0nm2q" class="animable"></path><path d="M117,238.19c-4.31,0-5.23-1.5-5.32-1.67a.46.46,0,0,1-.06-.23v-2.17c0-.59-.48-1.67-2.78-3.51l0-.05h0a12.84,12.84,0,1,1,16.46,0l0,0c-2.34,1.89-2.82,3-2.82,3.56v2.17a.46.46,0,0,1-.06.23C122.23,236.69,121.31,238.19,117,238.19Zm-4.38-2.07c.23.25,1.25,1.07,4.38,1.07s4.14-.81,4.39-1.07v-2c0-1.2,1-2.57,3.14-4.29h0l0,0a11.84,11.84,0,1,0-15.14,0l0,0c2.18,1.75,3.17,3.1,3.17,4.3Z" style="fill: #88F944; transform-origin: 117.07px 223.027px;" id="el82hn6xpy5om" class="animable"></path><path d="M117,245.09c-4.49,0-5.45-1.56-5.54-1.74a.46.46,0,0,1-.06-.23v-4.35a.49.49,0,0,1,.38-.48.47.47,0,0,1,.56.25h0s.81,1.2,4.66,1.2,4.66-1.21,4.67-1.22a.5.5,0,0,1,.56-.22.49.49,0,0,1,.37.47v4.35a.46.46,0,0,1-.06.23C122.44,243.53,121.48,245.09,117,245.09Zm-4.6-2.14c.24.26,1.31,1.14,4.6,1.14s4.34-.87,4.6-1.14v-3.11a12.21,12.21,0,0,1-9.2,0Z" style="fill: #88F944; transform-origin: 117px 241.68px;" id="eljajzudqrxz7" class="animable"></path><path d="M117,206.11a.51.51,0,0,1-.5-.5v-4.19a.51.51,0,0,1,.5-.5.5.5,0,0,1,.5.5v4.19A.5.5,0,0,1,117,206.11Z" style="fill: #88F944; transform-origin: 117px 203.515px;" id="elwbcgk9jlnf" class="animable"></path><path d="M124.62,208.27a.54.54,0,0,1-.25-.06.52.52,0,0,1-.19-.69l2.1-3.62a.5.5,0,1,1,.86.5L125.05,208A.5.5,0,0,1,124.62,208.27Z" style="fill: #88F944; transform-origin: 125.677px 205.938px;" id="el9iqr8fv95cp" class="animable"></path><path d="M130.14,214a.52.52,0,0,1-.44-.25.51.51,0,0,1,.19-.68l3.62-2.09a.5.5,0,0,1,.5.86l-3.62,2.1A.57.57,0,0,1,130.14,214Z" style="fill: #88F944; transform-origin: 131.928px 212.468px;" id="elenpkj37pxd" class="animable"></path><path d="M136.26,221.65h-4.19a.5.5,0,0,1,0-1h4.19a.5.5,0,0,1,0,1Z" style="fill: #88F944; transform-origin: 134.165px 221.15px;" id="elhp5mtf2qb38" class="animable"></path><path d="M133.53,231.37a.55.55,0,0,1-.25-.07l-3.62-2.09a.5.5,0,1,1,.5-.87l3.62,2.09a.51.51,0,0,1,.18.69A.5.5,0,0,1,133.53,231.37Z" style="fill: #88F944; transform-origin: 131.718px 229.822px;" id="elnvur0qd4h7f" class="animable"></path><path d="M109.37,208.27a.51.51,0,0,1-.44-.25l-2.09-3.62a.5.5,0,0,1,.87-.5l2.09,3.62a.51.51,0,0,1-.18.69A.57.57,0,0,1,109.37,208.27Z" style="fill: #88F944; transform-origin: 108.32px 205.959px;" id="elk6su99kcrse" class="animable"></path><path d="M103.85,214a.51.51,0,0,1-.25-.06L100,211.8a.5.5,0,1,1,.5-.86L104.1,213a.5.5,0,0,1,.18.68A.5.5,0,0,1,103.85,214Z" style="fill: #88F944; transform-origin: 102.026px 212.422px;" id="elbzit246c9ne" class="animable"></path><path d="M101.91,221.65H97.73a.5.5,0,1,1,0-1h4.18a.5.5,0,0,1,0,1Z" style="fill: #88F944; transform-origin: 99.82px 221.15px;" id="el9vu1uttzzxm" class="animable"></path><path d="M100.45,231.37a.5.5,0,0,1-.43-.25.51.51,0,0,1,.18-.69l3.63-2.09a.5.5,0,0,1,.5.87l-3.63,2.09A.55.55,0,0,1,100.45,231.37Z" style="fill: #88F944; transform-origin: 102.267px 229.822px;" id="elmngnivckszc" class="animable"></path><path d="M115.32,235h-.13a.5.5,0,0,1-.35-.62s.37-1.55-.18-6.29a11.1,11.1,0,0,0-1-3.51,3.54,3.54,0,0,1-3.78-.88,1.42,1.42,0,0,1,.25-2.06,1.89,1.89,0,0,1,2-.21,4.65,4.65,0,0,1,2,1.9,5.06,5.06,0,0,0,.72-.43,7,7,0,0,0,1.49-1.41,4.1,4.1,0,0,1-.8-3.16,1.51,1.51,0,0,1,2.83,0,4.11,4.11,0,0,1-.81,3.16,7.2,7.2,0,0,0,1.49,1.41,5.68,5.68,0,0,0,.72.43,4.61,4.61,0,0,1,2-1.9,1.88,1.88,0,0,1,2,.21,1.42,1.42,0,0,1,.25,2.06,3.54,3.54,0,0,1-3.78.88,11.12,11.12,0,0,0-.94,3.51c-.56,4.74-.19,6.28-.18,6.3a.5.5,0,0,1-1,.26c0-.07-.43-1.67.15-6.68a12.21,12.21,0,0,1,1-3.76,5.91,5.91,0,0,1-.82-.49A7.89,7.89,0,0,1,117,222.3a8.13,8.13,0,0,1-1.52,1.41,6.56,6.56,0,0,1-.82.49,12.52,12.52,0,0,1,1,3.76c.59,5,.17,6.61.15,6.68A.49.49,0,0,1,115.32,235Zm-4-12.76a.82.82,0,0,0-.5.17.43.43,0,0,0-.07.68,2.52,2.52,0,0,0,2.48.58,3.51,3.51,0,0,0-1.44-1.33A1.24,1.24,0,0,0,111.3,222.24Zm9.48,1.43a2.5,2.5,0,0,0,2.47-.58.43.43,0,0,0-.07-.68.93.93,0,0,0-1-.07A3.39,3.39,0,0,0,120.78,223.67ZM117,218.34c-.34,0-.42.15-.46.28a2.87,2.87,0,0,0,.46,1.93,2.87,2.87,0,0,0,.46-1.93C117.41,218.49,117.33,218.34,117,218.34Z" style="fill: #88F944; transform-origin: 116.95px 226.191px;" id="elbeaf2o2pcnv" class="animable"></path><path d="M70.34,326.14a29.27,29.27,0,1,1,29.27-29.26A29.29,29.29,0,0,1,70.34,326.14Zm0-57.21a27.95,27.95,0,1,0,27.94,27.95A28,28,0,0,0,70.34,268.93Z" style="fill: #88F944; transform-origin: 70.34px 296.87px;" id="elsjdckzrc2oc" class="animable"></path><path d="M78.23,319.77H62.69a2,2,0,0,1-2-2v-3.66a.5.5,0,0,1,.5-.5H79.73a.5.5,0,0,1,.5.5v3.66A2,2,0,0,1,78.23,319.77Zm-16.54-5.16v3.16a1,1,0,0,0,1,1H78.23a1,1,0,0,0,1-1v-3.16Z" style="fill: #88F944; transform-origin: 70.46px 316.69px;" id="elf092hn6lm3g" class="animable"></path><path d="M79.73,314.61H61.19a.51.51,0,0,1-.4-.2.49.49,0,0,1-.09-.44l4.79-17.28a.49.49,0,0,1,.48-.37h9a.5.5,0,0,1,.48.37L80.21,314a.5.5,0,0,1-.48.64Zm-17.89-1H79.07l-4.5-16.29H66.35Z" style="fill: #88F944; transform-origin: 70.4558px 305.48px;" id="elkig81wnz7s" class="animable"></path><path d="M76.78,295.61H64.13a1.52,1.52,0,1,1,0-3H76.78a1.52,1.52,0,1,1,0,3Zm-12.65-2a.52.52,0,1,0,0,1H76.78a.52.52,0,1,0,0-1Z" style="fill: #88F944; transform-origin: 70.455px 294.11px;" id="elzmopxzxsdao" class="animable"></path><path d="M75,291.83H66a.49.49,0,0,1-.48-.37l-2-7.23a.5.5,0,0,1,.09-.44.49.49,0,0,1,.39-.19H76.92a.49.49,0,0,1,.48.63l-2,7.23A.5.5,0,0,1,75,291.83Zm-8.6-1h8.22l1.7-6.23H64.65Z" style="fill: #88F944; transform-origin: 70.4616px 287.715px;" id="eluzw59qrfah" class="animable"></path><path d="M76.92,284.6H64a.51.51,0,0,1-.5-.5c0-3.25,6.1-5.64,6.79-5.9a.53.53,0,0,1,.35,0c.7.26,6.79,2.65,6.79,5.9A.5.5,0,0,1,76.92,284.6Zm-12.35-1H76.35c-.57-1.93-4.22-3.74-5.89-4.4C68.79,279.86,65.14,281.67,64.57,283.6Z" style="fill: #88F944; transform-origin: 70.465px 281.385px;" id="elv5nlcpf6vvl" class="animable"></path><path d="M70.46,279.17a2.83,2.83,0,1,1,2.82-2.83A2.83,2.83,0,0,1,70.46,279.17Zm0-4.66a1.83,1.83,0,1,0,1.82,1.83A1.83,1.83,0,0,0,70.46,274.51Z" style="fill: #88F944; transform-origin: 70.45px 276.34px;" id="elbzazimf1yki" class="animable"></path><path d="M440,317a29.27,29.27,0,1,1,29.27-29.26A29.29,29.29,0,0,1,440,317Zm0-57.21a27.95,27.95,0,1,0,27.94,28A28,28,0,0,0,440,259.78Z" style="fill: #88F944; transform-origin: 440px 287.73px;" id="el4lwu1st8n0t" class="animable"></path><path d="M439.23,309.72a.54.54,0,0,1-.34-.12s-3.47-3.09-5.27-4.79c-1.55-1.47-2.76-2.82-1.77-4.46a3.15,3.15,0,0,1,2-1.17,5.51,5.51,0,0,0,2.69-1.53c1.57-1.74.28-4.22-1-5.47s-3.73-2.54-5.48-1a5.56,5.56,0,0,0-1.52,2.69,3.15,3.15,0,0,1-1.18,2c-1.64,1-3-.22-4.45-1.77-1.71-1.8-4.76-5.24-4.79-5.28a.49.49,0,0,1,.14-.77s1.84-1,5.45-3.45c4.4-3,3.49-4.52,2.82-5.64-.25-.41-.68-.55-1.44-.76a5.66,5.66,0,0,1-2.71-1.42c-1.26-1.26-1.58-3.66.71-5.94a5.22,5.22,0,0,1,3.3-1.68,3.38,3.38,0,0,1,2.65,1,5.78,5.78,0,0,1,1.42,2.72c.21.75.35,1.19.75,1.43,1.12.67,2.65,1.58,5.65-2.81,2.46-3.62,3.43-5.44,3.44-5.46a.52.52,0,0,1,.36-.25.5.5,0,0,1,.42.11s3.47,3.09,5.28,4.79c1.55,1.47,2.75,2.82,1.77,4.45a3.17,3.17,0,0,1-2,1.18,5.59,5.59,0,0,0-2.69,1.53c-1.57,1.75-.53,4,1,5.47s3.73,2.55,5.48,1a5.42,5.42,0,0,0,1.52-2.68,3.15,3.15,0,0,1,1.18-2c1.64-1,3,.22,4.45,1.77,1.71,1.8,4.76,5.24,4.79,5.28a.49.49,0,0,1-.14.77s-1.84,1-5.45,3.45c-4.39,3-3.48,4.52-2.82,5.64.25.4.69.55,1.44.76a5.69,5.69,0,0,1,2.72,1.42c1.26,1.26,1.57,3.66-.72,5.94s-4.69,2-5.94.72a5.6,5.6,0,0,1-1.42-2.72c-.22-.75-.36-1.19-.76-1.43-1.12-.67-2.65-1.58-5.64,2.81a64,64,0,0,0-3.45,5.46.48.48,0,0,1-.35.25ZM432,289.49a6.4,6.4,0,0,1,4.29,2c1.87,1.88,2.82,4.83,1,6.85a6.41,6.41,0,0,1-3.13,1.81c-.66.21-1.19.38-1.41.74-.44.75-.32,1.39,1.6,3.21,1.4,1.32,3.79,3.46,4.8,4.36.45-.8,1.45-2.45,3.19-5,3.25-4.77,5.31-4.11,7-3.11a3.09,3.09,0,0,1,1.21,2,4.73,4.73,0,0,0,1.16,2.28c.92.92,2.73,1.09,4.53-.71s1.64-3.61.72-4.53a4.71,4.71,0,0,0-2.28-1.17,3,3,0,0,1-2-1.2c-1-1.68-1.67-3.73,3.11-7,2.55-1.73,4.2-2.73,5-3.19-.89-1-3-3.4-4.35-4.79-1.82-1.92-2.46-2.05-3.21-1.6-.37.22-.53.74-.75,1.41a6.34,6.34,0,0,1-1.8,3.13c-1.87,1.68-4.56,1.28-6.85-1s-2.69-5-1-6.85a6.41,6.41,0,0,1,3.13-1.81c.66-.21,1.19-.38,1.41-.74.45-.75.32-1.39-1.6-3.21-1.4-1.32-3.79-3.46-4.79-4.36-.46.8-1.46,2.45-3.2,5-3.25,4.77-5.3,4.11-7,3.11a3,3,0,0,1-1.21-2,4.76,4.76,0,0,0-1.17-2.28,2.42,2.42,0,0,0-1.87-.68,4.29,4.29,0,0,0-2.66,1.39c-1.8,1.81-1.64,3.62-.72,4.53a4.83,4.83,0,0,0,2.29,1.17,3.05,3.05,0,0,1,2,1.2c1,1.68,1.67,3.73-3.1,7-2.56,1.73-4.21,2.73-5,3.19.89,1,3,3.4,4.36,4.79,1.82,1.93,2.46,2.05,3.21,1.6.36-.22.53-.74.74-1.41a6.5,6.5,0,0,1,1.8-3.13A3.76,3.76,0,0,1,432,289.49Z" style="fill: #88F944; transform-origin: 439.99px 287.77px;" id="elsgebxw8s1j" class="animable"></path></g><defs>     <filter id="active" height="200%">         <feMorphology in="SourceAlpha" result="DILATED" operator="dilate" radius="2"></feMorphology>                <feFlood flood-color="#32DFEC" flood-opacity="1" result="PINK"></feFlood>        <feComposite in="PINK" in2="DILATED" operator="in" result="OUTLINE"></feComposite>        <feMerge>            <feMergeNode in="OUTLINE"></feMergeNode>            <feMergeNode in="SourceGraphic"></feMergeNode>        </feMerge>    </filter>    <filter id="hover" height="200%">        <feMorphology in="SourceAlpha" result="DILATED" operator="dilate" radius="2"></feMorphology>                <feFlood flood-color="#ff0000" flood-opacity="0.5" result="PINK"></feFlood>        <feComposite in="PINK" in2="DILATED" operator="in" result="OUTLINE"></feComposite>        <feMerge>            <feMergeNode in="OUTLINE"></feMergeNode>            <feMergeNode in="SourceGraphic"></feMergeNode>        </feMerge>            <feColorMatrix type="matrix" values="0   0   0   0   0                0   1   0   0   0                0   0   0   0   0                0   0   0   1   0 "></feColorMatrix>    </filter></defs></svg>