<svg xmlns="http://www.w3.org/2000/svg" xmlns:xlink="http://www.w3.org/1999/xlink" width="50" zoomAndPan="magnify" viewBox="0 0 37.5 37.499999" height="50" preserveAspectRatio="xMidYMid meet" version="1.0"><defs><g/><clipPath id="id1"><path d="M 0 0 L 37.007812 0 L 37.007812 37.007812 L 0 37.007812 Z M 0 0 " clip-rule="nonzero"/></clipPath><clipPath id="id2"><path d="M 1.371094 4.5 L 18 4.5 L 18 33 L 1.371094 33 Z M 1.371094 4.5 " clip-rule="nonzero"/></clipPath><clipPath id="id3"><path d="M 6 18 L 26.871094 18 L 26.871094 32 L 6 32 Z M 6 18 " clip-rule="nonzero"/></clipPath></defs><g clip-path="url(#id1)"><path fill="#ffffff" d="M 0 0 L 37.5 0 L 37.5 45 L 0 45 Z M 0 0 " fill-opacity="1" fill-rule="nonzero"/><path fill="#ffffff" d="M 0 0 L 37.5 0 L 37.5 37.5 L 0 37.5 Z M 0 0 " fill-opacity="1" fill-rule="nonzero"/><path fill="#ffffff" d="M 0 0 L 37.5 0 L 37.5 37.5 L 0 37.5 Z M 0 0 " fill-opacity="1" fill-rule="nonzero"/><path fill="#ffffff" d="M 0 0 L 37.5 0 L 37.5 37.5 L 0 37.5 Z M 0 0 " fill-opacity="1" fill-rule="nonzero"/></g><g clip-path="url(#id2)"><path fill="#7ed957" d="M 5.625 20.175781 C 5.625 16.96875 6.886719 14.050781 8.941406 11.878906 L 9.484375 13.828125 L 17.648438 4.5 L 5.925781 4.5 L 7.226562 7.21875 C 3.679688 9.734375 1.371094 13.839844 1.371094 18.472656 C 1.371094 26.128906 7.660156 32.332031 15.417969 32.332031 C 15.859375 32.332031 16.292969 32.3125 16.722656 32.273438 C 10.492188 31.664062 5.625 26.480469 5.625 20.175781 " fill-opacity="1" fill-rule="nonzero"/></g><g clip-path="url(#id3)"><path fill="#008037" d="M 26.871094 22.902344 C 8.296875 31.882812 6.570312 18.507812 6.570312 18.507812 C 5.160156 32.996094 25.523438 31.378906 25.523438 31.378906 L 22.605469 28.371094 L 26.871094 22.902344 " fill-opacity="1" fill-rule="nonzero"/></g><g fill="#008037" fill-opacity="1"><g transform="translate(8.977766, 20.558626)"><g><path d="M 3.625 -0.1875 L 2.792969 -1.402344 C 3.15625 -1.527344 3.613281 -1.957031 3.613281 -2.578125 C 3.613281 -2.957031 3.488281 -3.292969 3.269531 -3.507812 C 3.023438 -3.753906 2.738281 -3.886719 2.09375 -3.886719 L 0.601562 -3.886719 C 0.46875 -3.886719 0.4375 -3.820312 0.4375 -3.714844 L 0.4375 -0.171875 C 0.4375 -0.0351562 0.496094 0 0.601562 0 L 1.1875 0 C 1.296875 0 1.359375 -0.0351562 1.359375 -0.171875 L 1.359375 -3.058594 L 2.148438 -3.058594 C 2.453125 -3.058594 2.691406 -2.863281 2.691406 -2.554688 C 2.691406 -2.277344 2.417969 -2.074219 2.128906 -2.074219 L 2.011719 -2.074219 C 1.875 -2.074219 1.839844 -2.011719 1.839844 -1.902344 L 1.839844 -1.429688 C 1.839844 -1.265625 1.851562 -1.199219 1.902344 -1.128906 L 2.542969 -0.175781 C 2.625 -0.0546875 2.695312 0 2.839844 0 L 3.535156 0 C 3.648438 0 3.679688 -0.105469 3.625 -0.1875 Z M 3.625 -0.1875 "/></g></g></g><g fill="#008037" fill-opacity="1"><g transform="translate(13.133674, 20.558626)"><g><path d="M 3.257812 -0.828125 L 1.371094 -0.828125 L 1.371094 -1.609375 L 2.957031 -1.609375 C 3.09375 -1.609375 3.128906 -1.671875 3.128906 -1.78125 L 3.128906 -2.242188 C 3.128906 -2.347656 3.09375 -2.414062 2.957031 -2.414062 L 1.371094 -2.414062 L 1.371094 -3.058594 L 3.15625 -3.058594 C 3.292969 -3.058594 3.328125 -3.121094 3.328125 -3.230469 L 3.328125 -3.71875 C 3.328125 -3.824219 3.292969 -3.890625 3.15625 -3.890625 L 0.609375 -3.890625 C 0.472656 -3.890625 0.4375 -3.824219 0.4375 -3.71875 L 0.4375 -0.171875 C 0.4375 -0.0664062 0.472656 0 0.609375 0 L 3.257812 0 C 3.394531 0 3.429688 -0.0664062 3.429688 -0.171875 L 3.429688 -0.65625 C 3.429688 -0.761719 3.394531 -0.828125 3.257812 -0.828125 Z M 3.257812 -0.828125 "/></g></g></g><g fill="#008037" fill-opacity="1"><g transform="translate(17.059032, 20.558626)"><g><path d="M 2.085938 -1.980469 L 0.480469 -1.980469 C 0.371094 -1.980469 0.308594 -1.945312 0.308594 -1.808594 L 0.308594 -1.347656 C 0.308594 -1.210938 0.371094 -1.175781 0.480469 -1.175781 L 2.085938 -1.175781 C 2.195312 -1.175781 2.257812 -1.210938 2.257812 -1.347656 L 2.257812 -1.808594 C 2.257812 -1.945312 2.195312 -1.980469 2.085938 -1.980469 Z M 2.085938 -1.980469 "/></g></g></g><g fill="#008037" fill-opacity="1"><g transform="translate(19.843461, 20.558626)"><g><path d="M 3.347656 -3.890625 L 2.761719 -3.890625 C 2.65625 -3.890625 2.589844 -3.855469 2.589844 -3.71875 L 2.589844 -1.320312 C 2.589844 -0.945312 2.339844 -0.734375 1.953125 -0.734375 C 1.5625 -0.734375 1.320312 -0.945312 1.320312 -1.320312 L 1.320312 -3.71875 C 1.320312 -3.855469 1.253906 -3.890625 1.148438 -3.890625 L 0.5625 -3.890625 C 0.457031 -3.890625 0.390625 -3.855469 0.390625 -3.71875 L 0.390625 -1.1875 C 0.390625 -0.261719 1.246094 0.0898438 1.953125 0.0898438 C 2.65625 0.0898438 3.519531 -0.261719 3.519531 -1.1875 L 3.519531 -3.71875 C 3.519531 -3.855469 3.453125 -3.890625 3.347656 -3.890625 Z M 3.347656 -3.890625 "/></g></g></g><g fill="#008037" fill-opacity="1"><g transform="translate(23.969811, 20.558626)"><g><path d="M 2.269531 -2.257812 C 2.035156 -2.355469 1.164062 -2.484375 1.164062 -2.84375 C 1.164062 -3.109375 1.488281 -3.1875 1.683594 -3.1875 C 1.863281 -3.1875 2.074219 -3.132812 2.1875 -3.027344 C 2.257812 -2.957031 2.289062 -2.910156 2.3125 -2.851562 C 2.339844 -2.773438 2.359375 -2.691406 2.472656 -2.691406 L 3.050781 -2.691406 C 3.1875 -2.691406 3.222656 -2.714844 3.222656 -2.855469 C 3.222656 -3.636719 2.402344 -3.980469 1.648438 -3.980469 C 0.910156 -3.949219 0.210938 -3.570312 0.210938 -2.804688 C 0.210938 -2.050781 0.761719 -1.816406 1.359375 -1.625 C 1.863281 -1.464844 2.390625 -1.460938 2.390625 -1.128906 C 2.390625 -0.796875 2.128906 -0.726562 1.808594 -0.726562 C 1.589844 -0.726562 1.347656 -0.78125 1.230469 -0.921875 C 1.152344 -1.011719 1.125 -1.089844 1.117188 -1.164062 C 1.105469 -1.3125 1.039062 -1.332031 0.90625 -1.332031 L 0.332031 -1.332031 C 0.195312 -1.332031 0.160156 -1.300781 0.160156 -1.164062 C 0.160156 -0.335938 1.011719 0.0898438 1.75 0.0898438 C 2.660156 0.0898438 3.324219 -0.3125 3.324219 -1.152344 C 3.324219 -1.957031 2.695312 -2.128906 2.269531 -2.257812 Z M 2.269531 -2.257812 "/></g></g></g><g fill="#008037" fill-opacity="1"><g transform="translate(27.765116, 20.558626)"><g><path d="M 3.257812 -0.828125 L 1.371094 -0.828125 L 1.371094 -1.609375 L 2.957031 -1.609375 C 3.09375 -1.609375 3.128906 -1.671875 3.128906 -1.78125 L 3.128906 -2.242188 C 3.128906 -2.347656 3.09375 -2.414062 2.957031 -2.414062 L 1.371094 -2.414062 L 1.371094 -3.058594 L 3.15625 -3.058594 C 3.292969 -3.058594 3.328125 -3.121094 3.328125 -3.230469 L 3.328125 -3.71875 C 3.328125 -3.824219 3.292969 -3.890625 3.15625 -3.890625 L 0.609375 -3.890625 C 0.472656 -3.890625 0.4375 -3.824219 0.4375 -3.71875 L 0.4375 -0.171875 C 0.4375 -0.0664062 0.472656 0 0.609375 0 L 3.257812 0 C 3.394531 0 3.429688 -0.0664062 3.429688 -0.171875 L 3.429688 -0.65625 C 3.429688 -0.761719 3.394531 -0.828125 3.257812 -0.828125 Z M 3.257812 -0.828125 "/></g></g></g><g fill="#008037" fill-opacity="1"><g transform="translate(31.690475, 20.558626)"><g><path d="M 3.625 -0.1875 L 2.792969 -1.402344 C 3.15625 -1.527344 3.613281 -1.957031 3.613281 -2.578125 C 3.613281 -2.957031 3.488281 -3.292969 3.269531 -3.507812 C 3.023438 -3.753906 2.738281 -3.886719 2.09375 -3.886719 L 0.601562 -3.886719 C 0.46875 -3.886719 0.4375 -3.820312 0.4375 -3.714844 L 0.4375 -0.171875 C 0.4375 -0.0351562 0.496094 0 0.601562 0 L 1.1875 0 C 1.296875 0 1.359375 -0.0351562 1.359375 -0.171875 L 1.359375 -3.058594 L 2.148438 -3.058594 C 2.453125 -3.058594 2.691406 -2.863281 2.691406 -2.554688 C 2.691406 -2.277344 2.417969 -2.074219 2.128906 -2.074219 L 2.011719 -2.074219 C 1.875 -2.074219 1.839844 -2.011719 1.839844 -1.902344 L 1.839844 -1.429688 C 1.839844 -1.265625 1.851562 -1.199219 1.902344 -1.128906 L 2.542969 -0.175781 C 2.625 -0.0546875 2.695312 0 2.839844 0 L 3.535156 0 C 3.648438 0 3.679688 -0.105469 3.625 -0.1875 Z M 3.625 -0.1875 "/></g></g></g></svg>