<svg xmlns="http://www.w3.org/2000/svg" xmlns:xlink="http://www.w3.org/1999/xlink" width="500" zoomAndPan="magnify" viewBox="0 0 375 374.999991" height="500" preserveAspectRatio="xMidYMid meet" version="1.0"><defs><g/><clipPath id="id1"><path d="M 13.726562 45 L 175 45 L 175 324 L 13.726562 324 Z M 13.726562 45 " clip-rule="nonzero"/></clipPath><clipPath id="id2"><path d="M 64 185 L 264.976562 185 L 264.976562 315 L 64 315 Z M 64 185 " clip-rule="nonzero"/></clipPath></defs><g clip-path="url(#id1)"><path fill="rgb(49.409485%, 85.099792%, 34.118652%)" d="M 55.628906 201.746094 C 55.628906 169.675781 68.039062 140.511719 88.308594 118.792969 L 93.640625 138.277344 L 174.109375 45.015625 L 58.601562 45.015625 L 71.382812 72.210938 C 36.460938 97.363281 13.71875 138.390625 13.71875 184.742188 C 13.71875 261.265625 75.6875 323.296875 152.125 323.296875 C 156.453125 323.296875 160.734375 323.085938 164.964844 322.699219 C 103.578125 316.621094 55.628906 264.792969 55.628906 201.746094 " fill-opacity="1" fill-rule="nonzero"/></g><g clip-path="url(#id2)"><path fill="rgb(0%, 50.19989%, 21.569824%)" d="M 264.96875 229.019531 C 81.929688 318.78125 64.949219 185.097656 64.949219 185.097656 C 51.042969 329.941406 251.6875 313.777344 251.6875 313.777344 L 222.929688 283.671875 L 264.96875 229.019531 " fill-opacity="1" fill-rule="nonzero"/></g><g fill="rgb(0%, 50.19989%, 21.569824%)" fill-opacity="1"><g transform="translate(89.777662, 205.586262)"><g><path d="M 36.25 -1.890625 L 27.910156 -14.015625 C 31.578125 -15.257812 36.132812 -19.574219 36.132812 -25.78125 C 36.132812 -29.566406 34.890625 -32.9375 32.703125 -35.066406 C 30.21875 -37.550781 27.378906 -38.851562 20.933594 -38.851562 L 6.03125 -38.851562 C 4.671875 -38.851562 4.375 -38.203125 4.375 -37.136719 L 4.375 -1.714844 C 4.375 -0.355469 4.96875 0 6.03125 0 L 11.886719 0 C 12.949219 0 13.601562 -0.355469 13.601562 -1.714844 L 13.601562 -30.574219 L 21.464844 -30.574219 C 24.542969 -30.574219 26.90625 -28.621094 26.90625 -25.546875 C 26.90625 -22.765625 24.1875 -20.757812 21.289062 -20.757812 L 20.105469 -20.757812 C 18.746094 -20.757812 18.390625 -20.105469 18.390625 -19.042969 L 18.390625 -14.3125 C 18.390625 -12.65625 18.507812 -12.003906 19.042969 -11.292969 L 25.429688 -1.773438 C 26.257812 -0.53125 26.964844 0 28.386719 0 L 35.363281 0 C 36.488281 0 36.78125 -1.0625 36.25 -1.890625 Z M 36.25 -1.890625 "/></g></g></g><g fill="rgb(0%, 50.19989%, 21.569824%)" fill-opacity="1"><g transform="translate(131.336738, 205.586262)"><g><path d="M 32.582031 -8.277344 L 13.71875 -8.277344 L 13.71875 -16.085938 L 29.566406 -16.085938 C 30.929688 -16.085938 31.28125 -16.734375 31.28125 -17.800781 L 31.28125 -22.414062 C 31.28125 -23.476562 30.929688 -24.128906 29.566406 -24.128906 L 13.71875 -24.128906 L 13.71875 -30.574219 L 31.578125 -30.574219 C 32.9375 -30.574219 33.292969 -31.222656 33.292969 -32.289062 L 33.292969 -37.195312 C 33.292969 -38.261719 32.9375 -38.910156 31.578125 -38.910156 L 6.089844 -38.910156 C 4.730469 -38.910156 4.375 -38.261719 4.375 -37.195312 L 4.375 -1.714844 C 4.375 -0.652344 4.730469 0 6.089844 0 L 32.582031 0 C 33.945312 0 34.296875 -0.652344 34.296875 -1.714844 L 34.296875 -6.5625 C 34.296875 -7.628906 33.945312 -8.277344 32.582031 -8.277344 Z M 32.582031 -8.277344 "/></g></g></g><g fill="rgb(0%, 50.19989%, 21.569824%)" fill-opacity="1"><g transform="translate(170.59032, 205.586262)"><g><path d="M 20.875 -19.808594 L 4.789062 -19.808594 C 3.726562 -19.808594 3.074219 -19.457031 3.074219 -18.09375 L 3.074219 -13.484375 C 3.074219 -12.121094 3.726562 -11.769531 4.789062 -11.769531 L 20.875 -11.769531 C 21.9375 -11.769531 22.589844 -12.121094 22.589844 -13.484375 L 22.589844 -18.09375 C 22.589844 -19.457031 21.9375 -19.808594 20.875 -19.808594 Z M 20.875 -19.808594 "/></g></g></g><g fill="rgb(0%, 50.19989%, 21.569824%)" fill-opacity="1"><g transform="translate(198.434609, 205.586262)"><g><path d="M 33.46875 -38.910156 L 27.617188 -38.910156 C 26.550781 -38.910156 25.902344 -38.554688 25.902344 -37.195312 L 25.902344 -13.1875 C 25.902344 -9.460938 23.417969 -7.332031 19.515625 -7.332031 C 15.613281 -7.332031 13.1875 -9.460938 13.1875 -13.1875 L 13.1875 -37.195312 C 13.1875 -38.554688 12.535156 -38.910156 11.472656 -38.910156 L 5.617188 -38.910156 C 4.554688 -38.910156 3.902344 -38.554688 3.902344 -37.195312 L 3.902344 -11.886719 C 3.902344 -2.601562 12.476562 0.886719 19.515625 0.886719 C 26.550781 0.886719 35.1875 -2.601562 35.1875 -11.886719 L 35.1875 -37.195312 C 35.1875 -38.554688 34.535156 -38.910156 33.46875 -38.910156 Z M 33.46875 -38.910156 "/></g></g></g><g fill="rgb(0%, 50.19989%, 21.569824%)" fill-opacity="1"><g transform="translate(239.698111, 205.586262)"><g><path d="M 22.707031 -22.589844 C 20.34375 -23.535156 11.648438 -24.835938 11.648438 -28.445312 C 11.648438 -31.105469 14.902344 -31.875 16.855469 -31.875 C 18.628906 -31.875 20.757812 -31.339844 21.878906 -30.277344 C 22.589844 -29.566406 22.886719 -29.09375 23.121094 -28.503906 C 23.417969 -27.734375 23.59375 -26.90625 24.71875 -26.90625 L 30.515625 -26.90625 C 31.875 -26.90625 32.230469 -27.144531 32.230469 -28.5625 C 32.230469 -36.367188 24.007812 -39.796875 16.5 -39.796875 C 9.105469 -39.503906 2.128906 -35.71875 2.128906 -28.03125 C 2.128906 -20.519531 7.628906 -18.15625 13.601562 -16.261719 C 18.628906 -14.664062 23.890625 -14.605469 23.890625 -11.292969 C 23.890625 -7.984375 21.289062 -7.273438 18.09375 -7.273438 C 15.90625 -7.273438 13.484375 -7.804688 12.300781 -9.226562 C 11.53125 -10.113281 11.234375 -10.882812 11.175781 -11.648438 C 11.058594 -13.128906 10.40625 -13.304688 9.046875 -13.304688 L 3.3125 -13.304688 C 1.953125 -13.304688 1.597656 -13.011719 1.597656 -11.648438 C 1.597656 -3.371094 10.113281 0.886719 17.503906 0.886719 C 26.609375 0.886719 33.234375 -3.132812 33.234375 -11.53125 C 33.234375 -19.574219 26.964844 -21.289062 22.707031 -22.589844 Z M 22.707031 -22.589844 "/></g></g></g><g fill="rgb(0%, 50.19989%, 21.569824%)" fill-opacity="1"><g transform="translate(277.651163, 205.586262)"><g><path d="M 32.582031 -8.277344 L 13.71875 -8.277344 L 13.71875 -16.085938 L 29.566406 -16.085938 C 30.929688 -16.085938 31.28125 -16.734375 31.28125 -17.800781 L 31.28125 -22.414062 C 31.28125 -23.476562 30.929688 -24.128906 29.566406 -24.128906 L 13.71875 -24.128906 L 13.71875 -30.574219 L 31.578125 -30.574219 C 32.9375 -30.574219 33.292969 -31.222656 33.292969 -32.289062 L 33.292969 -37.195312 C 33.292969 -38.261719 32.9375 -38.910156 31.578125 -38.910156 L 6.089844 -38.910156 C 4.730469 -38.910156 4.375 -38.261719 4.375 -37.195312 L 4.375 -1.714844 C 4.375 -0.652344 4.730469 0 6.089844 0 L 32.582031 0 C 33.945312 0 34.296875 -0.652344 34.296875 -1.714844 L 34.296875 -6.5625 C 34.296875 -7.628906 33.945312 -8.277344 32.582031 -8.277344 Z M 32.582031 -8.277344 "/></g></g></g><g fill="rgb(0%, 50.19989%, 21.569824%)" fill-opacity="1"><g transform="translate(316.90475, 205.586262)"><g><path d="M 36.25 -1.890625 L 27.910156 -14.015625 C 31.578125 -15.257812 36.132812 -19.574219 36.132812 -25.78125 C 36.132812 -29.566406 34.890625 -32.9375 32.703125 -35.066406 C 30.21875 -37.550781 27.378906 -38.851562 20.933594 -38.851562 L 6.03125 -38.851562 C 4.671875 -38.851562 4.375 -38.203125 4.375 -37.136719 L 4.375 -1.714844 C 4.375 -0.355469 4.96875 0 6.03125 0 L 11.886719 0 C 12.949219 0 13.601562 -0.355469 13.601562 -1.714844 L 13.601562 -30.574219 L 21.464844 -30.574219 C 24.542969 -30.574219 26.90625 -28.621094 26.90625 -25.546875 C 26.90625 -22.765625 24.1875 -20.757812 21.289062 -20.757812 L 20.105469 -20.757812 C 18.746094 -20.757812 18.390625 -20.105469 18.390625 -19.042969 L 18.390625 -14.3125 C 18.390625 -12.65625 18.507812 -12.003906 19.042969 -11.292969 L 25.429688 -1.773438 C 26.257812 -0.53125 26.964844 0 28.386719 0 L 35.363281 0 C 36.488281 0 36.78125 -1.0625 36.25 -1.890625 Z M 36.25 -1.890625 "/></g></g></g></svg>